<?xml version="1.0" standalone="no"?>
<!DOCTYPE svg PUBLIC "-//W3C//DTD SVG 1.1//EN" "http://www.w3.org/Graphics/SVG/1.1/DTD/svg11.dtd" >
<svg xmlns="http://www.w3.org/2000/svg" xmlns:xlink="http://www.w3.org/1999/xlink" version="1.1">
<metadata>
Created by FontForge 20170731 at Fri Aug 31 19:12:37 2018
 By Aleksey,,,
Copyright (c) 2012 by Vyacheslav Kirilenko, Gayane Bagdasaryan. All rights reserved. |DCNT
</metadata>
<defs>
<font id="Geometria-Regular" horiz-adv-x="638" >
  <font-face 
    font-family="Geometria"
    font-weight="400"
    font-stretch="normal"
    units-per-em="1000"
    panose-1="2 11 5 3 2 2 4 2 2 4"
    ascent="800"
    descent="-200"
    x-height="485"
    cap-height="700"
    bbox="-430 -235 1435 927"
    underline-thickness="50"
    underline-position="-200"
    unicode-range="U+000D-FEFF"
  />
<missing-glyph horiz-adv-x="500" 
d="M58 8h384v496h-384v-496zM50 0v512h400v-512h-400z" />
    <glyph glyph-name="ij" unicode="ij" horiz-adv-x="534" 
d="M94 0v485h79v-485h-79zM80 649q0 23 15.5 38.5t38.5 15.5t38.5 -15.5t15.5 -38.5t-15.5 -38.5t-38.5 -15.5t-38.5 15.5t-15.5 38.5zM292 -204q-54 0 -88 18v72q33 -19 71 -19q84 0 84 95v523h79v-534q0 -79 -40.5 -117t-105.5 -38zM345 649q0 23 15 38.5t38 15.5
t39 -15.5t16 -38.5t-16 -38.5t-39 -15.5t-38 15.5t-15 38.5z" />
    <glyph glyph-name="f_f" unicode="ff" horiz-adv-x="709" 
d="M201 0h-80v416h-95v69h95v77q0 68 36 107t106 39q63 0 104 -19v-72q-44 20 -84 20q-82 0 -82 -89v-63h234v77q0 68 36 107t106 39q63 0 104 -19v-72q-44 20 -84 20q-82 0 -82 -89v-63h166v-69h-166v-416h-80v416h-234v-416z" />
    <glyph glyph-name="fi" unicode="fi" horiz-adv-x="610" 
d="M201 0h-80v416h-95v69h95v77q0 68 36 107t106 39q63 0 104 -19v-72q-44 20 -84 20q-82 0 -82 -89v-63h313v-485h-79v416h-234v-416zM421 649q0 23 15 38.5t38 15.5t39 -15.5t16 -38.5t-16 -38.5t-39 -15.5t-38 15.5t-15 38.5z" />
    <glyph glyph-name="fl" unicode="fl" horiz-adv-x="646" 
d="M201 0h-80v416h-95v69h95v77q0 68 36 107t106 39q63 0 104 -19v-72q-44 20 -84 20q-82 0 -82 -89v-63h234v215h79v-571q0 -68 61 -68q26 0 46 12v-71q-25 -14 -73 -14t-80.5 28t-32.5 93v307h-234v-416z" />
    <glyph glyph-name="f_f_i" unicode="ffi" horiz-adv-x="917" 
d="M201 0h-80v416h-95v69h95v77q0 68 36 107t106 39q63 0 104 -19v-72q-44 20 -84 20q-82 0 -82 -89v-63h234v77q0 68 36 107t106 39q63 0 104 -19v-72q-44 20 -84 20q-82 0 -82 -89v-63h312v-485h-79v416h-233v-416h-80v416h-234v-416zM788 594q-23 0 -38.5 16t-15.5 39
t15.5 38.5t38.5 15.5t38.5 -15.5t15.5 -38.5t-15.5 -39t-38.5 -16z" />
    <glyph glyph-name="f_f_l" unicode="ffl" horiz-adv-x="959" 
d="M201 0h-80v416h-95v69h95v77q0 68 36 107t106 39q63 0 104 -19v-72q-44 20 -84 20q-82 0 -82 -89v-63h234v77q0 68 36 107t106 39q63 0 104 -19v-72q-44 20 -84 20q-82 0 -82 -89v-63h233v215h79v-571q0 -68 62 -68q25 0 45 12v-71q-25 -14 -72 -14q-48 0 -81 28t-33 93
v307h-233v-416h-80v416h-234v-416z" />
    <glyph glyph-name=".notdef" horiz-adv-x="500" 
d="M58 8h384v496h-384v-496zM50 0v512h400v-512h-400z" />
    <glyph glyph-name=".null" horiz-adv-x="0" 
 />
    <glyph glyph-name=".null" horiz-adv-x="0" 
 />
    <glyph glyph-name="nonmarkingreturn" horiz-adv-x="333" 
 />
    <glyph glyph-name="CR" unicode="&#xd;" horiz-adv-x="263" 
 />
    <glyph glyph-name="space" unicode=" " horiz-adv-x="263" 
 />
    <glyph glyph-name="exclam" unicode="!" horiz-adv-x="290" 
d="M109 217l-15 483h103l-15 -483h-73zM90 49q0 23 16 39.5t39 16.5t39.5 -16.5t16.5 -39.5t-16.5 -39t-39.5 -16t-39 16t-16 39z" />
    <glyph glyph-name="quotedbl" unicode="&#x22;" horiz-adv-x="362" 
d="M53 442v258h70v-258h-70zM240 442v258h70v-258h-70z" />
    <glyph glyph-name="numbersign" unicode="#" horiz-adv-x="732" 
d="M150 0l29 187h-144l11 65h143l31 195h-144l11 65h143l31 188h66l-30 -188h190l30 188h66l-30 -188h145l-11 -65h-144l-31 -195h145l-11 -65h-144l-30 -187h-66l30 187h-191l-29 -187h-66zM256 252h190l31 195h-191z" />
    <glyph glyph-name="dollar" unicode="$" horiz-adv-x="628" 
d="M266 710v103h81v-103q103 -10 177 -56v-83q-103 65 -217 65q-82 0 -123 -31t-41 -78q0 -13 3 -24.5t10.5 -21t13.5 -16.5t21 -14.5t23 -12t28.5 -11t29 -9t33 -9.5t32.5 -9q43 -13 68.5 -22.5t60.5 -27.5t54.5 -38t34 -51.5t14.5 -69.5q0 -86 -62.5 -139t-159.5 -62v-102
h-81v102q-135 10 -219 72v90q40 -35 110.5 -61.5t144.5 -26.5q80 0 132 34t52 92q0 25 -10.5 44.5t-24 32.5t-43 25.5t-51 19.5t-64.5 19q-58 16 -92 28.5t-70.5 35t-53.5 55.5t-17 79q0 74 54 122.5t152 58.5z" />
    <glyph glyph-name="percent" unicode="%" horiz-adv-x="825" 
d="M174 0l411 700h67l-411 -700h-67zM213 712q74 0 122 -48.5t48 -119.5t-48 -120t-122 -49q-72 0 -119.5 49t-47.5 120t47.5 119.5t119.5 48.5zM213 433q47 0 76.5 31t29.5 80q0 47 -29.5 78t-76.5 31q-46 0 -75 -31t-29 -78q0 -49 28.5 -80t75.5 -31zM610 325
q73 0 121 -49t48 -120t-48 -119.5t-121 -48.5q-72 0 -120 49t-48 119q0 71 48 120t120 49zM610 47q47 0 76 30.5t29 78.5t-29 79.5t-76 31.5t-76 -31.5t-29 -79.5t29 -78.5t76 -30.5z" />
    <glyph glyph-name="ampersand" unicode="&#x26;" horiz-adv-x="718" 
d="M500 659v-81q-77 63 -164 63q-58 0 -91.5 -28.5t-33.5 -78.5q0 -61 71 -128l232 -226q53 81 57 196h79q-6 -145 -81 -250l130 -126h-105l-74 71q-93 -83 -220 -83q-108 0 -181 58.5t-73 163.5q0 75 40.5 126.5t90.5 73.5q-47 54 -47 126q0 76 55.5 126t139.5 50
q101 0 175 -53zM304 59q96 0 163 64l-240 234q-40 -14 -70 -52.5t-30 -93.5q0 -71 49.5 -111.5t127.5 -40.5z" />
    <glyph glyph-name="quotesingle" unicode="'" horiz-adv-x="175" 
d="M53 442v258h70v-258h-70z" />
    <glyph glyph-name="parenleft" unicode="(" horiz-adv-x="365" 
d="M324 -206h-84q-148 191 -148 456t148 456h84q-156 -198 -156 -456q0 -261 156 -456z" />
    <glyph glyph-name="parenright" unicode=")" horiz-adv-x="365" 
d="M124 -206h-83q156 203 156 456q0 249 -156 456h83q149 -192 149 -456t-149 -456z" />
    <glyph glyph-name="asterisk" unicode="*" horiz-adv-x="425" 
d="M184 339l3 134l-115 -69l-30 50l117 66l-117 65l30 51l115 -70l-3 134h59l-3 -134l115 70l29 -51l-118 -65l118 -66l-29 -50l-115 69l3 -134h-59z" />
    <glyph glyph-name="plus" unicode="+" horiz-adv-x="621" 
d="M275 86v204h-205v73h205v204h71v-204h206v-73h-206v-204h-71z" />
    <glyph glyph-name="comma" unicode="," horiz-adv-x="240" 
d="M14 -152l80 260h92l-109 -260h-63z" />
    <glyph glyph-name="hyphen" unicode="-" horiz-adv-x="483" 
d="M100 236v73h283v-73h-283z" />
    <glyph glyph-name="period" unicode="." horiz-adv-x="239" 
d="M64 49q0 23 16 39.5t40 16.5q23 0 39 -16.5t16 -39.5t-16 -39t-39 -16q-24 0 -40 16t-16 39z" />
    <glyph glyph-name="slash" unicode="/" horiz-adv-x="513" 
d="M2 -140l421 932h82l-421 -932h-82z" />
    <glyph glyph-name="zero" unicode="0" horiz-adv-x="708" 
d="M354 -12q-128 0 -208.5 104.5t-80.5 257.5t80.5 257.5t208.5 104.5t208 -104.5t80 -257.5t-80 -257.5t-208 -104.5zM354 64q91 0 149 82t58 204t-58 204t-149 82t-149 -82t-58 -204t58 -204t149 -82z" />
    <glyph glyph-name="one" unicode="1" horiz-adv-x="375" 
d="M189 0v612l-157 -88v78l165 98h72v-700h-80z" />
    <glyph glyph-name="two" unicode="2" horiz-adv-x="575" 
d="M43 0v60l233 221q77 73 108 119t31 102q0 61 -42 97.5t-113 36.5q-108 0 -200 -92v90q85 78 208 78q97 0 163 -55.5t66 -144.5q0 -71 -35 -127.5t-120 -137.5l-181 -173h361v-74h-479z" />
    <glyph glyph-name="three" unicode="3" horiz-adv-x="572" 
d="M246 -12q-124 0 -205 51v84q84 -59 200 -59q79 0 135.5 42.5t56.5 116.5q0 70 -49.5 112t-135.5 42q-44 0 -80 -11v56l211 204h-310v74h419v-61l-203 -198q91 -4 160 -63.5t69 -154.5q0 -105 -77 -170t-191 -65z" />
    <glyph glyph-name="four" unicode="4" horiz-adv-x="634" 
d="M408 0v191h-373v64l374 445h78v-437h115v-72h-115v-191h-79zM128 263h280v330z" />
    <glyph glyph-name="five" unicode="5" horiz-adv-x="596" 
d="M254 -12q-114 0 -194 46v81q83 -51 192 -51q86 0 142.5 44t56.5 114q0 68 -53 112t-141 44q-84 0 -168 -29l46 351h349v-74h-288l-27 -192q47 12 107 12q111 0 184 -63t73 -161q0 -105 -80 -169.5t-199 -64.5z" />
    <glyph glyph-name="six" unicode="6" horiz-adv-x="641" 
d="M335 -12q-124 0 -195 86.5t-71 241.5q0 170 82 283t224 113q84 0 149 -43v-77q-65 44 -142 44q-59 0 -104.5 -24t-72.5 -65.5t-41 -91t-15 -104.5q27 45 79 71.5t121 26.5q94 0 160 -62.5t66 -160.5q0 -104 -69 -171t-171 -67zM331 64q70 0 117 45.5t47 115.5
q0 69 -47.5 111t-118.5 42q-60 0 -110.5 -37t-68.5 -93q8 -88 54 -136t127 -48z" />
    <glyph glyph-name="seven" unicode="7" horiz-adv-x="555" 
d="M100 0l316 626h-372v74h465v-61l-323 -639h-86z" />
    <glyph glyph-name="eight" unicode="8" horiz-adv-x="645" 
d="M443 370q68 -18 107 -64.5t39 -113.5q0 -93 -76.5 -148.5t-190.5 -55.5t-191 55.5t-77 148.5q0 67 40 113t108 65q-52 21 -82.5 61.5t-30.5 96.5q0 81 66 132.5t167 51.5t167 -51.5t66 -132.5q0 -55 -30 -96t-82 -62zM166 521q0 -53 44.5 -86.5t111.5 -33.5t111.5 33.5
t44.5 86.5q0 55 -44.5 89t-111.5 34t-111.5 -34t-44.5 -89zM322 57q78 0 132 40t54 99q0 62 -53 99.5t-133 37.5t-133 -37.5t-53 -99.5q0 -59 54 -99t132 -40z" />
    <glyph glyph-name="nine" unicode="9" horiz-adv-x="641" 
d="M309 712q124 0 195 -86.5t71 -241.5q0 -170 -82 -283t-224 -113q-84 0 -149 43v77q65 -44 142 -44q59 0 104.5 24t72.5 65.5t41 91t15 104.5q-27 -45 -79 -71.5t-121 -26.5q-95 0 -160.5 62.5t-65.5 160.5q0 104 69 171t171 67zM313 636q-70 0 -117 -45.5t-47 -115.5
q0 -69 47.5 -111t118.5 -42q60 0 110.5 37t68.5 93q-8 88 -54 136t-127 48z" />
    <glyph glyph-name="colon" unicode=":" horiz-adv-x="239" 
d="M64 417q0 23 16 39.5t40 16.5q23 0 39 -16.5t16 -39.5t-16 -39t-39 -16q-24 0 -40 16t-16 39zM64 49q0 23 16 39.5t40 16.5q23 0 39 -16.5t16 -39.5t-16 -39t-39 -16q-24 0 -40 16t-16 39z" />
    <glyph glyph-name="semicolon" unicode=";" horiz-adv-x="246" 
d="M14 -152l80 260h92l-109 -260h-63zM81 417q0 23 16 39.5t40 16.5q23 0 39 -16.5t16 -39.5t-16 -39t-39 -16q-24 0 -40 16t-16 39z" />
    <glyph glyph-name="less" unicode="&#x3c;" horiz-adv-x="621" 
d="M552 82l-482 204v75l482 205v-78l-398 -164l398 -163v-79z" />
    <glyph glyph-name="equal" unicode="=" horiz-adv-x="621" 
d="M70 404v72h482v-72h-482zM70 176v72h482v-72h-482z" />
    <glyph glyph-name="greater" unicode="&#x3e;" horiz-adv-x="621" 
d="M70 82v79l397 163l-397 164v78l482 -205v-75z" />
    <glyph glyph-name="question" unicode="?" horiz-adv-x="478" 
d="M172 217v145q71 13 125 54t54 99q0 56 -41.5 88.5t-106.5 32.5q-87 0 -173 -59v75q76 56 185 56q90 0 154 -52t64 -137q0 -72 -53.5 -122.5t-130.5 -75.5v-104h-77zM157 49q0 23 16.5 39.5t39.5 16.5t39 -16.5t16 -39.5t-16 -39t-39 -16t-39.5 16t-16.5 39z" />
    <glyph glyph-name="at" unicode="@" horiz-adv-x="959" 
d="M481 -162q-181 0 -307 125t-126 312q0 185 126.5 311t306.5 126q183 0 307 -119t124 -292q0 -105 -47 -171.5t-125 -66.5q-95 0 -127 76q-20 -30 -62.5 -54t-96.5 -24q-87 0 -143 62t-56 151t56 151t142 62q51 0 90 -21t60 -49v56h76v-273q0 -103 78 -103q54 0 89.5 56.5
t35.5 148.5q0 158 -111.5 270t-289.5 112q-174 0 -288.5 -119t-114.5 -290q0 -172 114.5 -290.5t288.5 -118.5q110 0 209 53v-31q-94 -50 -209 -50zM474 129q41 0 75 21t54 55v138q-20 34 -54 55t-75 21q-60 0 -100 -41.5t-40 -103.5q0 -60 40 -102.5t100 -42.5z" />
    <glyph glyph-name="A" unicode="A" horiz-adv-x="755" 
d="M28 0l311 704h77l311 -704h-86l-85 189h-360l-83 -189h-85zM224 261h306l-153 341z" />
    <glyph glyph-name="B" unicode="B" horiz-adv-x="725" 
d="M97 0v700h306q94 0 148 -45t54 -125q0 -56 -25 -94t-68 -54q70 -11 111 -60.5t41 -126.5q0 -88 -62 -141.5t-169 -53.5h-336zM178 74h240q76 0 117.5 34t41.5 98q0 63 -41.5 96t-117.5 33h-240v-261zM178 407h211q135 0 135 108q0 54 -34.5 82.5t-100.5 28.5h-211v-219z
" />
    <glyph glyph-name="C" unicode="C" horiz-adv-x="689" 
d="M429 -12q-154 0 -257.5 102t-103.5 260q0 157 103 259.5t258 102.5q113 0 195 -51v-83q-88 58 -194 58q-118 0 -198.5 -81.5t-80.5 -204.5q0 -125 80.5 -205.5t201.5 -80.5q120 0 206 68v-83q-85 -61 -210 -61z" />
    <glyph glyph-name="D" unicode="D" horiz-adv-x="778" 
d="M97 0v700h232q169 0 274.5 -97t105.5 -253t-105.5 -253t-274.5 -97h-232zM178 74h142q142 0 224 74.5t82 201.5t-82 201.5t-224 74.5h-142v-552z" />
    <glyph glyph-name="E" unicode="E" horiz-adv-x="640" 
d="M97 0v700h483v-74h-402v-214h329v-74h-329v-264h417v-74h-498z" />
    <glyph glyph-name="F" unicode="F" horiz-adv-x="623" 
d="M97 0v700h481v-74h-400v-223h323v-74h-323v-329h-81z" />
    <glyph glyph-name="G" unicode="G" horiz-adv-x="779" 
d="M427 -12q-154 0 -256.5 102t-102.5 260q0 157 103 259.5t258 102.5q129 0 221 -65v-82q-99 71 -216 71q-122 0 -202.5 -81t-80.5 -206q0 -126 79.5 -205.5t196.5 -79.5q123 0 193 70v268h80v-300q-45 -51 -115.5 -82.5t-157.5 -31.5z" />
    <glyph glyph-name="H" unicode="H" horiz-adv-x="761" 
d="M97 0v700h81v-288h406v288h81v-700h-81v338h-406v-338h-81z" />
    <glyph glyph-name="I" unicode="I" horiz-adv-x="284" 
d="M102 0v700h81v-700h-81z" />
    <glyph glyph-name="J" unicode="J" horiz-adv-x="507" 
d="M196 -12q-99 0 -161 44v84q58 -52 146 -52q81 0 119.5 39.5t38.5 125.5v471h81v-485q0 -115 -60 -171t-164 -56z" />
    <glyph glyph-name="K" unicode="K" horiz-adv-x="665" 
d="M178 700v-300l316 300h107l-340 -320l393 -380h-112l-364 351v-351h-81v700h81z" />
    <glyph glyph-name="L" unicode="L" horiz-adv-x="598" 
d="M97 0v700h81v-626h387v-74h-468z" />
    <glyph glyph-name="M" unicode="M" horiz-adv-x="848" 
d="M97 0v700h80l248 -334l248 334h79v-700h-80v577l-222 -298h-49l-224 298v-577h-80z" />
    <glyph glyph-name="N" unicode="N" horiz-adv-x="775" 
d="M97 0v700h70l433 -559v559h79v-700h-69l-434 561v-561h-79z" />
    <glyph glyph-name="O" unicode="O" horiz-adv-x="844" 
d="M421 712q151 0 252.5 -103.5t101.5 -258.5t-101.5 -258.5t-252.5 -103.5t-252 103.5t-101 258.5t101 258.5t252 103.5zM421 64q115 0 193 82t78 204t-78 204t-193 82q-114 0 -192 -82t-78 -204t78 -204t192 -82z" />
    <glyph glyph-name="P" unicode="P" horiz-adv-x="664" 
d="M97 0v700h295q106 0 166 -54t60 -142q0 -90 -60 -144.5t-166 -54.5h-214v-305h-81zM178 379h208q72 0 111.5 31.5t39.5 91.5t-39.5 92t-111.5 32h-208v-247z" />
    <glyph glyph-name="Q" unicode="Q" horiz-adv-x="844" 
d="M421 712q151 0 252.5 -103.5t101.5 -258.5q0 -121 -64.5 -214t-169.5 -129q62 -62 126 -62q49 0 83 22v-77q-39 -21 -94 -21q-54 0 -101 30.5t-106 89.5q-9 -1 -28 -1q-151 0 -252 103.5t-101 258.5t101 258.5t252 103.5zM421 64q115 0 193 82t78 204t-78 204t-193 82
q-114 0 -192 -82t-78 -204t78 -204t192 -82z" />
    <glyph glyph-name="R" unicode="R" horiz-adv-x="735" 
d="M97 0v700h314q104 0 163.5 -53t59.5 -139q0 -74 -42 -124t-121 -65l225 -319h-96l-218 311h-204v-311h-81zM178 384h228q70 0 108 31t38 90q0 58 -38 89.5t-108 31.5h-228v-242z" />
    <glyph glyph-name="S" unicode="S" horiz-adv-x="628" 
d="M307 -12q-157 0 -260 74v90q40 -35 110.5 -61.5t144.5 -26.5q80 0 132 34t52 92q0 25 -10.5 44.5t-24 32.5t-43 25.5t-51 19.5t-64.5 19q-58 16 -92 28.5t-70.5 35t-53.5 55.5t-17 79q0 80 65 131.5t180 51.5q126 0 219 -58v-83q-103 65 -217 65q-82 0 -123 -31t-41 -78
q0 -13 3 -24.5t10.5 -21t13.5 -16.5t21 -14.5t23 -12t28.5 -11t29 -9t33 -9.5t32.5 -9q43 -13 68.5 -22.5t60.5 -27.5t54.5 -38t34 -51.5t14.5 -69.5q0 -95 -75.5 -149t-186.5 -54z" />
    <glyph glyph-name="T" unicode="T" horiz-adv-x="632" 
d="M274 0v626h-239v74h562v-74h-241v-626h-82z" />
    <glyph glyph-name="U" unicode="U" horiz-adv-x="747" 
d="M373 -12q-128 0 -207.5 80.5t-79.5 229.5v402h81v-404q0 -111 56 -171.5t150 -60.5q95 0 151 60.5t56 171.5v404h81v-402q0 -149 -80 -229.5t-208 -80.5z" />
    <glyph glyph-name="V" unicode="V" horiz-adv-x="755" 
d="M339 -4l-307 704h90l256 -592l256 592h88l-307 -704h-76z" />
    <glyph glyph-name="W" unicode="W" horiz-adv-x="1055" 
d="M278 -4l-241 704h90l190 -572l179 575h65l180 -575l188 572h88l-240 -704h-72l-177 567l-178 -567h-72z" />
    <glyph glyph-name="X" unicode="X" horiz-adv-x="710" 
d="M27 0l280 380l-235 320h96l188 -254l189 254h94l-235 -319l280 -381h-96l-233 315l-233 -315h-95z" />
    <glyph glyph-name="Y" unicode="Y" horiz-adv-x="668" 
d="M293 0v320l-271 380h94l219 -305l219 305h92l-271 -378v-322h-82z" />
    <glyph glyph-name="Z" unicode="Z" horiz-adv-x="642" 
d="M47 0v58l422 568h-398v74h508v-57l-419 -569h435v-74h-548z" />
    <glyph glyph-name="bracketleft" unicode="[" horiz-adv-x="392" 
d="M93 -206v912h260v-66h-184v-780h184v-66h-260z" />
    <glyph glyph-name="backslash" unicode="\" horiz-adv-x="512" 
d="M429 -140l-421 932h82l421 -932h-82z" />
    <glyph glyph-name="bracketright" unicode="]" horiz-adv-x="393" 
d="M299 706v-912h-259v66h183v780h-183v66h259z" />
    <glyph glyph-name="asciicircum" unicode="^" horiz-adv-x="521" 
d="M52 345l170 374h76l171 -374h-76l-132 301l-132 -301h-77z" />
    <glyph glyph-name="underscore" unicode="_" horiz-adv-x="623" 
d="M8 -131v60h607v-60h-607z" />
    <glyph glyph-name="grave" unicode="`" horiz-adv-x="524" 
d="M282 577l-120 135h99l96 -135h-75z" />
    <glyph glyph-name="a" unicode="a" horiz-adv-x="595" 
d="M248 59q51 0 94.5 22t68.5 54v66q-68 45 -152 45q-64 0 -100.5 -24.5t-36.5 -68.5q0 -47 36 -70.5t90 -23.5zM226 -12q-77 0 -130.5 43t-53.5 118t56.5 117.5t141.5 42.5q99 0 171 -45v44q0 118 -156 118q-85 0 -158 -48v75q73 44 175 44q98 0 158 -46t60 -135v-191
q0 -63 45 -63q18 0 28 7v-62q-18 -12 -51 -12q-77 0 -93 76q-74 -83 -193 -83z" />
    <glyph glyph-name="b" unicode="b" horiz-adv-x="636" 
d="M83 700h80v-290q67 87 184 87q106 0 174 -74.5t68 -180.5q0 -105 -68 -179.5t-174 -74.5q-119 0 -184 87v-75h-80v700zM163 321v-157q21 -45 66.5 -75t98.5 -30q78 0 129 52.5t51 130.5t-51 131t-129 53q-55 0 -99.5 -29.5t-65.5 -75.5z" />
    <glyph glyph-name="c" unicode="c" horiz-adv-x="523" 
d="M307 -12q-110 0 -184.5 73t-74.5 182q0 110 74.5 182t185.5 72q84 0 146 -35v-72q-64 36 -135 36q-80 0 -135 -52t-55 -132q0 -79 55 -131t135 -52q82 0 144 41v-71q-68 -41 -156 -41z" />
    <glyph glyph-name="d" unicode="d" 
d="M474 700h80v-700h-80v75q-65 -87 -184 -87q-106 0 -174 74.5t-68 179.5q0 106 68 180.5t174 74.5q117 0 184 -87v290zM474 164v157q-21 46 -65.5 75.5t-99.5 29.5q-78 0 -129 -53t-51 -131t51 -130.5t129 -52.5q53 0 98.5 30t66.5 75z" />
    <glyph glyph-name="e" unicode="e" horiz-adv-x="571" 
d="M315 -12q-113 0 -190 71.5t-77 182.5q0 110 68.5 182.5t178.5 72.5q57 0 102.5 -23.5t71.5 -61.5t39.5 -81t13.5 -87v-22h-393q8 -75 62.5 -119t139.5 -44q84 0 156 45v-70q-61 -46 -172 -46zM130 286h312q-3 53 -40.5 96.5t-110.5 43.5q-70 0 -113.5 -41.5t-47.5 -98.5z
" />
    <glyph glyph-name="f" unicode="f" horiz-adv-x="395" 
d="M201 0h-80v416h-95v69h95v77q0 68 36 107t106 39q63 0 104 -19v-72q-44 20 -84 20q-82 0 -82 -89v-63h166v-69h-166v-416z" />
    <glyph glyph-name="g" unicode="g" horiz-adv-x="636" 
d="M475 33v48q-63 -84 -185 -84q-106 0 -174 73t-68 177t68 177t174 73q122 0 185 -84v72h79v-451q0 -116 -76 -177t-189 -61q-111 0 -188 44v76q81 -49 180 -49q86 0 140 40.5t54 125.5zM475 170v154q-21 46 -65.5 74t-99.5 28q-78 0 -129.5 -52t-51.5 -127
q0 -77 51.5 -128t129.5 -51q55 0 99.5 28t65.5 74z" />
    <glyph glyph-name="h" unicode="h" horiz-adv-x="611" 
d="M163 0h-80v700h80v-288q29 36 78.5 60.5t111.5 24.5q91 0 137.5 -53t46.5 -149v-295h-80v278q0 43 -12.5 73.5t-33.5 44.5t-41.5 20t-44.5 6q-47 0 -94 -29.5t-68 -67.5v-325z" />
    <glyph glyph-name="i" unicode="i" horiz-adv-x="269" 
d="M94 0v485h79v-485h-79zM80 649q0 23 15.5 38.5t38.5 15.5t38.5 -15.5t15.5 -38.5t-15.5 -38.5t-38.5 -15.5t-38.5 15.5t-15.5 38.5z" />
    <glyph glyph-name="j" unicode="j" horiz-adv-x="269" 
d="M27 -204q-53 0 -88 18v72q33 -19 71 -19q84 0 84 95v523h79v-534q0 -79 -40.5 -117t-105.5 -38zM80 649q0 23 15 38.5t38 15.5t39 -15.5t16 -38.5t-16 -38.5t-39 -15.5t-38 15.5t-15 38.5z" />
    <glyph glyph-name="k" unicode="k" horiz-adv-x="547" 
d="M163 700v-412l222 197h106l-250 -219l286 -266h-112l-252 235v-235h-80v700h80z" />
    <glyph glyph-name="l" unicode="l" horiz-adv-x="295" 
d="M197 -12q-48 0 -81 28t-33 93v591h80v-571q0 -68 61 -68q26 0 46 12v-71q-27 -14 -73 -14z" />
    <glyph glyph-name="m" unicode="m" horiz-adv-x="919" 
d="M83 0v485h80v-71q57 83 171 83q60 0 100 -24.5t55 -69.5q27 41 75 67.5t110 26.5q81 0 126 -50t45 -145v-302h-79v284q0 138 -116 138q-44 0 -86 -30t-61 -69q0 -11 0.5 -28t0.5 -28v-267h-79v284q0 43 -11.5 72.5t-30.5 42.5t-36.5 18t-37.5 5q-43 0 -84 -28t-62 -68
v-326h-80z" />
    <glyph glyph-name="n" unicode="n" horiz-adv-x="611" 
d="M163 0h-80v485h80v-73q29 36 78.5 60.5t111.5 24.5q91 0 137.5 -53t46.5 -149v-295h-80v278q0 43 -12.5 73.5t-33.5 44.5t-41.5 20t-44.5 6q-47 0 -94 -29.5t-68 -67.5v-325z" />
    <glyph glyph-name="o" unicode="o" horiz-adv-x="621" 
d="M311 497q115 0 189 -75t74 -180t-74 -179.5t-189 -74.5t-189 74.5t-74 179.5t74 180t189 75zM311 59q78 0 130 52.5t52 130.5t-52 131t-130 53t-130 -53t-52 -131t52 -130.5t130 -52.5z" />
    <glyph glyph-name="p" unicode="p" horiz-adv-x="636" 
d="M163 -200h-80v685h80v-75q67 87 184 87q106 0 174 -74.5t68 -179.5q0 -106 -68 -180.5t-174 -74.5q-119 0 -184 87v-275zM163 321v-158q21 -46 65 -75t100 -29q78 0 129 53t51 131t-51 130.5t-129 52.5q-53 0 -98.5 -30t-66.5 -75z" />
    <glyph glyph-name="q" unicode="q" 
d="M554 -200h-79v275q-65 -87 -185 -87q-106 0 -174 74.5t-68 180.5q0 105 68 179.5t174 74.5q118 0 185 -87v75h79v-685zM475 163v158q-22 46 -66.5 75.5t-98.5 29.5q-78 0 -129.5 -52.5t-51.5 -130.5t51.5 -131t129.5 -53q55 0 99.5 29t65.5 75z" />
    <glyph glyph-name="r" unicode="r" horiz-adv-x="375" 
d="M83 0v485h80v-91q30 49 82 76t109 27v-80q-63 -2 -114.5 -31.5t-76.5 -81.5v-304h-80z" />
    <glyph glyph-name="s" unicode="s" horiz-adv-x="510" 
d="M250 -12q-61 0 -116.5 14.5t-84.5 35.5v80q29 -22 83.5 -40.5t114.5 -18.5t94 19t34 54q0 12 -3.5 21t-12 15.5t-17 11.5t-24 9.5t-27 7.5t-31.5 8t-33 8q-86 22 -127.5 53.5t-41.5 94.5t51.5 99.5t145.5 36.5q109 0 177 -43v-77q-80 49 -174 49q-119 0 -119 -67
q0 -39 59 -60q20 -7 85 -22q82 -18 127.5 -51t45.5 -96q0 -66 -57.5 -104t-148.5 -38z" />
    <glyph glyph-name="t" unicode="t" horiz-adv-x="431" 
d="M277 -12q-69 0 -104 40t-35 108v280h-112v69h112v147h80v-147h166v-69h-166v-257q0 -54 19 -76t63 -22q47 0 78 20v-71q-34 -22 -101 -22z" />
    <glyph glyph-name="u" unicode="u" horiz-adv-x="612" 
d="M448 485h80v-485h-80v73q-75 -85 -190 -85q-91 0 -137.5 53t-46.5 149v295h80v-278q0 -144 132 -144q48 0 93 29t69 68v325z" />
    <glyph glyph-name="v" unicode="v" horiz-adv-x="569" 
d="M248 -3l-222 488h89l171 -383l171 383h85l-222 -488h-72z" />
    <glyph glyph-name="w" unicode="w" horiz-adv-x="820" 
d="M209 -3l-173 488h81l131 -368l129 370h66l130 -370l130 368h80l-173 -488h-69l-133 371l-130 -371h-69z" />
    <glyph glyph-name="x" unicode="x" horiz-adv-x="557" 
d="M31 0l202 255l-178 230h93l133 -168l134 168h92l-180 -228l202 -257h-93l-156 197l-158 -197h-91z" />
    <glyph glyph-name="y" unicode="y" horiz-adv-x="558" 
d="M115 -204q-57 0 -79 14v73q29 -16 67 -16q45 0 75.5 35.5t63.5 115.5l-215 467h88l167 -374l161 374h86l-238 -539q-34 -75 -75.5 -112.5t-100.5 -37.5z" />
    <glyph glyph-name="z" unicode="z" horiz-adv-x="506" 
d="M37 0v53l301 363h-280v69h394v-55l-300 -361h316v-69h-431z" />
    <glyph glyph-name="braceleft" unicode="{" horiz-adv-x="368" 
d="M332 -206h-60q-66 0 -103.5 37t-37.5 105v148q0 30 -2 49t-9 39.5t-23.5 31.5t-42.5 14v64q34 4 52 24.5t21.5 43.5t3.5 63v151q0 68 37.5 105t103.5 37h60v-66h-42q-83 0 -83 -84v-163q0 -57 -15 -92.5t-55 -50.5q41 -15 55.5 -50t14.5 -93v-163q0 -84 83 -84h42v-66z
" />
    <glyph glyph-name="bar" unicode="|" horiz-adv-x="312" 
d="M121 -111v871h69v-871h-69z" />
    <glyph glyph-name="braceright" unicode="}" horiz-adv-x="368" 
d="M96 -206h-60v66h43q82 0 82 84v163q0 58 14.5 93t55.5 50q-41 15 -55.5 50t-14.5 93v163q0 84 -82 84h-43v66h60q66 0 103.5 -37t37.5 -105v-151q0 -40 3.5 -63t21.5 -43.5t52 -24.5v-64q-26 -3 -42.5 -14t-23.5 -31.5t-9 -39.5t-2 -49v-148q0 -68 -37.5 -105t-103.5 -37
z" />
    <glyph glyph-name="asciitilde" unicode="~" horiz-adv-x="589" 
d="M413 197q-43 0 -118 25t-118 25q-68 0 -107 -44v76q28 38 107 38q43 0 118 -25t118 -25q70 0 107 43v-75q-27 -38 -107 -38z" />
    <glyph glyph-name="nbspace" unicode="&#xa0;" horiz-adv-x="263" 
 />
    <glyph glyph-name="exclamdown" unicode="&#xa1;" horiz-adv-x="289" 
d="M181 269l15 -469h-103l15 469h73zM89 435q0 23 16.5 39.5t39.5 16.5t39 -16.5t16 -39.5t-16 -39t-39 -16t-39.5 16t-16.5 39z" />
    <glyph glyph-name="cent" unicode="&#xa2;" horiz-adv-x="523" 
d="M272 494v108h68v-106q67 -6 114 -34v-72q-64 36 -135 36q-80 0 -135 -52t-55 -132q0 -79 55 -131t135 -52q82 0 144 41v-71q-52 -34 -123 -40v-106h-68v107q-97 12 -160.5 82.5t-63.5 170.5q0 99 63 169t161 82z" />
    <glyph glyph-name="sterling" unicode="&#xa3;" horiz-adv-x="581" 
d="M58 0v73h19q54 0 54 82v139h-73v71h73v120q0 109 61 168t171 59q98 0 162 -42v-79q-66 45 -151 45q-79 0 -120.5 -41t-41.5 -121v-109h269v-71h-269v-165q0 -41 -24 -56h344v-73h-474z" />
    <glyph glyph-name="currency" unicode="&#xa4;" horiz-adv-x="564" 
d="M487 351q0 -72 -40 -124l65 -65l-43 -40l-65 64q-51 -42 -123 -42q-69 0 -123 42l-65 -64l-42 40l65 65q-40 52 -40 124q0 71 40 123l-65 65l42 41l65 -64q54 42 123 42q72 0 123 -42l65 64l43 -41l-66 -65q41 -53 41 -123zM281 209q59 0 99.5 41.5t40.5 100.5
t-40.5 100.5t-99.5 41.5t-99.5 -41.5t-40.5 -100.5t40.5 -100.5t99.5 -41.5z" />
    <glyph glyph-name="yen" unicode="&#xa5;" horiz-adv-x="634" 
d="M276 0v140h-208v66h208v91h-208v66h181l-227 337h94l202 -306l203 306h91l-227 -337h181v-66h-209v-91h209v-66h-209v-140h-81z" />
    <glyph glyph-name="brokenbar" unicode="&#xa6;" horiz-adv-x="312" 
d="M121 -111v353h69v-353h-69zM121 407v353h69v-353h-69z" />
    <glyph glyph-name="section" unicode="&#xa7;" horiz-adv-x="645" 
d="M473 115q78 -45 78 -118q0 -70 -61 -112.5t-170 -42.5q-116 0 -218 54v83q114 -61 222 -61q69 0 107 22.5t38 61.5q0 36 -38 56.5t-121 45.5q-20 6 -31 9q-109 35 -164 75.5t-55 110.5q0 50 30 85.5t83 54.5q-78 45 -78 118q0 70 61 112.5t170 42.5q116 0 218 -54v-83
q-114 61 -222 61q-68 0 -106.5 -22.5t-38.5 -60.5q0 -37 38 -57.5t121 -45.5l10.5 -3t9.5 -2.5t11 -3.5q107 -35 163 -76t56 -109q0 -101 -113 -141zM406 149q46 9 75 35.5t29 63.5q0 26 -16 47t-49.5 37.5t-61 27t-75.5 25t-68 21.5q-47 -10 -75.5 -36t-28.5 -64
q0 -18 8.5 -34.5t26.5 -29.5t36.5 -23.5t47.5 -21t49.5 -17.5t53 -16.5t48.5 -14.5z" />
    <glyph glyph-name="dieresis" unicode="&#xa8;" horiz-adv-x="524" 
d="M115 646q0 22 14 36t36 14q21 0 35 -14t14 -36q0 -21 -14 -35t-35 -14q-22 0 -36 14t-14 35zM316 646q0 22 14.5 36t35.5 14t35 -14t14 -36q0 -21 -14 -35t-35 -14t-35.5 14t-14.5 35z" />
    <glyph glyph-name="copyright" unicode="&#xa9;" horiz-adv-x="861" 
d="M429 15q140 0 236.5 98.5t96.5 236.5q0 139 -96 237t-236 98q-138 0 -235 -99t-97 -237q0 -139 96 -236.5t235 -97.5zM429 -12q-151 0 -256 106t-105 257q0 149 106 255t256 106q152 0 257 -106t105 -257q0 -149 -106 -255t-257 -106zM453 155q-84 0 -141 56.5t-57 138.5
t57 138t141 56q57 0 101 -24v-60q-43 29 -101 29q-57 0 -96 -39.5t-39 -99.5q0 -61 39 -100t98 -39q63 0 109 36v-61q-46 -31 -111 -31z" />
    <glyph glyph-name="ordfeminine" unicode="&#xaa;" horiz-adv-x="509" 
d="M341 429v50q-56 35 -117 35q-50 0 -77 -19t-27 -52q0 -36 27 -54t69 -18q39 0 72.5 16.5t52.5 41.5zM435 374q14 0 21 4v-47q-14 -9 -39 -9q-59 0 -71 58q-56 -63 -146 -63q-59 0 -100 32.5t-41 90.5q0 57 43.5 89.5t108.5 32.5q71 0 130 -34v33q0 90 -120 90
q-63 0 -120 -36v56q57 34 133 34q75 0 121 -35t46 -102v-151q0 -43 34 -43z" />
    <glyph glyph-name="guillemotleft" unicode="&#xab;" horiz-adv-x="553" 
d="M194 40l-149 182v41l149 182h82l-164 -203l164 -202h-82zM425 40l-149 182v41l149 182h84l-164 -203l164 -202h-84z" />
    <glyph glyph-name="logicalnot" unicode="&#xac;" horiz-adv-x="570" 
d="M429 151v170h-359v72h431v-242h-72z" />
    <glyph glyph-name="uni00AD" unicode="&#xad;" horiz-adv-x="482" 
d="M100 236v73h283v-73h-283z" />
    <glyph glyph-name="registered" unicode="&#xae;" horiz-adv-x="861" 
d="M290 168v376h172q59 0 92 -29t33 -78q0 -39 -21.5 -66t-60.5 -36l119 -167h-69l-114 161h-91v-161h-60zM350 378h110q66 0 66 57t-66 57h-110v-114zM429 15q140 0 236.5 98.5t96.5 236.5q0 139 -96 237t-236 98q-138 0 -235 -99t-97 -237q0 -139 96 -236.5t235 -97.5z
M429 -12q-151 0 -256 106t-105 257q0 149 106 255t256 106q152 0 257 -106t105 -257q0 -149 -106 -255t-257 -106z" />
    <glyph glyph-name="macron" unicode="&#xaf;" horiz-adv-x="517" 
d="M128 616v59h258v-59h-258z" />
    <glyph glyph-name="degree" unicode="&#xb0;" horiz-adv-x="424" 
d="M212 659q-42 0 -69.5 -28.5t-27.5 -70.5t27.5 -70t69.5 -28t69.5 28t27.5 70t-27.5 70.5t-69.5 28.5zM212 712q62 0 108 -45t46 -107q0 -63 -45.5 -107.5t-108.5 -44.5t-108 44.5t-45 107.5q0 62 45 107t108 45z" />
    <glyph glyph-name="plusminus" unicode="&#xb1;" horiz-adv-x="621" 
d="M275 196v168h-205v72h205v172h71v-172h206v-72h-206v-168h-71zM70 50v72h482v-72h-482z" />
    <glyph glyph-name="twosuperior" unicode="&#xb2;" horiz-adv-x="359" 
d="M43 322v50l119 107q39 36 55 58.5t16 47.5q0 26 -19.5 42t-51.5 16q-55 0 -108 -43v68q48 37 113 37q55 0 94.5 -31.5t39.5 -80.5q0 -38 -19.5 -70t-63.5 -74l-73 -70h168v-57h-270z" />
    <glyph glyph-name="threesuperior" unicode="&#xb3;" horiz-adv-x="328" 
d="M143 317q-74 0 -117 29v63q54 -33 111 -33q37 0 63.5 19.5t26.5 51.5q0 30 -22 48t-63 18q-28 0 -51 -9v44l102 95h-154v57h241v-51l-98 -92q46 -4 79.5 -31.5t33.5 -80.5q0 -57 -44 -92.5t-108 -35.5z" />
    <glyph glyph-name="acute" unicode="&#xb4;" horiz-adv-x="492" 
d="M175 577l96 135h100l-121 -135h-75z" />
    <glyph glyph-name="mu" unicode="&#xb5;" horiz-adv-x="621" 
d="M457 485h80v-485h-80v72q-74 -84 -188 -84q-65 0 -106 28v-216h-80v685h80v-278q0 -145 132 -145q48 0 93 29t69 68v326z" />
    <glyph glyph-name="paragraph" unicode="&#xb6;" horiz-adv-x="530" 
d="M353 0v313h-84q-104 0 -163.5 53.5t-59.5 140.5q0 88 59.5 140.5t163.5 52.5h165v-700h-81z" />
    <glyph glyph-name="periodcentered" unicode="&#xb7;" horiz-adv-x="239" 
d="M64 382q0 23 16 39.5t40 16.5q23 0 39 -16.5t16 -39.5t-16 -39t-39 -16q-24 0 -40 16t-16 39z" />
    <glyph glyph-name="cedilla" unicode="&#xb8;" horiz-adv-x="484" 
d="M135 -133l99 139h66l-70 -139h-95z" />
    <glyph glyph-name="onesuperior" unicode="&#xb9;" horiz-adv-x="246" 
d="M126 322v307l-104 -57v68l106 60h66v-378h-68z" />
    <glyph glyph-name="ordmasculine" unicode="&#xba;" horiz-adv-x="464" 
d="M232 375q58 0 96 39t38 97t-38 97t-96 39q-57 0 -95 -39t-38 -97t38 -97t95 -39zM232 317q-88 0 -144.5 56t-56.5 138t56.5 138t144.5 56t144.5 -56t56.5 -138t-56.5 -138t-144.5 -56z" />
    <glyph glyph-name="guillemotright" unicode="&#xbb;" horiz-adv-x="552" 
d="M358 445l149 -182v-41l-149 -182h-82l163 203l-163 202h82zM127 445l149 -182v-41l-149 -182h-84l164 203l-164 202h84z" />
    <glyph glyph-name="onequarter" unicode="&#xbc;" horiz-adv-x="748" 
d="M111 0l414 700h73l-414 -700h-73zM126 322v307l-104 -57v68l106 60h66v-378h-68zM603 1v97h-196v48l194 233h68v-227h58v-54h-58v-97h-66zM479 152h124v147z" />
    <glyph glyph-name="onehalf" unicode="&#xbd;" horiz-adv-x="803" 
d="M111 0l414 700h73l-414 -700h-73zM126 322v307l-104 -57v68l106 60h66v-378h-68zM487 1v50l119 107q39 36 55 58.5t16 47.5q0 26 -19.5 42t-51.5 16q-55 0 -108 -43v68q48 37 113 37q55 0 94.5 -31.5t39.5 -80.5q0 -38 -19.5 -70t-63.5 -74l-73 -70h168v-57h-270z" />
    <glyph glyph-name="threequarters" unicode="&#xbe;" horiz-adv-x="796" 
d="M160 0l414 700h73l-414 -700h-73zM651 1v97h-196v48l194 233h68v-227h58v-54h-58v-97h-66zM527 152h124v147zM143 317q-74 0 -117 29v63q54 -33 111 -33q37 0 63.5 19.5t26.5 51.5q0 30 -22 48t-63 18q-28 0 -51 -9v44l102 95h-154v57h241v-51l-98 -92q46 -4 79.5 -31.5
t33.5 -80.5q0 -57 -44 -92.5t-108 -35.5z" />
    <glyph glyph-name="questiondown" unicode="&#xbf;" horiz-adv-x="478" 
d="M305 269v-133q-71 -13 -125 -53t-54 -96t41 -87.5t108 -31.5q90 0 172 58v-74q-76 -56 -185 -56q-90 0 -153.5 51.5t-63.5 136.5q0 72 52.5 120.5t131.5 73.5v91h76zM265 491q24 0 39.5 -16t15.5 -40t-15.5 -39.5t-39.5 -15.5q-23 0 -39 16t-16 39t16 39.5t39 16.5z" />
    <glyph glyph-name="Agrave" unicode="&#xc0;" horiz-adv-x="755" 
d="M28 0l311 704h77l311 -704h-86l-85 189h-360l-83 -189h-85zM224 261h306l-153 341zM341 763l-121 134h101l95 -134h-75z" />
    <glyph glyph-name="Aacute" unicode="&#xc1;" horiz-adv-x="755" 
d="M28 0l311 704h77l311 -704h-86l-85 189h-360l-83 -189h-85zM224 261h306l-153 341zM343 763l95 134h100l-120 -134h-75z" />
    <glyph glyph-name="Acircumflex" unicode="&#xc2;" horiz-adv-x="755" 
d="M28 0l311 704h77l311 -704h-86l-85 189h-360l-83 -189h-85zM224 261h306l-153 341zM226 763l111 134h80l112 -134h-77l-75 90l-74 -90h-77z" />
    <glyph glyph-name="Atilde" unicode="&#xc3;" horiz-adv-x="755" 
d="M28 0l311 704h77l311 -704h-86l-85 189h-360l-83 -189h-85zM224 261h306l-153 341zM448 771q-29 0 -74 27.5t-63 27.5q-35 0 -41 -51h-53q2 49 26.5 81t63.5 32q29 0 74.5 -27t63.5 -27q20 0 28 12.5t13 37.5h52q-1 -49 -25 -81t-65 -32z" />
    <glyph glyph-name="Adieresis" unicode="&#xc4;" horiz-adv-x="755" 
d="M28 0l311 704h77l311 -704h-86l-85 189h-360l-83 -189h-85zM224 261h306l-153 341zM228 829q0 21 14 35t35 14q22 0 36 -14t14 -35q0 -22 -14 -36t-36 -14q-21 0 -35 14t-14 36zM429 829q0 21 14.5 35t35.5 14t35 -14t14 -35q0 -22 -14 -36t-35 -14t-35.5 14t-14.5 36z
" />
    <glyph glyph-name="Aring" unicode="&#xc5;" horiz-adv-x="755" 
d="M28 0l311 704h77l311 -704h-86l-85 189h-360l-83 -189h-85zM224 261h306l-153 341zM378 927q39 0 67.5 -28t28.5 -68t-28.5 -68.5t-67.5 -28.5q-42 0 -69.5 28t-27.5 69q0 40 27.5 68t69.5 28zM378 776q23 0 38.5 16t15.5 39t-15.5 39t-38.5 16t-39.5 -16t-16.5 -39
t16.5 -39t39.5 -16z" />
    <glyph glyph-name="AE" unicode="&#xc6;" horiz-adv-x="1032" 
d="M495 0v189h-282l-115 -189h-90l425 700h541v-74h-398v-214h325v-74h-325v-264h411v-74h-492zM478 626l-223 -365h240v365h-17z" />
    <glyph glyph-name="Ccedilla" unicode="&#xc7;" horiz-adv-x="689" 
d="M309 -133l87 122q-141 10 -234.5 111t-93.5 250q0 157 103 259.5t258 102.5q113 0 195 -51v-83q-88 58 -194 58q-118 0 -198 -81.5t-80 -204.5q0 -125 80.5 -205.5t200.5 -80.5t206 68v-83q-69 -51 -173 -59l-62 -123h-95z" />
    <glyph glyph-name="Egrave" unicode="&#xc8;" horiz-adv-x="640" 
d="M97 0v700h483v-74h-402v-214h329v-74h-329v-264h417v-74h-498zM314 763l-121 134h101l95 -134h-75z" />
    <glyph glyph-name="Eacute" unicode="&#xc9;" horiz-adv-x="640" 
d="M97 0v700h483v-74h-402v-214h329v-74h-329v-264h417v-74h-498zM275 763l95 134h100l-120 -134h-75z" />
    <glyph glyph-name="Ecircumflex" unicode="&#xca;" horiz-adv-x="640" 
d="M97 0v700h483v-74h-402v-214h329v-74h-329v-264h417v-74h-498zM194 763l111 134h80l112 -134h-77l-75 90l-74 -90h-77z" />
    <glyph glyph-name="Edieresis" unicode="&#xcb;" horiz-adv-x="640" 
d="M97 0v700h483v-74h-402v-214h329v-74h-329v-264h417v-74h-498zM190 829q0 21 14 35t35 14q22 0 36 -14t14 -35q0 -22 -14 -36t-36 -14q-21 0 -35 14t-14 36zM391 829q0 21 14.5 35t35.5 14t35 -14t14 -35q0 -22 -14 -36t-35 -14t-35.5 14t-14.5 36z" />
    <glyph glyph-name="Igrave" unicode="&#xcc;" horiz-adv-x="284" 
d="M102 0v700h81v-700h-81zM105 763l-121 134h101l95 -134h-75z" />
    <glyph glyph-name="Iacute" unicode="&#xcd;" horiz-adv-x="284" 
d="M102 0v700h81v-700h-81zM106 763l95 134h100l-120 -134h-75z" />
    <glyph glyph-name="Icircumflex" unicode="&#xce;" horiz-adv-x="284" 
d="M102 0v700h81v-700h-81zM-8 763l111 134h80l112 -134h-77l-75 90l-74 -90h-77z" />
    <glyph glyph-name="Idieresis" unicode="&#xcf;" horiz-adv-x="283" 
d="M102 0v700h81v-700h-81zM-7 829q0 21 14 35t35 14q22 0 36 -14t14 -35q0 -22 -14 -36t-36 -14q-21 0 -35 14t-14 36zM194 829q0 21 14.5 35t35.5 14t35 -14t14 -35q0 -22 -14 -36t-35 -14t-35.5 14t-14.5 36z" />
    <glyph glyph-name="Eth" unicode="&#xd0;" horiz-adv-x="828" 
d="M147 0v322h-110v73h110v305h232q169 0 274.5 -97t105.5 -253t-105.5 -253t-274.5 -97h-232zM228 74h142q142 0 224 74.5t82 201.5t-82 201.5t-224 74.5h-142v-231h160v-73h-160v-248z" />
    <glyph glyph-name="Ntilde" unicode="&#xd1;" horiz-adv-x="775" 
d="M97 0v700h70l433 -559v559h79v-700h-69l-434 561v-561h-79zM458 771q-29 0 -74 27.5t-63 27.5q-35 0 -41 -51h-53q2 49 26.5 81t63.5 32q29 0 74.5 -27t63.5 -27q20 0 28 12.5t13 37.5h52q-1 -49 -25 -81t-65 -32z" />
    <glyph glyph-name="Ograve" unicode="&#xd2;" horiz-adv-x="844" 
d="M421 712q151 0 252.5 -103.5t101.5 -258.5t-101.5 -258.5t-252.5 -103.5t-252 103.5t-101 258.5t101 258.5t252 103.5zM421 64q115 0 193 82t78 204t-78 204t-193 82q-114 0 -192 -82t-78 -204t78 -204t192 -82zM386 763l-121 134h101l95 -134h-75z" />
    <glyph glyph-name="Oacute" unicode="&#xd3;" horiz-adv-x="844" 
d="M421 712q151 0 252.5 -103.5t101.5 -258.5t-101.5 -258.5t-252.5 -103.5t-252 103.5t-101 258.5t101 258.5t252 103.5zM421 64q115 0 193 82t78 204t-78 204t-193 82q-114 0 -192 -82t-78 -204t78 -204t192 -82zM368 763l95 134h100l-120 -134h-75z" />
    <glyph glyph-name="Ocircumflex" unicode="&#xd4;" horiz-adv-x="844" 
d="M421 712q151 0 252.5 -103.5t101.5 -258.5t-101.5 -258.5t-252.5 -103.5t-252 103.5t-101 258.5t101 258.5t252 103.5zM421 64q115 0 193 82t78 204t-78 204t-193 82q-114 0 -192 -82t-78 -204t78 -204t192 -82zM271 763l111 134h80l112 -134h-77l-75 90l-74 -90h-77z
" />
    <glyph glyph-name="Otilde" unicode="&#xd5;" horiz-adv-x="844" 
d="M421 712q151 0 252.5 -103.5t101.5 -258.5t-101.5 -258.5t-252.5 -103.5t-252 103.5t-101 258.5t101 258.5t252 103.5zM421 64q115 0 193 82t78 204t-78 204t-193 82q-114 0 -192 -82t-78 -204t78 -204t192 -82zM492 771q-29 0 -74 27.5t-63 27.5q-35 0 -41 -51h-53
q2 49 26.5 81t63.5 32q29 0 74.5 -27t63.5 -27q20 0 28 12.5t13 37.5h52q-1 -49 -25 -81t-65 -32z" />
    <glyph glyph-name="Odieresis" unicode="&#xd6;" horiz-adv-x="844" 
d="M421 712q151 0 252.5 -103.5t101.5 -258.5t-101.5 -258.5t-252.5 -103.5t-252 103.5t-101 258.5t101 258.5t252 103.5zM421 64q115 0 193 82t78 204t-78 204t-193 82q-114 0 -192 -82t-78 -204t78 -204t192 -82zM272 829q0 21 14 35t35 14q22 0 36 -14t14 -35
q0 -22 -14 -36t-36 -14q-21 0 -35 14t-14 36zM473 829q0 21 14.5 35t35.5 14t35 -14t14 -35q0 -22 -14 -36t-35 -14t-35.5 14t-14.5 36z" />
    <glyph glyph-name="multiply" unicode="&#xd7;" horiz-adv-x="549" 
d="M120 120l-50 50l155 156l-155 155l50 50l155 -155l156 155l49 -50l-154 -155l154 -155l-49 -51l-155 154z" />
    <glyph glyph-name="Oslash" unicode="&#xd8;" horiz-adv-x="844" 
d="M421 712q120 0 207 -66l45 54h77l-76 -92q101 -103 101 -258t-101.5 -258.5t-252.5 -103.5q-117 0 -208 65l-43 -53h-77l76 91q-101 103 -101 259q0 155 101 258.5t252 103.5zM151 350q0 -117 70 -196l357 431q-68 51 -157 51q-114 0 -192 -82t-78 -204zM421 64
q115 0 193 82t78 204q0 112 -70 195l-357 -431q69 -50 156 -50z" />
    <glyph glyph-name="Ugrave" unicode="&#xd9;" horiz-adv-x="747" 
d="M373 -12q-128 0 -207.5 80.5t-79.5 229.5v402h81v-404q0 -111 56 -171.5t150 -60.5q95 0 151 60.5t56 171.5v404h81v-402q0 -149 -80 -229.5t-208 -80.5zM346 763l-121 134h101l95 -134h-75z" />
    <glyph glyph-name="Uacute" unicode="&#xda;" horiz-adv-x="747" 
d="M373 -12q-128 0 -207.5 80.5t-79.5 229.5v402h81v-404q0 -111 56 -171.5t150 -60.5q95 0 151 60.5t56 171.5v404h81v-402q0 -149 -80 -229.5t-208 -80.5zM331 763l95 134h100l-120 -134h-75z" />
    <glyph glyph-name="Ucircumflex" unicode="&#xdb;" horiz-adv-x="747" 
d="M373 -12q-128 0 -207.5 80.5t-79.5 229.5v402h81v-404q0 -111 56 -171.5t150 -60.5q95 0 151 60.5t56 171.5v404h81v-402q0 -149 -80 -229.5t-208 -80.5zM222 763l111 134h80l112 -134h-77l-75 90l-74 -90h-77z" />
    <glyph glyph-name="Udieresis" unicode="&#xdc;" horiz-adv-x="747" 
d="M373 -12q-128 0 -207.5 80.5t-79.5 229.5v402h81v-404q0 -111 56 -171.5t150 -60.5q95 0 151 60.5t56 171.5v404h81v-402q0 -149 -80 -229.5t-208 -80.5zM225 829q0 21 14 35t35 14q22 0 36 -14t14 -35q0 -22 -14 -36t-36 -14q-21 0 -35 14t-14 36zM426 829q0 21 14.5 35
t35.5 14t35 -14t14 -35q0 -22 -14 -36t-35 -14t-35.5 14t-14.5 36z" />
    <glyph glyph-name="Yacute" unicode="&#xdd;" horiz-adv-x="668" 
d="M293 0v320l-271 380h94l219 -305l219 305h92l-271 -378v-322h-82zM288 763l95 134h100l-120 -134h-75z" />
    <glyph glyph-name="Thorn" unicode="&#xde;" horiz-adv-x="664" 
d="M97 0v700h80v-154h215q106 0 166 -54t60 -142q0 -90 -60 -144.5t-166 -54.5h-214v-151h-81zM178 225h208q72 0 111.5 31.5t39.5 91.5t-39.5 92t-111.5 32h-208v-247z" />
    <glyph glyph-name="germandbls" unicode="&#xdf;" horiz-adv-x="617" 
d="M352 -12q-61 0 -92 14v73q33 -16 79 -16q68 0 110.5 37t42.5 101q0 70 -50.5 113.5t-135.5 43.5h-21v61h21q61 0 94.5 28.5t33.5 81.5q0 51 -35.5 81.5t-94.5 30.5q-64 0 -102.5 -39t-38.5 -109v-489h-80v489q0 101 61 160t159 59q95 0 152 -50t57 -126q0 -110 -98 -143
q65 -15 110.5 -66.5t45.5 -133.5q0 -93 -61 -147t-157 -54z" />
    <glyph glyph-name="agrave" unicode="&#xe0;" horiz-adv-x="595" 
d="M248 59q51 0 94.5 22t68.5 54v66q-68 45 -152 45q-64 0 -100.5 -24.5t-36.5 -68.5q0 -47 36 -70.5t90 -23.5zM226 -12q-77 0 -130.5 43t-53.5 118t56.5 117.5t141.5 42.5q99 0 171 -45v44q0 118 -156 118q-85 0 -158 -48v75q73 44 175 44q98 0 158 -46t60 -135v-191
q0 -63 45 -63q18 0 28 7v-62q-18 -12 -51 -12q-77 0 -93 76q-74 -83 -193 -83zM274 577l-120 135h99l96 -135h-75z" />
    <glyph glyph-name="aacute" unicode="&#xe1;" horiz-adv-x="595" 
d="M248 59q51 0 94.5 22t68.5 54v66q-68 45 -152 45q-64 0 -100.5 -24.5t-36.5 -68.5q0 -47 36 -70.5t90 -23.5zM226 -12q-77 0 -130.5 43t-53.5 118t56.5 117.5t141.5 42.5q99 0 171 -45v44q0 118 -156 118q-85 0 -158 -48v75q73 44 175 44q98 0 158 -46t60 -135v-191
q0 -63 45 -63q18 0 28 7v-62q-18 -12 -51 -12q-77 0 -93 76q-74 -83 -193 -83zM219 577l96 135h100l-121 -135h-75z" />
    <glyph glyph-name="acircumflex" unicode="&#xe2;" horiz-adv-x="595" 
d="M248 59q51 0 94.5 22t68.5 54v66q-68 45 -152 45q-64 0 -100.5 -24.5t-36.5 -68.5q0 -47 36 -70.5t90 -23.5zM226 -12q-77 0 -130.5 43t-53.5 118t56.5 117.5t141.5 42.5q99 0 171 -45v44q0 118 -156 118q-85 0 -158 -48v75q73 44 175 44q98 0 158 -46t60 -135v-191
q0 -63 45 -63q18 0 28 7v-62q-18 -12 -51 -12q-77 0 -93 76q-74 -83 -193 -83zM124 577l112 135h81l111 -135h-77l-75 90l-75 -90h-77z" />
    <glyph glyph-name="atilde" unicode="&#xe3;" horiz-adv-x="595" 
d="M248 59q51 0 94.5 22t68.5 54v66q-68 45 -152 45q-64 0 -100.5 -24.5t-36.5 -68.5q0 -47 36 -70.5t90 -23.5zM226 -12q-77 0 -130.5 43t-53.5 118t56.5 117.5t141.5 42.5q99 0 171 -45v44q0 118 -156 118q-85 0 -158 -48v75q73 44 175 44q98 0 158 -46t60 -135v-191
q0 -63 45 -63q18 0 28 7v-62q-18 -12 -51 -12q-77 0 -93 76q-74 -83 -193 -83zM351 588q-29 0 -74 27t-63 27q-35 0 -41 -51h-52q2 50 26 82t64 32q27 0 73.5 -27.5t63.5 -27.5q20 0 28 13t13 38h52q-1 -50 -25 -81.5t-65 -31.5z" />
    <glyph glyph-name="adieresis" unicode="&#xe4;" horiz-adv-x="595" 
d="M248 59q51 0 94.5 22t68.5 54v66q-68 45 -152 45q-64 0 -100.5 -24.5t-36.5 -68.5q0 -47 36 -70.5t90 -23.5zM226 -12q-77 0 -130.5 43t-53.5 118t56.5 117.5t141.5 42.5q99 0 171 -45v44q0 118 -156 118q-85 0 -158 -48v75q73 44 175 44q98 0 158 -46t60 -135v-191
q0 -63 45 -63q18 0 28 7v-62q-18 -12 -51 -12q-77 0 -93 76q-74 -83 -193 -83zM129 646q0 22 14 36t36 14q21 0 35 -14t14 -36q0 -21 -14 -35t-35 -14q-22 0 -36 14t-14 35zM330 646q0 22 14.5 36t35.5 14t35 -14t14 -36q0 -21 -14 -35t-35 -14t-35.5 14t-14.5 35z" />
    <glyph glyph-name="aring" unicode="&#xe5;" horiz-adv-x="595" 
d="M248 59q51 0 94.5 22t68.5 54v66q-68 45 -152 45q-64 0 -100.5 -24.5t-36.5 -68.5q0 -47 36 -70.5t90 -23.5zM226 -12q-77 0 -130.5 43t-53.5 118t56.5 117.5t141.5 42.5q99 0 171 -45v44q0 118 -156 118q-85 0 -158 -48v75q73 44 175 44q98 0 158 -46t60 -135v-191
q0 -63 45 -63q18 0 28 7v-62q-18 -12 -51 -12q-77 0 -93 76q-74 -83 -193 -83zM282 743q40 0 68.5 -28.5t28.5 -68.5q0 -39 -28.5 -67.5t-68.5 -28.5t-68.5 28.5t-28.5 67.5q0 40 28.5 68.5t68.5 28.5zM282 592q23 0 39 15.5t16 38.5q0 24 -16 39.5t-39 15.5t-39 -15.5
t-16 -39.5q0 -23 16 -38.5t39 -15.5z" />
    <glyph glyph-name="ae" unicode="&#xe6;" horiz-adv-x="931" 
d="M882 244v-22h-393q8 -75 62.5 -119t139.5 -44q88 0 156 45v-70q-61 -46 -171 -46q-149 0 -222 110q-96 -110 -224 -110q-81 0 -134.5 43t-53.5 118t56.5 117.5t141.5 42.5q102 0 172 -45v42q0 120 -157 120q-86 0 -158 -47v74q73 44 176 44q65 0 115 -26t73 -76
q70 102 194 102q58 0 103.5 -23.5t71.5 -61.5t39 -81t13 -87zM248 59q56 0 103.5 26t75.5 65q-10 25 -14 49q-73 48 -154 48q-64 0 -100.5 -25t-36.5 -69q0 -46 34.5 -70t91.5 -24zM490 286h312q-3 53 -40 96.5t-110 43.5q-71 0 -114.5 -41.5t-47.5 -98.5z" />
    <glyph glyph-name="ccedilla" unicode="&#xe7;" horiz-adv-x="523" 
d="M48 243q0 110 74.5 182t185.5 72q84 0 146 -35v-72q-64 36 -135 36q-80 0 -135 -52t-55 -132q0 -79 55 -131t135 -52q82 0 144 41v-71q-51 -31 -109 -38l-63 -124h-94l86 122q-103 8 -169 79t-66 175z" />
    <glyph glyph-name="egrave" unicode="&#xe8;" horiz-adv-x="571" 
d="M315 -12q-113 0 -190 71.5t-77 182.5q0 110 68.5 182.5t178.5 72.5q57 0 102.5 -23.5t71.5 -61.5t39.5 -81t13.5 -87v-22h-393q8 -75 62.5 -119t139.5 -44q84 0 156 45v-70q-61 -46 -172 -46zM130 286h312q-3 53 -40.5 96.5t-110.5 43.5q-70 0 -113.5 -41.5t-47.5 -98.5z
M294 577l-120 135h99l96 -135h-75z" />
    <glyph glyph-name="eacute" unicode="&#xe9;" horiz-adv-x="571" 
d="M315 -12q-113 0 -190 71.5t-77 182.5q0 110 68.5 182.5t178.5 72.5q57 0 102.5 -23.5t71.5 -61.5t39.5 -81t13.5 -87v-22h-393q8 -75 62.5 -119t139.5 -44q84 0 156 45v-70q-61 -46 -172 -46zM130 286h312q-3 53 -40.5 96.5t-110.5 43.5q-70 0 -113.5 -41.5t-47.5 -98.5z
M228 577l96 135h100l-121 -135h-75z" />
    <glyph glyph-name="ecircumflex" unicode="&#xea;" horiz-adv-x="571" 
d="M315 -12q-113 0 -190 71.5t-77 182.5q0 110 68.5 182.5t178.5 72.5q57 0 102.5 -23.5t71.5 -61.5t39.5 -81t13.5 -87v-22h-393q8 -75 62.5 -119t139.5 -44q84 0 156 45v-70q-61 -46 -172 -46zM130 286h312q-3 53 -40.5 96.5t-110.5 43.5q-70 0 -113.5 -41.5t-47.5 -98.5z
M140 577l112 135h81l111 -135h-77l-75 90l-75 -90h-77z" />
    <glyph glyph-name="edieresis" unicode="&#xeb;" horiz-adv-x="571" 
d="M315 -12q-113 0 -190 71.5t-77 182.5q0 110 68.5 182.5t178.5 72.5q57 0 102.5 -23.5t71.5 -61.5t39.5 -81t13.5 -87v-22h-393q8 -75 62.5 -119t139.5 -44q84 0 156 45v-70q-61 -46 -172 -46zM130 286h312q-3 53 -40.5 96.5t-110.5 43.5q-70 0 -113.5 -41.5t-47.5 -98.5z
M142 646q0 22 14 36t36 14q21 0 35 -14t14 -36q0 -21 -14 -35t-35 -14q-22 0 -36 14t-14 35zM343 646q0 22 14.5 36t35.5 14t35 -14t14 -36q0 -21 -14 -35t-35 -14t-35.5 14t-14.5 35z" />
    <glyph glyph-name="igrave" unicode="&#xec;" horiz-adv-x="259" 
d="M87 577l-120 135h99l96 -135h-75zM89 0v485h80v-485h-80z" />
    <glyph glyph-name="iacute" unicode="&#xed;" horiz-adv-x="259" 
d="M96 578l95 134h100l-121 -134h-74zM89 0v485h80v-485h-80z" />
    <glyph glyph-name="icircumflex" unicode="&#xee;" horiz-adv-x="260" 
d="M90 0v485h80v-485h-80zM-21 577l112 135h81l111 -135h-77l-75 90l-75 -90h-77z" />
    <glyph glyph-name="idieresis" unicode="&#xef;" horiz-adv-x="258" 
d="M-20 646q0 22 14 36t36 14q21 0 35 -14t14 -36q0 -21 -14 -35t-35 -14q-22 0 -36 14t-14 35zM181 646q0 22 14.5 36t35.5 14t35 -14t14 -36q0 -21 -14 -35t-35 -14t-35.5 14t-14.5 35zM89 0v485h80v-485h-80z" />
    <glyph glyph-name="eth" unicode="&#xf0;" horiz-adv-x="598" 
d="M426 689l33 -45l-106 -44l112 -158q43 -61 64.5 -107.5t21.5 -101.5q0 -101 -71 -173t-180 -72t-180.5 70.5t-71.5 168.5t65 165.5t165 67.5q65 0 112 -24l-102 139l-129 -52l-33 45l129 51l-60 81h86l40 -55zM300 59q73 0 122 49t49 121t-49 121t-122 49q-74 0 -123 -49
t-49 -121t49 -121t123 -49z" />
    <glyph glyph-name="ntilde" unicode="&#xf1;" horiz-adv-x="611" 
d="M163 0h-80v485h80v-73q29 36 78.5 60.5t111.5 24.5q91 0 137.5 -53t46.5 -149v-295h-80v278q0 43 -12.5 73.5t-33.5 44.5t-41.5 20t-44.5 6q-47 0 -94 -29.5t-68 -67.5v-325zM382 588q-29 0 -74 27t-63 27q-35 0 -41 -51h-52q2 50 26 82t64 32q27 0 73.5 -27.5
t63.5 -27.5q20 0 28 13t13 38h52q-1 -50 -25 -81.5t-65 -31.5z" />
    <glyph glyph-name="ograve" unicode="&#xf2;" horiz-adv-x="621" 
d="M311 497q115 0 189 -75t74 -180t-74 -179.5t-189 -74.5t-189 74.5t-74 179.5t74 180t189 75zM311 59q78 0 130 52.5t52 130.5t-52 131t-130 53t-130 -53t-52 -131t52 -130.5t130 -52.5zM289 577l-120 135h99l96 -135h-75z" />
    <glyph glyph-name="oacute" unicode="&#xf3;" horiz-adv-x="621" 
d="M311 497q115 0 189 -75t74 -180t-74 -179.5t-189 -74.5t-189 74.5t-74 179.5t74 180t189 75zM311 59q78 0 130 52.5t52 130.5t-52 131t-130 53t-130 -53t-52 -131t52 -130.5t130 -52.5zM264 577l96 135h100l-121 -135h-75z" />
    <glyph glyph-name="ocircumflex" unicode="&#xf4;" horiz-adv-x="621" 
d="M311 497q115 0 189 -75t74 -180t-74 -179.5t-189 -74.5t-189 74.5t-74 179.5t74 180t189 75zM311 59q78 0 130 52.5t52 130.5t-52 131t-130 53t-130 -53t-52 -131t52 -130.5t130 -52.5zM160 577l112 135h81l111 -135h-77l-75 90l-75 -90h-77z" />
    <glyph glyph-name="otilde" unicode="&#xf5;" horiz-adv-x="621" 
d="M311 497q115 0 189 -75t74 -180t-74 -179.5t-189 -74.5t-189 74.5t-74 179.5t74 180t189 75zM311 59q78 0 130 52.5t52 130.5t-52 131t-130 53t-130 -53t-52 -131t52 -130.5t130 -52.5zM382 588q-29 0 -74 27t-63 27q-35 0 -41 -51h-52q2 50 26 82t64 32q27 0 73.5 -27.5
t63.5 -27.5q20 0 28 13t13 38h52q-1 -50 -25 -81.5t-65 -31.5z" />
    <glyph glyph-name="odieresis" unicode="&#xf6;" horiz-adv-x="621" 
d="M311 497q115 0 189 -75t74 -180t-74 -179.5t-189 -74.5t-189 74.5t-74 179.5t74 180t189 75zM311 59q78 0 130 52.5t52 130.5t-52 131t-130 53t-130 -53t-52 -131t52 -130.5t130 -52.5zM162 646q0 22 14 36t36 14q21 0 35 -14t14 -36q0 -21 -14 -35t-35 -14q-22 0 -36 14
t-14 35zM363 646q0 22 14.5 36t35.5 14t35 -14t14 -36q0 -21 -14 -35t-35 -14t-35.5 14t-14.5 35z" />
    <glyph glyph-name="divide" unicode="&#xf7;" horiz-adv-x="599" 
d="M70 290v73h460v-73h-460zM241 533q0 25 17 41.5t42 16.5t41.5 -16.5t16.5 -41.5t-16.5 -42t-41.5 -17t-42 17t-17 42zM241 122q0 25 17 42t42 17t41.5 -17t16.5 -42t-16.5 -41.5t-41.5 -16.5t-42 16.5t-17 41.5z" />
    <glyph glyph-name="oslash" unicode="&#xf8;" horiz-adv-x="621" 
d="M71 0l51 62q-74 74 -74 180q0 105 74 180t189 75q79 0 145 -40l23 28h72l-52 -62q75 -73 75 -181q0 -105 -74 -179.5t-189 -74.5q-85 0 -146 39l-23 -27h-71zM311 59q78 0 130 52.5t52 130.5q0 72 -44 122l-235 -279q38 -26 97 -26zM129 242q0 -70 43 -121l235 278
q-42 27 -96 27q-78 0 -130 -53t-52 -131z" />
    <glyph glyph-name="ugrave" unicode="&#xf9;" horiz-adv-x="612" 
d="M448 485h80v-485h-80v73q-75 -85 -190 -85q-91 0 -137.5 53t-46.5 149v295h80v-278q0 -144 132 -144q48 0 93 29t69 68v325zM293 577l-120 135h99l96 -135h-75z" />
    <glyph glyph-name="uacute" unicode="&#xfa;" horiz-adv-x="612" 
d="M448 485h80v-485h-80v73q-75 -85 -190 -85q-91 0 -137.5 53t-46.5 149v295h80v-278q0 -144 132 -144q48 0 93 29t69 68v325zM239 577l96 135h100l-121 -135h-75z" />
    <glyph glyph-name="ucircumflex" unicode="&#xfb;" horiz-adv-x="612" 
d="M448 485h80v-485h-80v73q-75 -85 -190 -85q-91 0 -137.5 53t-46.5 149v295h80v-278q0 -144 132 -144q48 0 93 29t69 68v325zM150 577l112 135h81l111 -135h-77l-75 90l-75 -90h-77z" />
    <glyph glyph-name="udieresis" unicode="&#xfc;" horiz-adv-x="612" 
d="M448 485h80v-485h-80v73q-75 -85 -190 -85q-91 0 -137.5 53t-46.5 149v295h80v-278q0 -144 132 -144q48 0 93 29t69 68v325zM152 646q0 22 14 36t36 14q21 0 35 -14t14 -36q0 -21 -14 -35t-35 -14q-22 0 -36 14t-14 35zM353 646q0 22 14.5 36t35.5 14t35 -14t14 -36
q0 -21 -14 -35t-35 -14t-35.5 14t-14.5 35z" />
    <glyph glyph-name="yacute" unicode="&#xfd;" horiz-adv-x="558" 
d="M115 -204q-57 0 -79 14v73q29 -16 67 -16q45 0 75.5 35.5t63.5 115.5l-215 467h88l167 -374l161 374h86l-238 -539q-34 -75 -75.5 -112.5t-100.5 -37.5zM226 577l96 135h100l-121 -135h-75z" />
    <glyph glyph-name="thorn" unicode="&#xfe;" horiz-adv-x="636" 
d="M163 -200h-80v900h80v-290q67 87 184 87q106 0 174 -74.5t68 -179.5q0 -106 -68 -180.5t-174 -74.5q-119 0 -184 87v-275zM163 321v-158q21 -46 65 -75t100 -29q78 0 129 53t51 131t-51 130.5t-129 52.5q-53 0 -98.5 -30t-66.5 -75z" />
    <glyph glyph-name="ydieresis" unicode="&#xff;" horiz-adv-x="558" 
d="M115 -204q-57 0 -79 14v73q29 -16 67 -16q45 0 75.5 35.5t63.5 115.5l-215 467h88l167 -374l161 374h86l-238 -539q-34 -75 -75.5 -112.5t-100.5 -37.5zM126 646q0 22 14 36t36 14q21 0 35 -14t14 -36q0 -21 -14 -35t-35 -14q-22 0 -36 14t-14 35zM327 646q0 22 14.5 36
t35.5 14t35 -14t14 -36q0 -21 -14 -35t-35 -14t-35.5 14t-14.5 35z" />
    <glyph glyph-name="Amacron" unicode="&#x100;" horiz-adv-x="755" 
d="M28 0l311 704h77l311 -704h-86l-85 189h-360l-83 -189h-85zM224 261h306l-153 341zM249 800v60h258v-60h-258z" />
    <glyph glyph-name="amacron" unicode="&#x101;" horiz-adv-x="595" 
d="M248 59q51 0 94.5 22t68.5 54v66q-68 45 -152 45q-64 0 -100.5 -24.5t-36.5 -68.5q0 -47 36 -70.5t90 -23.5zM226 -12q-77 0 -130.5 43t-53.5 118t56.5 117.5t141.5 42.5q99 0 171 -45v44q0 118 -156 118q-85 0 -158 -48v75q73 44 175 44q98 0 158 -46t60 -135v-191
q0 -63 45 -63q18 0 28 7v-62q-18 -12 -51 -12q-77 0 -93 76q-74 -83 -193 -83zM156 616v59h258v-59h-258z" />
    <glyph glyph-name="Abreve" unicode="&#x102;" horiz-adv-x="755" 
d="M28 0l311 704h77l311 -704h-86l-85 189h-360l-83 -189h-85zM224 261h306l-153 341zM378 754q-59 0 -99.5 39.5t-42.5 103.5h62q1 -37 23 -61t57 -24q34 0 56 24t24 61h61q0 -63 -41 -103t-100 -40z" />
    <glyph glyph-name="abreve" unicode="&#x103;" horiz-adv-x="595" 
d="M248 59q51 0 94.5 22t68.5 54v66q-68 45 -152 45q-64 0 -100.5 -24.5t-36.5 -68.5q0 -47 36 -70.5t90 -23.5zM226 -12q-77 0 -130.5 43t-53.5 118t56.5 117.5t141.5 42.5q99 0 171 -45v44q0 118 -156 118q-85 0 -158 -48v75q73 44 175 44q98 0 158 -46t60 -135v-191
q0 -63 45 -63q18 0 28 7v-62q-18 -12 -51 -12q-77 0 -93 76q-74 -83 -193 -83zM280 569q-58 0 -99 40.5t-43 102.5h62q1 -36 23.5 -60.5t56.5 -24.5q35 0 57 24t23 61h61q-2 -62 -43 -102.5t-98 -40.5z" />
    <glyph glyph-name="Aogonek" unicode="&#x104;" horiz-adv-x="755" 
d="M745 -196q-53 0 -83 28t-30 71q0 54 40 97h-31l-85 189h-360l-83 -189h-85l311 704h77l311 -704q-37 -39 -37 -82q0 -29 18.5 -45t49.5 -16q24 0 39 5v-52q-22 -6 -52 -6zM224 261h306l-153 341z" />
    <glyph glyph-name="aogonek" unicode="&#x105;" horiz-adv-x="595" 
d="M581 -189q-53 0 -83 28t-30 71q0 48 30 86q-63 6 -79 75q-74 -83 -193 -83q-77 0 -130.5 43t-53.5 118t56.5 117.5t141.5 42.5q99 0 171 -45v44q0 118 -156 118q-85 0 -158 -48v75q73 44 175 44q98 0 158 -46t60 -135v-191q0 -63 45 -63q18 0 28 7v-62q-37 -39 -37 -82
q0 -29 18.5 -45t49.5 -16q24 0 39 5v-52q-22 -6 -52 -6zM248 59q51 0 94.5 22t68.5 54v66q-68 45 -152 45q-64 0 -100.5 -24.5t-36.5 -68.5q0 -47 36 -70.5t90 -23.5z" />
    <glyph glyph-name="Cacute" unicode="&#x106;" horiz-adv-x="689" 
d="M429 -12q-154 0 -257.5 102t-103.5 260q0 157 103 259.5t258 102.5q113 0 195 -51v-83q-88 58 -194 58q-118 0 -198.5 -81.5t-80.5 -204.5q0 -125 80.5 -205.5t201.5 -80.5q120 0 206 68v-83q-85 -61 -210 -61zM353 763l95 134h100l-120 -134h-75z" />
    <glyph glyph-name="cacute" unicode="&#x107;" horiz-adv-x="522" 
d="M307 -12q-110 0 -184.5 73t-74.5 182q0 110 74.5 182t185.5 72q84 0 146 -35v-72q-64 36 -135 36q-80 0 -135 -52t-55 -132q0 -79 55 -131t135 -52q82 0 144 41v-71q-68 -41 -156 -41zM231 577l96 135h100l-121 -135h-75z" />
    <glyph glyph-name="Ccircumflex" unicode="&#x108;" horiz-adv-x="689" 
d="M429 -12q-154 0 -257.5 102t-103.5 260q0 157 103 259.5t258 102.5q113 0 195 -51v-83q-88 58 -194 58q-118 0 -198.5 -81.5t-80.5 -204.5q0 -125 80.5 -205.5t201.5 -80.5q120 0 206 68v-83q-85 -61 -210 -61zM252 763l111 134h80l112 -134h-77l-75 90l-74 -90h-77z" />
    <glyph glyph-name="ccircumflex" unicode="&#x109;" horiz-adv-x="522" 
d="M307 -12q-110 0 -184.5 73t-74.5 182q0 110 74.5 182t185.5 72q84 0 146 -35v-72q-64 36 -135 36q-80 0 -135 -52t-55 -132q0 -79 55 -131t135 -52q82 0 144 41v-71q-68 -41 -156 -41zM133 577l112 135h81l111 -135h-77l-75 90l-75 -90h-77z" />
    <glyph glyph-name="Cdotaccent" unicode="&#x10a;" horiz-adv-x="689" 
d="M429 -12q-154 0 -257.5 102t-103.5 260q0 157 103 259.5t258 102.5q113 0 195 -51v-83q-88 58 -194 58q-118 0 -198.5 -81.5t-80.5 -204.5q0 -125 80.5 -205.5t201.5 -80.5q120 0 206 68v-83q-85 -61 -210 -61zM369 828q0 21 14.5 35.5t35.5 14.5q22 0 36 -14.5t14 -35.5
q0 -22 -14 -36t-36 -14q-21 0 -35.5 14t-14.5 36z" />
    <glyph glyph-name="cdotaccent" unicode="&#x10b;" horiz-adv-x="523" 
d="M307 -12q-110 0 -184.5 73t-74.5 182q0 110 74.5 182t185.5 72q84 0 146 -35v-72q-64 36 -135 36q-80 0 -135 -52t-55 -132q0 -79 55 -131t135 -52q82 0 144 41v-71q-68 -41 -156 -41zM252 646q0 22 14.5 36t35.5 14q22 0 36 -14t14 -36q0 -21 -14 -35.5t-36 -14.5
q-21 0 -35.5 14.5t-14.5 35.5z" />
    <glyph glyph-name="Ccaron" unicode="&#x10c;" horiz-adv-x="689" 
d="M429 -12q-154 0 -257.5 102t-103.5 260q0 157 103 259.5t258 102.5q113 0 195 -51v-83q-88 58 -194 58q-118 0 -198.5 -81.5t-80.5 -204.5q0 -125 80.5 -205.5t201.5 -80.5q120 0 206 68v-83q-85 -61 -210 -61zM372 763l-111 134h77l75 -90l75 90h76l-111 -134h-81z" />
    <glyph glyph-name="ccaron" unicode="&#x10d;" horiz-adv-x="522" 
d="M307 -12q-110 0 -184.5 73t-74.5 182q0 110 74.5 182t185.5 72q84 0 146 -35v-72q-64 36 -135 36q-80 0 -135 -52t-55 -132q0 -79 55 -131t135 -52q82 0 144 41v-71q-68 -41 -156 -41zM253 577l-110 135h77l74 -91l76 91h76l-112 -135h-81z" />
    <glyph glyph-name="Dcaron" unicode="&#x10e;" horiz-adv-x="778" 
d="M97 0v700h232q169 0 274.5 -97t105.5 -253t-105.5 -253t-274.5 -97h-232zM178 74h142q142 0 224 74.5t82 201.5t-82 201.5t-224 74.5h-142v-552zM303 763l-111 134h77l75 -90l75 90h76l-111 -134h-81z" />
    <glyph glyph-name="dcaron" unicode="&#x10f;" horiz-adv-x="766" 
d="M474 700h80v-700h-80v75q-65 -87 -184 -87q-106 0 -174 74.5t-68 179.5q0 106 68 180.5t174 74.5q117 0 184 -87v290zM474 164v157q-21 46 -65.5 75.5t-99.5 29.5q-78 0 -129 -53t-51 -131t51 -130.5t129 -52.5q53 0 98.5 30t66.5 75zM639 520l57 180h81l-76 -180h-62z
" />
    <glyph glyph-name="Dcroat" unicode="&#x110;" horiz-adv-x="828" 
d="M147 0v322h-110v73h110v305h232q169 0 274.5 -97t105.5 -253t-105.5 -253t-274.5 -97h-232zM228 74h142q142 0 224 74.5t82 201.5t-82 201.5t-224 74.5h-142v-231h160v-73h-160v-248z" />
    <glyph glyph-name="dcroat" unicode="&#x111;" horiz-adv-x="634" 
d="M475 700h79v-79h105v-64h-105v-557h-79v75q-65 -87 -185 -87q-106 0 -174 74.5t-68 179.5q0 106 68 180.5t174 74.5q118 0 185 -87v147h-140v64h140v79zM475 164v157q-21 46 -65.5 75.5t-99.5 29.5q-78 0 -129.5 -53t-51.5 -131t51.5 -130.5t129.5 -52.5q54 0 98.5 29.5
t66.5 75.5z" />
    <glyph glyph-name="Emacron" unicode="&#x112;" horiz-adv-x="640" 
d="M97 0v700h483v-74h-402v-214h329v-74h-329v-264h417v-74h-498zM216 800v60h258v-60h-258z" />
    <glyph glyph-name="emacron" unicode="&#x113;" horiz-adv-x="571" 
d="M315 -12q-113 0 -190 71.5t-77 182.5q0 110 68.5 182.5t178.5 72.5q57 0 102.5 -23.5t71.5 -61.5t39.5 -81t13.5 -87v-22h-393q8 -75 62.5 -119t139.5 -44q84 0 156 45v-70q-61 -46 -172 -46zM130 286h312q-3 53 -40.5 96.5t-110.5 43.5q-70 0 -113.5 -41.5t-47.5 -98.5z
M164 616v59h258v-59h-258z" />
    <glyph glyph-name="Ebreve" unicode="&#x114;" horiz-adv-x="640" 
d="M97 0v700h483v-74h-402v-214h329v-74h-329v-264h417v-74h-498zM346 754q-59 0 -99.5 39.5t-42.5 103.5h62q1 -37 23 -61t57 -24q34 0 56 24t24 61h61q0 -63 -41 -103t-100 -40z" />
    <glyph glyph-name="ebreve" unicode="&#x115;" horiz-adv-x="571" 
d="M315 -12q-113 0 -190 71.5t-77 182.5q0 110 68.5 182.5t178.5 72.5q57 0 102.5 -23.5t71.5 -61.5t39.5 -81t13.5 -87v-22h-393q8 -75 62.5 -119t139.5 -44q84 0 156 45v-70q-61 -46 -172 -46zM130 286h312q-3 53 -40.5 96.5t-110.5 43.5q-70 0 -113.5 -41.5t-47.5 -98.5z
M292 569q-58 0 -99 40.5t-43 102.5h62q1 -36 23.5 -60.5t56.5 -24.5q35 0 57 24t23 61h61q-2 -62 -43 -102.5t-98 -40.5z" />
    <glyph glyph-name="Edotaccent" unicode="&#x116;" horiz-adv-x="640" 
d="M97 0v700h483v-74h-402v-214h329v-74h-329v-264h417v-74h-498zM294 828q0 21 14.5 35.5t35.5 14.5q22 0 36 -14.5t14 -35.5q0 -22 -14 -36t-36 -14q-21 0 -35.5 14t-14.5 36z" />
    <glyph glyph-name="edotaccent" unicode="&#x117;" horiz-adv-x="571" 
d="M315 -12q-113 0 -190 71.5t-77 182.5q0 110 68.5 182.5t178.5 72.5q57 0 102.5 -23.5t71.5 -61.5t39.5 -81t13.5 -87v-22h-393q8 -75 62.5 -119t139.5 -44q84 0 156 45v-70q-61 -46 -172 -46zM130 286h312q-3 53 -40.5 96.5t-110.5 43.5q-70 0 -113.5 -41.5t-47.5 -98.5z
M243 646q0 22 14.5 36t35.5 14q22 0 36 -14t14 -36q0 -21 -14 -35.5t-36 -14.5q-21 0 -35.5 14.5t-14.5 35.5z" />
    <glyph glyph-name="Eogonek" unicode="&#x118;" horiz-adv-x="643" 
d="M613 -196q-53 0 -83 28t-30 71q0 54 40 97h-443v700h483v-74h-402v-214h329v-74h-329v-264h417v-74q-37 -39 -37 -82q0 -29 18.5 -45t49.5 -16q24 0 39 5v-52q-22 -6 -52 -6z" />
    <glyph glyph-name="eogonek" unicode="&#x119;" horiz-adv-x="571" 
d="M505 -162q-53 0 -83 28t-30 71q0 33 16 63q-44 -12 -93 -12q-113 0 -190 71.5t-77 182.5q0 110 68.5 182.5t178.5 72.5q57 0 102.5 -23.5t71.5 -61.5t39.5 -81t13.5 -87v-22h-393q8 -75 62.5 -119t139.5 -44q84 0 156 45v-70q-37 -39 -37 -82q0 -29 18.5 -45t49.5 -16
q24 0 39 5v-52q-22 -6 -52 -6zM130 286h312q-3 53 -40.5 96.5t-110.5 43.5q-70 0 -113.5 -41.5t-47.5 -98.5z" />
    <glyph glyph-name="Ecaron" unicode="&#x11a;" horiz-adv-x="640" 
d="M97 0v700h483v-74h-402v-214h329v-74h-329v-264h417v-74h-498zM304 763l-111 134h77l75 -90l75 90h76l-111 -134h-81z" />
    <glyph glyph-name="ecaron" unicode="&#x11b;" horiz-adv-x="571" 
d="M315 -12q-113 0 -190 71.5t-77 182.5q0 110 68.5 182.5t178.5 72.5q57 0 102.5 -23.5t71.5 -61.5t39.5 -81t13.5 -87v-22h-393q8 -75 62.5 -119t139.5 -44q84 0 156 45v-70q-61 -46 -172 -46zM130 286h312q-3 53 -40.5 96.5t-110.5 43.5q-70 0 -113.5 -41.5t-47.5 -98.5z
M250 577l-110 135h77l74 -91l76 91h76l-112 -135h-81z" />
    <glyph glyph-name="Gcircumflex" unicode="&#x11c;" horiz-adv-x="779" 
d="M427 -12q-154 0 -256.5 102t-102.5 260q0 157 103 259.5t258 102.5q129 0 221 -65v-82q-99 71 -216 71q-122 0 -202.5 -81t-80.5 -206q0 -126 79.5 -205.5t196.5 -79.5q123 0 193 70v268h80v-300q-45 -51 -115.5 -82.5t-157.5 -31.5zM256 763l111 134h80l112 -134h-77
l-75 90l-74 -90h-77z" />
    <glyph glyph-name="gcircumflex" unicode="&#x11d;" horiz-adv-x="636" 
d="M475 33v48q-63 -84 -185 -84q-106 0 -174 73t-68 177t68 177t174 73q122 0 185 -84v72h79v-451q0 -116 -76 -177t-189 -61q-111 0 -188 44v76q81 -49 180 -49q86 0 140 40.5t54 125.5zM475 170v154q-21 46 -65.5 74t-99.5 28q-78 0 -129.5 -52t-51.5 -127
q0 -77 51.5 -128t129.5 -51q55 0 99.5 28t65.5 74zM160 577l112 135h81l111 -135h-77l-75 90l-75 -90h-77z" />
    <glyph glyph-name="Gbreve" unicode="&#x11e;" horiz-adv-x="779" 
d="M427 -12q-154 0 -256.5 102t-102.5 260q0 157 103 259.5t258 102.5q129 0 221 -65v-82q-99 71 -216 71q-122 0 -202.5 -81t-80.5 -206q0 -126 79.5 -205.5t196.5 -79.5q123 0 193 70v268h80v-300q-45 -51 -115.5 -82.5t-157.5 -31.5zM421 760q-59 0 -99.5 39.5
t-42.5 103.5h62q1 -37 23 -61t57 -24q34 0 56 24t24 61h61q0 -63 -41 -103t-100 -40z" />
    <glyph glyph-name="gbreve" unicode="&#x11f;" horiz-adv-x="636" 
d="M475 33v48q-63 -84 -185 -84q-106 0 -174 73t-68 177t68 177t174 73q122 0 185 -84v72h79v-451q0 -116 -76 -177t-189 -61q-111 0 -188 44v76q81 -49 180 -49q86 0 140 40.5t54 125.5zM475 170v154q-21 46 -65.5 74t-99.5 28q-78 0 -129.5 -52t-51.5 -127
q0 -77 51.5 -128t129.5 -51q55 0 99.5 28t65.5 74zM310 569q-58 0 -99 40.5t-43 102.5h62q1 -36 23.5 -60.5t56.5 -24.5q35 0 57 24t23 61h61q-2 -62 -43 -102.5t-98 -40.5z" />
    <glyph glyph-name="Gdotaccent" unicode="&#x120;" horiz-adv-x="779" 
d="M427 -12q-154 0 -256.5 102t-102.5 260q0 157 103 259.5t258 102.5q129 0 221 -65v-82q-99 71 -216 71q-122 0 -202.5 -81t-80.5 -206q0 -126 79.5 -205.5t196.5 -79.5q123 0 193 70v268h80v-300q-45 -51 -115.5 -82.5t-157.5 -31.5zM372 828q0 21 14.5 35.5t35.5 14.5
q22 0 36 -14.5t14 -35.5q0 -22 -14 -36t-36 -14q-21 0 -35.5 14t-14.5 36z" />
    <glyph glyph-name="gdotaccent" unicode="&#x121;" horiz-adv-x="636" 
d="M475 33v48q-63 -84 -185 -84q-106 0 -174 73t-68 177t68 177t174 73q122 0 185 -84v72h79v-451q0 -116 -76 -177t-189 -61q-111 0 -188 44v76q81 -49 180 -49q86 0 140 40.5t54 125.5zM475 170v154q-21 46 -65.5 74t-99.5 28q-78 0 -129.5 -52t-51.5 -127
q0 -77 51.5 -128t129.5 -51q55 0 99.5 28t65.5 74zM259 646q0 22 14.5 36t35.5 14q22 0 36 -14t14 -36q0 -21 -14 -35.5t-36 -14.5q-21 0 -35.5 14.5t-14.5 35.5z" />
    <glyph glyph-name="uni0122" unicode="&#x122;" horiz-adv-x="779" 
d="M427 -12q-154 0 -256.5 102t-102.5 260q0 157 103 259.5t258 102.5q129 0 221 -65v-82q-99 71 -216 71q-122 0 -202.5 -81t-80.5 -206q0 -126 79.5 -205.5t196.5 -79.5q123 0 193 70v268h80v-300q-45 -51 -115.5 -82.5t-157.5 -31.5zM341 -235l57 180h81l-76 -180h-62z
" />
    <glyph glyph-name="uni0123" unicode="&#x123;" horiz-adv-x="636" 
d="M475 33v48q-63 -84 -185 -84q-106 0 -174 73t-68 177t68 177t174 73q122 0 185 -84v72h79v-451q0 -116 -76 -177t-189 -61q-111 0 -188 44v76q81 -49 180 -49q86 0 140 40.5t54 125.5zM475 170v154q-21 46 -65.5 74t-99.5 28q-78 0 -129.5 -52t-51.5 -127
q0 -77 51.5 -128t129.5 -51q55 0 99.5 28t65.5 74zM392 738l-57 -180h-81l76 180h62z" />
    <glyph glyph-name="Hcircumflex" unicode="&#x124;" horiz-adv-x="761" 
d="M97 0v700h81v-288h406v288h81v-700h-81v338h-406v-338h-81zM229 763l111 134h80l112 -134h-77l-75 90l-74 -90h-77z" />
    <glyph glyph-name="hcircumflex" unicode="&#x125;" horiz-adv-x="608" 
d="M161 0h-80v700h80v-288q29 36 78.5 60.5t111.5 24.5q91 0 137.5 -53t46.5 -149v-295h-80v278q0 43 -12.5 73.5t-33.5 44.5t-41.5 20t-44.5 6q-47 0 -94 -29.5t-68 -67.5v-325zM-29 763l111 134h80l112 -134h-77l-75 90l-74 -90h-77z" />
    <glyph glyph-name="Hbar" unicode="&#x126;" horiz-adv-x="857" 
d="M144 0v533h-86v57h86v110h81v-110h407v110h81v-110h86v-57h-86v-533h-81v338h-407v-338h-81zM225 412h407v121h-407v-121z" />
    <glyph glyph-name="hbar" unicode="&#x127;" horiz-adv-x="642" 
d="M194 0h-80v553h-102v68h102v79h80v-79h144v-68h-144v-200q29 35 79 60t111 25q91 0 137.5 -53t46.5 -149v-236h-80v218q0 44 -12.5 74.5t-33.5 44.5t-41.5 20t-44.5 6q-47 0 -94 -29.5t-68 -67.5v-266z" />
    <glyph glyph-name="Itilde" unicode="&#x128;" horiz-adv-x="284" 
d="M102 0v700h81v-700h-81zM214 771q-29 0 -74 27.5t-63 27.5q-35 0 -41 -51h-53q2 49 26.5 81t63.5 32q29 0 74.5 -27t63.5 -27q20 0 28 12.5t13 37.5h52q-1 -49 -25 -81t-65 -32z" />
    <glyph glyph-name="itilde" unicode="&#x129;" horiz-adv-x="259" 
d="M200 588q-29 0 -74 27t-63 27q-35 0 -41 -51h-52q2 50 26 82t64 32q27 0 73.5 -27.5t63.5 -27.5q20 0 28 13t13 38h52q-1 -50 -25 -81.5t-65 -31.5zM89 0v485h80v-485h-80z" />
    <glyph glyph-name="Imacron" unicode="&#x12a;" horiz-adv-x="284" 
d="M102 0v700h81v-700h-81zM14 800v60h258v-60h-258z" />
    <glyph glyph-name="imacron" unicode="&#x12b;" horiz-adv-x="259" 
d="M0 616v59h258v-59h-258zM89 0v485h80v-485h-80z" />
    <glyph glyph-name="Ibreve" unicode="&#x12c;" horiz-adv-x="284" 
d="M102 0v700h81v-700h-81zM144 754q-59 0 -99.5 39.5t-42.5 103.5h62q1 -37 23 -61t57 -24q34 0 56 24t24 61h61q0 -63 -41 -103t-100 -40z" />
    <glyph glyph-name="ibreve" unicode="&#x12d;" horiz-adv-x="259" 
d="M130 569q-58 0 -99 40.5t-43 102.5h62q1 -36 23.5 -60.5t56.5 -24.5q35 0 57 24t23 61h61q-2 -62 -43 -102.5t-98 -40.5zM89 0v485h80v-485h-80z" />
    <glyph glyph-name="Iogonek" unicode="&#x12e;" horiz-adv-x="284" 
d="M201 -196q-53 0 -83 28t-30 71q0 54 40 97h-26v700h81v-700q-37 -39 -37 -82q0 -29 18.5 -45t49.5 -16q24 0 39 5v-52q-22 -6 -52 -6z" />
    <glyph glyph-name="iogonek" unicode="&#x12f;" horiz-adv-x="269" 
d="M191 -196q-53 0 -83 28t-30 71q0 54 40 97h-24v485h79v-485q-37 -39 -37 -82q0 -29 18.5 -45t49.5 -16q24 0 39 5v-52q-22 -6 -52 -6zM80 649q0 23 15.5 38.5t38.5 15.5t38.5 -15.5t15.5 -38.5t-15.5 -38.5t-38.5 -15.5t-38.5 15.5t-15.5 38.5z" />
    <glyph glyph-name="Idotaccent" unicode="&#x130;" horiz-adv-x="284" 
d="M102 0v700h81v-700h-81zM93 828q0 21 14.5 35.5t35.5 14.5q22 0 36 -14.5t14 -35.5q0 -22 -14 -36t-36 -14q-21 0 -35.5 14t-14.5 36z" />
    <glyph glyph-name="dotlessi" unicode="&#x131;" horiz-adv-x="259" 
d="M89 0v485h80v-485h-80z" />
    <glyph glyph-name="IJ" unicode="&#x132;" horiz-adv-x="607" 
d="M102 256v444h81v-444h-81zM275 -12q-107 0 -173 46v82q67 -52 161 -52q89 0 131 40t42 127v469h82v-477q0 -121 -65 -178t-178 -57z" />
    <glyph glyph-name="Jcircumflex" unicode="&#x134;" horiz-adv-x="502" 
d="M191 -12q-99 0 -161 44v84q58 -52 146 -52q81 0 119.5 39.5t38.5 125.5v471h81v-485q0 -115 -60 -171t-164 -56zM222 763l111 134h80l112 -134h-77l-75 90l-74 -90h-77z" />
    <glyph glyph-name="jcircumflex" unicode="&#x135;" horiz-adv-x="269" 
d="M27 -204q-53 0 -88 18v72q33 -19 71 -19q84 0 84 95v523h79v-534q0 -79 -40.5 -117t-105.5 -38zM-18 577l113 135h80l111 -135h-77l-75 90l-75 -90h-77z" />
    <glyph glyph-name="uni0136" unicode="&#x136;" horiz-adv-x="665" 
d="M178 700v-300l316 300h107l-340 -320l393 -380h-112l-364 351v-351h-81v700h81zM275 -235l57 180h81l-76 -180h-62z" />
    <glyph glyph-name="uni0137" unicode="&#x137;" horiz-adv-x="545" 
d="M162 700v-412l222 197h106l-250 -219l286 -266h-112l-252 235v-235h-80v700h80zM204 -235l57 180h81l-76 -180h-62z" />
    <glyph glyph-name="kgreenlandic" unicode="&#x138;" horiz-adv-x="547" 
d="M163 485v-197l222 197h106l-250 -219l286 -266h-112l-252 235v-235h-80v485h80z" />
    <glyph glyph-name="Lacute" unicode="&#x139;" horiz-adv-x="598" 
d="M97 0v700h81v-626h387v-74h-468zM103 763l95 134h100l-120 -134h-75z" />
    <glyph glyph-name="lacute" unicode="&#x13a;" horiz-adv-x="293" 
d="M197 -12q-48 0 -81 28t-33 93v591h80v-571q0 -68 61 -68q26 0 46 12v-71q-27 -14 -73 -14zM90 763l95 134h100l-120 -134h-75z" />
    <glyph glyph-name="uni013B" unicode="&#x13b;" horiz-adv-x="598" 
d="M97 0v700h81v-626h387v-74h-468zM256 -235l57 180h81l-76 -180h-62z" />
    <glyph glyph-name="lcommaaccent" unicode="&#x13c;" horiz-adv-x="295" 
d="M197 -12q-48 0 -81 28t-33 93v591h80v-571q0 -68 61 -68q26 0 46 12v-71q-27 -14 -73 -14zM98 -235l57 180h81l-76 -180h-62z" />
    <glyph glyph-name="Lcaron" unicode="&#x13d;" horiz-adv-x="609" 
d="M97 0v700h81v-626h387v-74h-468zM435 520l57 180h81l-76 -180h-62z" />
    <glyph glyph-name="lcaron" unicode="&#x13e;" horiz-adv-x="375" 
d="M194 -12q-48 0 -81 28t-33 93v591h80v-571q0 -68 61 -68q26 0 46 12v-71q-27 -14 -73 -14zM247 520l57 180h81l-76 -180h-62z" />
    <glyph glyph-name="Ldot" unicode="&#x13f;" horiz-adv-x="598" 
d="M97 0v700h81v-626h387v-74h-468zM454 380q0 23 16 39.5t40 16.5q23 0 39 -16.5t16 -39.5t-16 -39t-39 -16q-24 0 -40 16t-16 39z" />
    <glyph glyph-name="ldot" unicode="&#x140;" horiz-adv-x="407" 
d="M197 -12q-48 0 -81 28t-33 93v591h80v-571q0 -68 61 -68q26 0 46 12v-71q-27 -14 -73 -14zM252 380q0 23 16 39.5t40 16.5q23 0 39 -16.5t16 -39.5t-16 -39t-39 -16q-24 0 -40 16t-16 39z" />
    <glyph glyph-name="Lslash" unicode="&#x141;" horiz-adv-x="613" 
d="M16 337l96 59v304h81v-253l156 95v-75l-156 -96v-297h387v-74h-468v321l-96 -60v76z" />
    <glyph glyph-name="lslash" unicode="&#x142;" horiz-adv-x="385" 
d="M38 332l101 63v305h79v-256l102 64v-76l-102 -63v-240q0 -68 62 -68q28 0 45 12v-71q-25 -14 -72 -14q-48 0 -81 28t-33 93v210l-101 -63v76z" />
    <glyph glyph-name="Nacute" unicode="&#x143;" horiz-adv-x="775" 
d="M97 0v700h70l433 -559v559h79v-700h-69l-434 561v-561h-79zM344 763l95 134h100l-120 -134h-75z" />
    <glyph glyph-name="nacute" unicode="&#x144;" horiz-adv-x="611" 
d="M163 0h-80v485h80v-73q29 36 78.5 60.5t111.5 24.5q91 0 137.5 -53t46.5 -149v-295h-80v278q0 43 -12.5 73.5t-33.5 44.5t-41.5 20t-44.5 6q-47 0 -94 -29.5t-68 -67.5v-325zM245 577l96 135h100l-121 -135h-75z" />
    <glyph glyph-name="uni0145" unicode="&#x145;" horiz-adv-x="775" 
d="M97 0v700h70l433 -559v559h79v-700h-69l-434 561v-561h-79zM317 -235l57 180h81l-76 -180h-62z" />
    <glyph glyph-name="uni0146" unicode="&#x146;" horiz-adv-x="611" 
d="M163 0h-80v485h80v-73q29 36 78.5 60.5t111.5 24.5q91 0 137.5 -53t46.5 -149v-295h-80v278q0 43 -12.5 73.5t-33.5 44.5t-41.5 20t-44.5 6q-47 0 -94 -29.5t-68 -67.5v-325zM226 -235l57 180h81l-76 -180h-62z" />
    <glyph glyph-name="Ncaron" unicode="&#x147;" horiz-adv-x="775" 
d="M97 0v700h70l433 -559v559h79v-700h-69l-434 561v-561h-79zM346 763l-111 134h77l75 -90l75 90h76l-111 -134h-81z" />
    <glyph glyph-name="ncaron" unicode="&#x148;" horiz-adv-x="611" 
d="M163 0h-80v485h80v-73q29 36 78.5 60.5t111.5 24.5q91 0 137.5 -53t46.5 -149v-295h-80v278q0 43 -12.5 73.5t-33.5 44.5t-41.5 20t-44.5 6q-47 0 -94 -29.5t-68 -67.5v-325zM268 577l-110 135h77l74 -91l76 91h76l-112 -135h-81z" />
    <glyph glyph-name="napostrophe" unicode="&#x149;" horiz-adv-x="706" 
d="M258 0h-80v485h80v-73q29 36 78.5 60.5t111.5 24.5q91 0 137.5 -53t46.5 -149v-295h-80v278q0 43 -12.5 73.5t-33.5 44.5t-41.5 20t-44.5 6q-47 0 -94 -29.5t-68 -67.5v-325zM25 520l57 180h81l-76 -180h-62z" />
    <glyph glyph-name="Eng" unicode="&#x14a;" horiz-adv-x="775" 
d="M499 -204q-71 0 -114 23v80q43 -27 95 -27q119 0 119 130v12l-422 548v-562h-80v700h69l433 -561v561h80v-708q0 -98 -47.5 -147t-132.5 -49z" />
    <glyph glyph-name="eng" unicode="&#x14b;" horiz-adv-x="611" 
d="M163 0h-80v485h80v-73q29 36 78.5 60.5t111.5 24.5q91 0 137.5 -53t46.5 -149v-329q0 -78 -35.5 -124t-110.5 -46q-57 0 -88 18v73q35 -20 70 -20q46 0 65 26t19 82v303q0 43 -12.5 73.5t-33.5 44.5t-41.5 20t-44.5 6q-47 0 -94 -29.5t-68 -67.5v-325z" />
    <glyph glyph-name="Omacron" unicode="&#x14c;" horiz-adv-x="844" 
d="M421 712q151 0 252.5 -103.5t101.5 -258.5t-101.5 -258.5t-252.5 -103.5t-252 103.5t-101 258.5t101 258.5t252 103.5zM421 64q115 0 193 82t78 204t-78 204t-193 82q-114 0 -192 -82t-78 -204t78 -204t192 -82zM292 800v60h258v-60h-258z" />
    <glyph glyph-name="omacron" unicode="&#x14d;" horiz-adv-x="621" 
d="M311 497q115 0 189 -75t74 -180t-74 -179.5t-189 -74.5t-189 74.5t-74 179.5t74 180t189 75zM311 59q78 0 130 52.5t52 130.5t-52 131t-130 53t-130 -53t-52 -131t52 -130.5t130 -52.5zM182 616v59h258v-59h-258z" />
    <glyph glyph-name="Obreve" unicode="&#x14e;" horiz-adv-x="844" 
d="M421 712q151 0 252.5 -103.5t101.5 -258.5t-101.5 -258.5t-252.5 -103.5t-252 103.5t-101 258.5t101 258.5t252 103.5zM421 64q115 0 193 82t78 204t-78 204t-193 82q-114 0 -192 -82t-78 -204t78 -204t192 -82zM422 760q-59 0 -99.5 39.5t-42.5 103.5h62q1 -37 23 -61
t57 -24q34 0 56 24t24 61h61q0 -63 -41 -103t-100 -40z" />
    <glyph glyph-name="obreve" unicode="&#x14f;" horiz-adv-x="621" 
d="M311 497q115 0 189 -75t74 -180t-74 -179.5t-189 -74.5t-189 74.5t-74 179.5t74 180t189 75zM311 59q78 0 130 52.5t52 130.5t-52 131t-130 53t-130 -53t-52 -131t52 -130.5t130 -52.5zM312 572q-58 0 -99 40.5t-43 102.5h62q1 -36 23.5 -60.5t56.5 -24.5q35 0 57 24
t23 61h61q-2 -62 -43 -102.5t-98 -40.5z" />
    <glyph glyph-name="Ohungarumlaut" unicode="&#x150;" horiz-adv-x="844" 
d="M421 712q151 0 252.5 -103.5t101.5 -258.5t-101.5 -258.5t-252.5 -103.5t-252 103.5t-101 258.5t101 258.5t252 103.5zM421 64q115 0 193 82t78 204t-78 204t-193 82q-114 0 -192 -82t-78 -204t78 -204t192 -82zM468 763l95 134h100l-120 -134h-75zM289 763l96 134h100
l-120 -134h-76z" />
    <glyph glyph-name="ohungarumlaut" unicode="&#x151;" horiz-adv-x="621" 
d="M311 497q115 0 189 -75t74 -180t-74 -179.5t-189 -74.5t-189 74.5t-74 179.5t74 180t189 75zM311 59q78 0 130 52.5t52 130.5t-52 131t-130 53t-130 -53t-52 -131t52 -130.5t130 -52.5zM353 577l96 135h99l-119 -135h-76zM174 577l95 135h101l-120 -135h-76z" />
    <glyph glyph-name="OE" unicode="&#x152;" horiz-adv-x="1122" 
d="M1077 0h-628q-170 0 -275.5 97t-105.5 253t105.5 253t275.5 97h614v-74h-399v-214h326v-74h-326v-264h413v-74zM458 74h126v552h-126q-145 0 -225.5 -74.5t-80.5 -201.5t80.5 -201.5t225.5 -74.5z" />
    <glyph glyph-name="oe" unicode="&#x153;" horiz-adv-x="1013" 
d="M964 244v-22h-393q7 -75 61.5 -119t140.5 -44q88 0 155 45v-70q-60 -46 -171 -46q-74 0 -133.5 31t-92.5 86q-31 -54 -88.5 -85.5t-131.5 -31.5q-115 0 -189 74.5t-74 179.5t74.5 180t188.5 75q145 0 219 -118q29 55 82 86.5t125 31.5q57 0 102.5 -23.5t71.5 -61.5
t39.5 -81t13.5 -87zM311 59q78 0 130.5 53t52.5 130q0 78 -52.5 131t-130.5 53t-130 -53t-52 -131t52 -130.5t130 -52.5zM572 286h312q-3 53 -41 96.5t-110 43.5q-70 0 -113.5 -41.5t-47.5 -98.5z" />
    <glyph glyph-name="Racute" unicode="&#x154;" horiz-adv-x="735" 
d="M97 0v700h314q104 0 163.5 -53t59.5 -139q0 -74 -42 -124t-121 -65l225 -319h-96l-218 311h-204v-311h-81zM178 384h228q70 0 108 31t38 90q0 58 -38 89.5t-108 31.5h-228v-242zM269 763l95 134h100l-120 -134h-75z" />
    <glyph glyph-name="racute" unicode="&#x155;" horiz-adv-x="375" 
d="M83 0v485h80v-91q30 49 82 76t109 27v-80q-63 -2 -114.5 -31.5t-76.5 -81.5v-304h-80zM137 577l96 135h100l-121 -135h-75z" />
    <glyph glyph-name="uni0156" unicode="&#x156;" horiz-adv-x="735" 
d="M97 0v700h314q104 0 163.5 -53t59.5 -139q0 -74 -42 -124t-121 -65l225 -319h-96l-218 311h-204v-311h-81zM178 384h228q70 0 108 31t38 90q0 58 -38 89.5t-108 31.5h-228v-242zM283 -235l57 180h81l-76 -180h-62z" />
    <glyph glyph-name="uni0157" unicode="&#x157;" horiz-adv-x="375" 
d="M83 0v485h80v-91q30 49 82 76t109 27v-80q-63 -2 -114.5 -31.5t-76.5 -81.5v-304h-80zM26 -235l57 180h81l-76 -180h-62z" />
    <glyph glyph-name="Rcaron" unicode="&#x158;" horiz-adv-x="735" 
d="M97 0v700h314q104 0 163.5 -53t59.5 -139q0 -74 -42 -124t-121 -65l225 -319h-96l-218 311h-204v-311h-81zM178 384h228q70 0 108 31t38 90q0 58 -38 89.5t-108 31.5h-228v-242zM297 763l-111 134h77l75 -90l75 90h76l-111 -134h-81z" />
    <glyph glyph-name="rcaron" unicode="&#x159;" horiz-adv-x="371" 
d="M81 0v485h80v-91q30 49 82 76t109 27v-80q-63 -2 -114.5 -31.5t-76.5 -81.5v-304h-80zM169 577l-110 135h77l74 -91l76 91h76l-112 -135h-81z" />
    <glyph glyph-name="Sacute" unicode="&#x15a;" horiz-adv-x="627" 
d="M307 -12q-157 0 -260 74v90q40 -35 110.5 -61.5t144.5 -26.5q80 0 132 34t52 92q0 25 -10.5 44.5t-24 32.5t-43 25.5t-51 19.5t-64.5 19q-58 16 -92 28.5t-70.5 35t-53.5 55.5t-17 79q0 80 65 131.5t180 51.5q126 0 219 -58v-83q-103 65 -217 65q-82 0 -123 -31t-41 -78
q0 -13 3 -24.5t10.5 -21t13.5 -16.5t21 -14.5t23 -12t28.5 -11t29 -9t33 -9.5t32.5 -9q43 -13 68.5 -22.5t60.5 -27.5t54.5 -38t34 -51.5t14.5 -69.5q0 -95 -75.5 -149t-186.5 -54zM241 763l95 134h100l-120 -134h-75z" />
    <glyph glyph-name="sacute" unicode="&#x15b;" horiz-adv-x="510" 
d="M250 -12q-61 0 -116.5 14.5t-84.5 35.5v80q29 -22 83.5 -40.5t114.5 -18.5t94 19t34 54q0 12 -3.5 21t-12 15.5t-17 11.5t-24 9.5t-27 7.5t-31.5 8t-33 8q-86 22 -127.5 53.5t-41.5 94.5t51.5 99.5t145.5 36.5q109 0 177 -43v-77q-80 49 -174 49q-119 0 -119 -67
q0 -39 59 -60q20 -7 85 -22q82 -18 127.5 -51t45.5 -96q0 -66 -57.5 -104t-148.5 -38zM181 577l96 135h100l-121 -135h-75z" />
    <glyph glyph-name="Scircumflex" unicode="&#x15c;" horiz-adv-x="627" 
d="M307 -12q-157 0 -260 74v90q40 -35 110.5 -61.5t144.5 -26.5q80 0 132 34t52 92q0 25 -10.5 44.5t-24 32.5t-43 25.5t-51 19.5t-64.5 19q-58 16 -92 28.5t-70.5 35t-53.5 55.5t-17 79q0 80 65 131.5t180 51.5q126 0 219 -58v-83q-103 65 -217 65q-82 0 -123 -31t-41 -78
q0 -13 3 -24.5t10.5 -21t13.5 -16.5t21 -14.5t23 -12t28.5 -11t29 -9t33 -9.5t32.5 -9q43 -13 68.5 -22.5t60.5 -27.5t54.5 -38t34 -51.5t14.5 -69.5q0 -95 -75.5 -149t-186.5 -54zM161 763l111 134h80l112 -134h-77l-75 90l-74 -90h-77z" />
    <glyph glyph-name="scircumflex" unicode="&#x15d;" horiz-adv-x="510" 
d="M250 -12q-61 0 -116.5 14.5t-84.5 35.5v80q29 -22 83.5 -40.5t114.5 -18.5t94 19t34 54q0 12 -3.5 21t-12 15.5t-17 11.5t-24 9.5t-27 7.5t-31.5 8t-33 8q-86 22 -127.5 53.5t-41.5 94.5t51.5 99.5t145.5 36.5q109 0 177 -43v-77q-80 49 -174 49q-119 0 -119 -67
q0 -39 59 -60q20 -7 85 -22q82 -18 127.5 -51t45.5 -96q0 -66 -57.5 -104t-148.5 -38zM103 577l112 135h81l111 -135h-77l-75 90l-75 -90h-77z" />
    <glyph glyph-name="Scedilla" unicode="&#x15e;" horiz-adv-x="627" 
d="M297 -133h-94l84 122q-149 6 -240 73v90q40 -35 110.5 -61.5t144.5 -26.5q80 0 132 34t52 92q0 25 -10.5 44.5t-24 32.5t-43 25.5t-51 19.5t-64.5 19q-58 16 -92 28.5t-70.5 35t-53.5 55.5t-17 79q0 80 65 131.5t180 51.5q126 0 219 -58v-83q-103 65 -217 65
q-82 0 -123 -31t-41 -78q0 -13 3 -24.5t10.5 -21t13.5 -16.5t21 -14.5t23 -12t28.5 -11t29 -9t33 -9.5t32.5 -9q43 -13 68.5 -22.5t60.5 -27.5t54.5 -38t34 -51.5t14.5 -69.5q0 -83 -58 -134.5t-150 -64.5z" />
    <glyph glyph-name="scedilla" unicode="&#x15f;" horiz-adv-x="510" 
d="M233 -133h-94l84 122q-112 6 -174 49v80q29 -22 83.5 -40.5t114.5 -18.5t94 19t34 54q0 12 -3.5 21t-12 15.5t-17 11.5t-24 9.5t-27 7.5t-31.5 8t-33 8q-86 22 -127.5 53.5t-41.5 94.5t51.5 99.5t145.5 36.5q109 0 177 -43v-77q-80 49 -174 49q-119 0 -119 -67
q0 -39 59 -60q20 -7 85 -22q82 -18 127.5 -51t45.5 -96q0 -57 -43 -93.5t-116 -45.5z" />
    <glyph glyph-name="Scaron" unicode="&#x160;" horiz-adv-x="627" 
d="M307 -12q-157 0 -260 74v90q40 -35 110.5 -61.5t144.5 -26.5q80 0 132 34t52 92q0 25 -10.5 44.5t-24 32.5t-43 25.5t-51 19.5t-64.5 19q-58 16 -92 28.5t-70.5 35t-53.5 55.5t-17 79q0 80 65 131.5t180 51.5q126 0 219 -58v-83q-103 65 -217 65q-82 0 -123 -31t-41 -78
q0 -13 3 -24.5t10.5 -21t13.5 -16.5t21 -14.5t23 -12t28.5 -11t29 -9t33 -9.5t32.5 -9q43 -13 68.5 -22.5t60.5 -27.5t54.5 -38t34 -51.5t14.5 -69.5q0 -95 -75.5 -149t-186.5 -54zM261 763l-111 134h77l75 -90l75 90h76l-111 -134h-81z" />
    <glyph glyph-name="scaron" unicode="&#x161;" horiz-adv-x="510" 
d="M250 -12q-61 0 -116.5 14.5t-84.5 35.5v80q29 -22 83.5 -40.5t114.5 -18.5t94 19t34 54q0 12 -3.5 21t-12 15.5t-17 11.5t-24 9.5t-27 7.5t-31.5 8t-33 8q-86 22 -127.5 53.5t-41.5 94.5t51.5 99.5t145.5 36.5q109 0 177 -43v-77q-80 49 -174 49q-119 0 -119 -67
q0 -39 59 -60q20 -7 85 -22q82 -18 127.5 -51t45.5 -96q0 -66 -57.5 -104t-148.5 -38zM213 577l-110 135h77l74 -91l76 91h76l-112 -135h-81z" />
    <glyph glyph-name="uni0162" unicode="&#x162;" horiz-adv-x="632" 
d="M274 0v626h-239v74h562v-74h-241v-626l-71 -133h-95z" />
    <glyph glyph-name="uni0163" unicode="&#x163;" horiz-adv-x="431" 
d="M138 136v279h-112v70h112v147h80v-147h166v-70h-166v-256q0 -54 19 -76t63 -22q47 0 78 20v-71q-23 -16 -79 -21l-61 -122h-95l90 126q-95 23 -95 143z" />
    <glyph glyph-name="Tcaron" unicode="&#x164;" horiz-adv-x="632" 
d="M274 0v626h-239v74h562v-74h-241v-626h-82zM275 763l-111 134h77l75 -90l75 90h76l-111 -134h-81z" />
    <glyph glyph-name="tcaron" unicode="&#x165;" horiz-adv-x="566" 
d="M288 -12q-69 0 -104 40t-35 108v280h-112v69h112v147h80v-147h166v-69h-166v-257q0 -54 19 -76t63 -22q47 0 78 20v-71q-34 -22 -101 -22zM438 520l57 180h81l-76 -180h-62z" />
    <glyph glyph-name="Tbar" unicode="&#x166;" horiz-adv-x="632" 
d="M274 0v333h-131v73h131v220h-239v74h562v-74h-241v-220h132v-73h-132v-333h-82z" />
    <glyph glyph-name="tbar" unicode="&#x167;" horiz-adv-x="431" 
d="M26 228v70h112v118h-112v69h112v147h80v-147h166v-69h-166v-118h166v-70h-166v-69q0 -54 19 -76t63 -22q47 0 78 20v-71q-34 -22 -101 -22q-69 0 -104 40t-35 108v92h-112z" />
    <glyph glyph-name="Utilde" unicode="&#x168;" horiz-adv-x="747" 
d="M373 -12q-128 0 -207.5 80.5t-79.5 229.5v402h81v-404q0 -111 56 -171.5t150 -60.5q95 0 151 60.5t56 171.5v404h81v-402q0 -149 -80 -229.5t-208 -80.5zM444 771q-29 0 -74 27.5t-63 27.5q-35 0 -41 -51h-53q2 49 26.5 81t63.5 32q29 0 74.5 -27t63.5 -27q20 0 28 12.5
t13 37.5h52q-1 -49 -25 -81t-65 -32z" />
    <glyph glyph-name="utilde" unicode="&#x169;" horiz-adv-x="612" 
d="M448 485h80v-485h-80v73q-75 -85 -190 -85q-91 0 -137.5 53t-46.5 149v295h80v-278q0 -144 132 -144q48 0 93 29t69 68v325zM372 588q-29 0 -74 27t-63 27q-35 0 -41 -51h-52q2 50 26 82t64 32q27 0 73.5 -27.5t63.5 -27.5q20 0 28 13t13 38h52q-1 -50 -25 -81.5
t-65 -31.5z" />
    <glyph glyph-name="Umacron" unicode="&#x16a;" horiz-adv-x="747" 
d="M373 -12q-128 0 -207.5 80.5t-79.5 229.5v402h81v-404q0 -111 56 -171.5t150 -60.5q95 0 151 60.5t56 171.5v404h81v-402q0 -149 -80 -229.5t-208 -80.5zM245 800v60h258v-60h-258z" />
    <glyph glyph-name="umacron" unicode="&#x16b;" horiz-adv-x="612" 
d="M448 485h80v-485h-80v73q-75 -85 -190 -85q-91 0 -137.5 53t-46.5 149v295h80v-278q0 -144 132 -144q48 0 93 29t69 68v325zM172 616v59h258v-59h-258z" />
    <glyph glyph-name="Ubreve" unicode="&#x16c;" horiz-adv-x="747" 
d="M373 -12q-128 0 -207.5 80.5t-79.5 229.5v402h81v-404q0 -111 56 -171.5t150 -60.5q95 0 151 60.5t56 171.5v404h81v-402q0 -149 -80 -229.5t-208 -80.5zM374 754q-59 0 -99.5 39.5t-42.5 103.5h62q1 -37 23 -61t57 -24q34 0 56 24t24 61h61q0 -63 -41 -103t-100 -40z
" />
    <glyph glyph-name="ubreve" unicode="&#x16d;" horiz-adv-x="612" 
d="M448 485h80v-485h-80v73q-75 -85 -190 -85q-91 0 -137.5 53t-46.5 149v295h80v-278q0 -144 132 -144q48 0 93 29t69 68v325zM302 569q-58 0 -99 40.5t-43 102.5h62q1 -36 23.5 -60.5t56.5 -24.5q35 0 57 24t23 61h61q-2 -62 -43 -102.5t-98 -40.5z" />
    <glyph glyph-name="Uring" unicode="&#x16e;" horiz-adv-x="747" 
d="M373 -12q-128 0 -207.5 80.5t-79.5 229.5v402h81v-404q0 -111 56 -171.5t150 -60.5q95 0 151 60.5t56 171.5v404h81v-402q0 -149 -80 -229.5t-208 -80.5zM375 927q39 0 67.5 -28t28.5 -68t-28.5 -68.5t-67.5 -28.5q-42 0 -69.5 28t-27.5 69q0 40 27.5 68t69.5 28z
M375 776q23 0 38.5 16t15.5 39t-15.5 39t-38.5 16t-39.5 -16t-16.5 -39t16.5 -39t39.5 -16z" />
    <glyph glyph-name="uring" unicode="&#x16f;" horiz-adv-x="612" 
d="M448 485h80v-485h-80v73q-75 -85 -190 -85q-91 0 -137.5 53t-46.5 149v295h80v-278q0 -144 132 -144q48 0 93 29t69 68v325zM301 743q40 0 68.5 -28.5t28.5 -68.5q0 -39 -28.5 -67.5t-68.5 -28.5t-68.5 28.5t-28.5 67.5q0 40 28.5 68.5t68.5 28.5zM301 592q23 0 39 15.5
t16 38.5q0 24 -16 39.5t-39 15.5t-39 -15.5t-16 -39.5q0 -23 16 -38.5t39 -15.5z" />
    <glyph glyph-name="Uhungarumlaut" unicode="&#x170;" horiz-adv-x="747" 
d="M373 -12q-128 0 -207.5 80.5t-79.5 229.5v402h81v-404q0 -111 56 -171.5t150 -60.5q95 0 151 60.5t56 171.5v404h81v-402q0 -149 -80 -229.5t-208 -80.5zM408 763l95 134h100l-120 -134h-75zM229 763l96 134h100l-120 -134h-76z" />
    <glyph glyph-name="uhungarumlaut" unicode="&#x171;" horiz-adv-x="613" 
d="M448 485h80v-485h-80v73q-75 -85 -190 -85q-91 0 -137.5 53t-46.5 149v295h80v-278q0 -144 132 -144q48 0 93 29t69 68v325zM341 577l96 135h99l-119 -135h-76zM162 577l95 135h101l-120 -135h-76z" />
    <glyph glyph-name="Uogonek" unicode="&#x172;" horiz-adv-x="747" 
d="M487 -190q-53 0 -83 28t-30 71q0 45 30 81q-7 -2 -31 -2q-128 0 -207.5 80.5t-79.5 229.5v402h81v-404q0 -111 56 -171.5t150 -60.5q95 0 151 60.5t56 171.5v404h81v-402q0 -101 -36.5 -167.5t-110.5 -110.5q-27 -16 -41 -26.5t-27.5 -29.5t-13.5 -40q0 -29 18 -45
t49 -16q24 0 40 5v-52q-22 -6 -52 -6z" />
    <glyph glyph-name="uogonek" unicode="&#x173;" horiz-adv-x="612" 
d="M546 -196q-53 0 -83 28t-30 71q0 54 40 97h-25v73q-75 -85 -190 -85q-91 0 -137.5 53t-46.5 149v295h80v-278q0 -144 132 -144q48 0 93 29t69 68v325h80v-485q-37 -39 -37 -82q0 -29 18.5 -45t49.5 -16q24 0 39 5v-52q-22 -6 -52 -6z" />
    <glyph glyph-name="Wcircumflex" unicode="&#x174;" horiz-adv-x="1055" 
d="M278 -4l-241 704h90l190 -572l179 575h65l180 -575l188 572h88l-240 -704h-72l-177 567l-178 -567h-72zM377 763l111 134h80l112 -134h-77l-75 90l-74 -90h-77z" />
    <glyph glyph-name="wcircumflex" unicode="&#x175;" horiz-adv-x="829" 
d="M209 -3l-173 488h81l131 -368l129 370h66l130 -370l130 368h80l-173 -488h-69l-133 371l-130 -371h-69zM258 577l112 135h81l111 -135h-77l-75 90l-75 -90h-77z" />
    <glyph glyph-name="Ycircumflex" unicode="&#x176;" horiz-adv-x="668" 
d="M293 0v320l-271 380h94l219 -305l219 305h92l-271 -378v-322h-82zM184 763l111 134h80l112 -134h-77l-75 90l-74 -90h-77z" />
    <glyph glyph-name="ycircumflex" unicode="&#x177;" horiz-adv-x="558" 
d="M115 -204q-57 0 -79 14v73q29 -16 67 -16q45 0 75.5 35.5t63.5 115.5l-215 467h88l167 -374l161 374h86l-238 -539q-34 -75 -75.5 -112.5t-100.5 -37.5zM130 577l112 135h81l111 -135h-77l-75 90l-75 -90h-77z" />
    <glyph glyph-name="Ydieresis" unicode="&#x178;" horiz-adv-x="668" 
d="M293 0v320l-271 380h94l219 -305l219 305h92l-271 -378v-322h-82zM187 829q0 21 14 35t35 14q22 0 36 -14t14 -35q0 -22 -14 -36t-36 -14q-21 0 -35 14t-14 36zM388 829q0 21 14.5 35t35.5 14t35 -14t14 -35q0 -22 -14 -36t-35 -14t-35.5 14t-14.5 36z" />
    <glyph glyph-name="Zacute" unicode="&#x179;" horiz-adv-x="642" 
d="M47 0v58l422 568h-398v74h508v-57l-419 -569h435v-74h-548zM267 763l95 134h100l-120 -134h-75z" />
    <glyph glyph-name="zacute" unicode="&#x17a;" horiz-adv-x="506" 
d="M37 0v53l301 363h-280v69h394v-55l-300 -361h316v-69h-431zM188 577l96 135h100l-121 -135h-75z" />
    <glyph glyph-name="Zdotaccent" unicode="&#x17b;" horiz-adv-x="642" 
d="M47 0v58l422 568h-398v74h508v-57l-419 -569h435v-74h-548zM271 828q0 21 14.5 35.5t35.5 14.5q22 0 36 -14.5t14 -35.5q0 -22 -14 -36t-36 -14q-21 0 -35.5 14t-14.5 36z" />
    <glyph glyph-name="zdotaccent" unicode="&#x17c;" horiz-adv-x="506" 
d="M37 0v53l301 363h-280v69h394v-55l-300 -361h316v-69h-431zM203 646q0 22 14.5 36t35.5 14q22 0 36 -14t14 -36q0 -21 -14 -35.5t-36 -14.5q-21 0 -35.5 14.5t-14.5 35.5z" />
    <glyph glyph-name="Zcaron" unicode="&#x17d;" horiz-adv-x="642" 
d="M47 0v58l422 568h-398v74h508v-57l-419 -569h435v-74h-548zM281 763l-111 134h77l75 -90l75 90h76l-111 -134h-81z" />
    <glyph glyph-name="zcaron" unicode="&#x17e;" horiz-adv-x="506" 
d="M37 0v53l301 363h-280v69h394v-55l-300 -361h316v-69h-431zM210 577l-110 135h77l74 -91l76 91h76l-112 -135h-81z" />
    <glyph glyph-name="longs" unicode="&#x17f;" horiz-adv-x="349" 
d="M201 0h-80v416h-95v69h95v77q0 68 36 107t106 39q63 0 104 -19v-72q-44 20 -84 20q-82 0 -82 -90v-547z" />
    <glyph glyph-name="florin" unicode="&#x192;" horiz-adv-x="522" 
d="M26 -204q-52 0 -86 17v71q36 -16 71 -16q110 0 133 141l49 327h-125v69h137l18 111q31 192 194 192q52 0 88 -16v-72q-36 17 -73 17q-55 0 -87 -31.5t-44 -106.5l-15 -94h157v-69h-168l-54 -346q-13 -86 -62 -140t-133 -54z" />
    <glyph glyph-name="uni0218" unicode="&#x218;" horiz-adv-x="627" 
d="M307 -12q-157 0 -260 74v90q40 -35 110.5 -61.5t144.5 -26.5q80 0 132 34t52 92q0 25 -10.5 44.5t-24 32.5t-43 25.5t-51 19.5t-64.5 19q-58 16 -92 28.5t-70.5 35t-53.5 55.5t-17 79q0 80 65 131.5t180 51.5q126 0 219 -58v-83q-103 65 -217 65q-82 0 -123 -31t-41 -78
q0 -13 3 -24.5t10.5 -21t13.5 -16.5t21 -14.5t23 -12t28.5 -11t29 -9t33 -9.5t32.5 -9q43 -13 68.5 -22.5t60.5 -27.5t54.5 -38t34 -51.5t14.5 -69.5q0 -95 -75.5 -149t-186.5 -54zM226 -235l57 180h81l-76 -180h-62z" />
    <glyph glyph-name="uni0219" unicode="&#x219;" horiz-adv-x="510" 
d="M250 -12q-61 0 -116.5 14.5t-84.5 35.5v80q29 -22 83.5 -40.5t114.5 -18.5t94 19t34 54q0 12 -3.5 21t-12 15.5t-17 11.5t-24 9.5t-27 7.5t-31.5 8t-33 8q-86 22 -127.5 53.5t-41.5 94.5t51.5 99.5t145.5 36.5q109 0 177 -43v-77q-80 49 -174 49q-119 0 -119 -67
q0 -39 59 -60q20 -7 85 -22q82 -18 127.5 -51t45.5 -96q0 -66 -57.5 -104t-148.5 -38zM170 -235l57 180h81l-76 -180h-62z" />
    <glyph glyph-name="uni021A" unicode="&#x21a;" horiz-adv-x="632" 
d="M274 0v626h-239v74h562v-74h-241v-626h-82zM217 -235l57 180h81l-76 -180h-62z" />
    <glyph glyph-name="uni021B" unicode="&#x21b;" horiz-adv-x="431" 
d="M277 -12q-69 0 -104 40t-35 108v280h-112v69h112v147h80v-147h166v-69h-166v-257q0 -54 19 -76t63 -22q47 0 78 20v-71q-34 -22 -101 -22zM180 -235l57 180h81l-76 -180h-62z" />
    <glyph glyph-name="circumflex" unicode="&#x2c6;" horiz-adv-x="533" 
d="M115 577l112 135h81l111 -135h-77l-75 90l-75 -90h-77z" />
    <glyph glyph-name="caron" unicode="&#x2c7;" horiz-adv-x="502" 
d="M206 577l-110 135h77l74 -91l76 91h76l-112 -135h-81z" />
    <glyph glyph-name="uni02C9" unicode="&#x2c9;" horiz-adv-x="515" 
d="M92 616v57h331v-57h-331z" />
    <glyph glyph-name="breve" unicode="&#x2d8;" horiz-adv-x="502" 
d="M250 569q-58 0 -99 40.5t-43 102.5h62q1 -36 23.5 -60.5t56.5 -24.5q35 0 57 24t23 61h61q-2 -62 -43 -102.5t-98 -40.5z" />
    <glyph glyph-name="dotaccent" unicode="&#x2d9;" horiz-adv-x="548" 
d="M223 646q0 22 14.5 36t35.5 14q22 0 36 -14t14 -36q0 -21 -14 -35.5t-36 -14.5q-21 0 -35.5 14.5t-14.5 35.5z" />
    <glyph glyph-name="ring" unicode="&#x2da;" horiz-adv-x="540" 
d="M263 743q40 0 68.5 -28.5t28.5 -68.5q0 -39 -28.5 -67.5t-68.5 -28.5t-68.5 28.5t-28.5 67.5q0 40 28.5 68.5t68.5 28.5zM263 592q23 0 39 15.5t16 38.5q0 24 -16 39.5t-39 15.5t-39 -15.5t-16 -39.5q0 -23 16 -38.5t39 -15.5z" />
    <glyph glyph-name="ogonek" unicode="&#x2db;" horiz-adv-x="511" 
d="M307 -190q-53 0 -83 28t-30 71q0 54 40 97h55q-37 -39 -37 -82q0 -29 18.5 -45t49.5 -16q24 0 39 5v-52q-22 -6 -52 -6z" />
    <glyph glyph-name="tilde" unicode="&#x2dc;" horiz-adv-x="518" 
d="M328 588q-29 0 -74 27t-63 27q-35 0 -41 -51h-52q2 50 26 82t64 32q27 0 73.5 -27.5t63.5 -27.5q20 0 28 13t13 38h52q-1 -50 -25 -81.5t-65 -31.5z" />
    <glyph glyph-name="hungarumlaut" unicode="&#x2dd;" horiz-adv-x="580" 
d="M286 577l96 135h99l-119 -135h-76zM107 577l95 135h101l-120 -135h-76z" />
    <glyph glyph-name="acutecomb" unicode="&#x301;" horiz-adv-x="19" 
d="M-323 577l96 135h100l-121 -135h-75z" />
    <glyph glyph-name="uni037E" unicode="&#x37e;" horiz-adv-x="246" 
d="M14 -152l80 260h92l-109 -260h-63zM81 417q0 23 16 39.5t40 16.5q23 0 39 -16.5t16 -39.5t-16 -39t-39 -16q-24 0 -40 16t-16 39z" />
    <glyph glyph-name="uni0394" unicode="&#x394;" horiz-adv-x="755" 
d="M28 0l311 700h77l311 -700h-699zM143 74h467l-233 524z" />
    <glyph glyph-name="uni03A9" unicode="&#x3a9;" horiz-adv-x="803" 
d="M99 0v74h116q-52 52 -85.5 130t-33.5 165q0 148 84 245.5t221 97.5q138 0 222 -97.5t84 -245.5q0 -88 -34 -166.5t-86 -128.5h116v-74h-214v62q58 49 96.5 126t38.5 169q0 124 -62.5 201.5t-160.5 77.5q-97 0 -160 -78t-63 -201q0 -92 38.5 -169t96.5 -126v-62h-214z" />
    <glyph glyph-name="uni03BC" unicode="&#x3bc;" horiz-adv-x="620" 
d="M448 485h80v-485h-80v73q-75 -85 -190 -85q-63 0 -104 26v-214h-80v685h80v-278q0 -144 132 -144q48 0 93 29t69 68v325z" />
    <glyph glyph-name="pi" unicode="&#x3c0;" horiz-adv-x="687" 
d="M563 -6q-112 0 -112 130v292h-239v-416h-79v416h-94v69h589v-69h-98v-269q0 -44 13.5 -63t43.5 -19q24 0 40 10v-67q-25 -14 -64 -14z" />
    <glyph glyph-name="uni0401" unicode="&#x401;" horiz-adv-x="640" 
d="M97 0v700h483v-74h-402v-214h329v-74h-329v-264h417v-74h-498zM195 829q0 21 14 35t35 14q22 0 36 -14t14 -35q0 -22 -14 -36t-36 -14q-21 0 -35 14t-14 36zM396 829q0 21 14.5 35t35.5 14t35 -14t14 -35q0 -22 -14 -36t-35 -14t-35.5 14t-14.5 36z" />
    <glyph glyph-name="uni0402" unicode="&#x402;" horiz-adv-x="759" 
d="M493 -12q-65 0 -104 16v76q46 -16 94 -16q69 0 109.5 37t40.5 99q0 60 -48 102t-131 42q-102 0 -187 -43v-301h-81v626h-151v74h490v-74h-258v-247q89 40 198 40q111 0 179.5 -61.5t68.5 -158.5q0 -92 -59.5 -151.5t-160.5 -59.5z" />
    <glyph glyph-name="uni0403" unicode="&#x403;" horiz-adv-x="607" 
d="M97 0v700h473v-74h-392v-626h-81zM271 763l95 134h100l-120 -134h-75z" />
    <glyph glyph-name="uni0404" unicode="&#x404;" horiz-adv-x="686" 
d="M428 -12q-153 0 -256.5 104t-103.5 258t103.5 258t256.5 104q109 0 193 -51v-83q-90 58 -195 58t-180 -67.5t-87 -173.5h319v-74h-322q6 -111 84.5 -184t187.5 -73q126 0 208 69v-85q-84 -60 -208 -60z" />
    <glyph glyph-name="uni0405" unicode="&#x405;" horiz-adv-x="626" 
d="M307 -12q-157 0 -260 74v90q40 -35 110.5 -61.5t144.5 -26.5q80 0 132 34t52 92q0 25 -10.5 44.5t-24 32.5t-43 25.5t-51 19.5t-64.5 19q-58 16 -92 28.5t-70.5 35t-53.5 55.5t-17 79q0 80 65 131.5t180 51.5q126 0 219 -58v-83q-103 65 -217 65q-82 0 -123 -31t-41 -78
q0 -13 3 -24.5t10.5 -21t13.5 -16.5t21 -14.5t23 -12t28.5 -11t29 -9t33 -9.5t32.5 -9q43 -13 68.5 -22.5t60.5 -27.5t54.5 -38t34 -51.5t14.5 -69.5q0 -95 -75.5 -149t-186.5 -54z" />
    <glyph glyph-name="uni0406" unicode="&#x406;" horiz-adv-x="284" 
d="M102 0v700h81v-700h-81z" />
    <glyph glyph-name="uni0407" unicode="&#x407;" horiz-adv-x="283" 
d="M101 0v700h81v-700h-81zM-8 829q0 21 14 35t35 14q22 0 36 -14t14 -35q0 -22 -14 -36t-36 -14q-21 0 -35 14t-14 36zM193 829q0 21 14.5 35t35.5 14t35 -14t14 -35q0 -22 -14 -36t-35 -14t-35.5 14t-14.5 36z" />
    <glyph glyph-name="uni0408" unicode="&#x408;" horiz-adv-x="507" 
d="M196 -12q-99 0 -161 44v84q58 -52 146 -52q81 0 119.5 39.5t38.5 125.5v471h81v-485q0 -115 -60 -171t-164 -56z" />
    <glyph glyph-name="uni0409" unicode="&#x409;" horiz-adv-x="1111" 
d="M623 74h184q85 0 131 38t46 109q0 72 -46 110t-131 38h-184v-295zM189 700h434v-257h189q118 0 185.5 -61.5t67.5 -160.5q0 -100 -67 -160.5t-186 -60.5h-271v626h-273l-3 -158q-2 -120 -12.5 -201t-34.5 -144.5t-67.5 -93.5t-107.5 -30q-17 0 -31 2v74q9 -3 30 -3
q30 0 53 14t38.5 44.5t25.5 66.5t16 92.5t8.5 109.5t3.5 129z" />
    <glyph glyph-name="uni040A" unicode="&#x40a;" horiz-adv-x="1133" 
d="M97 0v700h81v-258h386v258h81v-258h189q118 0 185.5 -61.5t67.5 -160.5t-67 -159.5t-186 -60.5h-270v368h-386v-368h-81zM645 74h185q85 0 130.5 38t45.5 108q0 72 -45.5 110t-130.5 38h-185v-294z" />
    <glyph glyph-name="uni040B" unicode="&#x40b;" horiz-adv-x="781" 
d="M186 0v626h-151v74h490v-74h-258v-242q105 35 199 35q120 0 183.5 -50.5t63.5 -165.5v-203h-81v185q0 88 -43 123.5t-139 35.5q-92 0 -183 -39v-305h-81z" />
    <glyph glyph-name="uni040C" unicode="&#x40c;" horiz-adv-x="665" 
d="M178 700v-300l316 300h107l-340 -320l393 -380h-112l-364 351v-351h-81v700h81zM274 763l95 134h100l-120 -134h-75z" />
    <glyph glyph-name="uni040E" unicode="&#x40e;" horiz-adv-x="649" 
d="M178 -12q-56 0 -90 14v76q32 -14 77 -14q25 0 44.5 8.5t37 31t27.5 39.5t30 55l-280 502h90l231 -417l192 417h86l-258 -552q-42 -88 -87.5 -124t-99.5 -36zM324 747q-75 0 -121.5 42t-47.5 113h70q0 -42 26 -67t73 -25q45 0 71 25t27 67h70q0 -70 -48 -112.5t-120 -42.5
z" />
    <glyph glyph-name="uni040F" unicode="&#x40f;" horiz-adv-x="741" 
d="M331 -155v155h-234v700h81v-626h385v626h82v-700h-237v-155h-77z" />
    <glyph glyph-name="uni0410" unicode="&#x410;" horiz-adv-x="755" 
d="M28 0l311 704h77l311 -704h-86l-85 189h-360l-83 -189h-85zM224 261h306l-153 341z" />
    <glyph glyph-name="uni0411" unicode="&#x411;" horiz-adv-x="696" 
d="M97 0v700h481v-74h-400v-188h207q117 0 183 -60.5t66 -158.5q0 -99 -66 -159t-183 -60h-288zM178 74h199q85 0 130.5 37.5t45.5 107.5t-45.5 107.5t-130.5 37.5h-199v-290z" />
    <glyph glyph-name="uni0412" unicode="&#x412;" horiz-adv-x="725" 
d="M97 0v700h306q94 0 148 -45t54 -125q0 -56 -25 -94t-68 -54q70 -11 111 -60.5t41 -126.5q0 -88 -62 -141.5t-169 -53.5h-336zM178 74h240q76 0 117.5 34t41.5 98q0 63 -41.5 96t-117.5 33h-240v-261zM178 407h211q135 0 135 108q0 54 -34.5 82.5t-100.5 28.5h-211v-219z
" />
    <glyph glyph-name="uni0413" unicode="&#x413;" horiz-adv-x="607" 
d="M97 0v700h473v-74h-392v-626h-81z" />
    <glyph glyph-name="uni0414" unicode="&#x414;" horiz-adv-x="777" 
d="M16 -155v229h67q62 89 90.5 208.5t28.5 330.5v87h438v-626h105v-229h-76v155h-577v-155h-76zM173 74h386v552h-278q0 -201 -23.5 -331.5t-84.5 -220.5z" />
    <glyph glyph-name="uni0415" unicode="&#x415;" horiz-adv-x="640" 
d="M97 0v700h483v-74h-402v-214h329v-74h-329v-264h417v-74h-498z" />
    <glyph glyph-name="uni0416" unicode="&#x416;" horiz-adv-x="992" 
d="M167 700l287 -309v309h81v-310l289 310h103l-310 -332l350 -368h-108l-324 339v-339h-81v338l-322 -338h-107l349 368l-309 332h102z" />
    <glyph glyph-name="uni0417" unicode="&#x417;" horiz-adv-x="626" 
d="M282 -12q-140 0 -238 55v82q103 -61 226 -61q99 0 155.5 38.5t56.5 104.5q0 60 -51.5 96.5t-138.5 36.5h-87v74h96q72 0 112 29.5t40 82.5t-46 81.5t-121 28.5q-106 0 -210 -49v76q106 49 214 49q107 0 175 -49.5t68 -132.5q0 -60 -35.5 -98t-77.5 -51q57 -18 101 -62.5
t44 -116.5q0 -94 -75.5 -154t-207.5 -60z" />
    <glyph glyph-name="uni0418" unicode="&#x418;" horiz-adv-x="769" 
d="M97 0v700h80v-564l425 564h71v-700h-80v566l-428 -566h-68z" />
    <glyph glyph-name="uni0419" unicode="&#x419;" horiz-adv-x="769" 
d="M97 0v700h80v-564l425 564h71v-700h-80v566l-428 -566h-68zM384 747q-75 0 -121.5 42t-47.5 113h70q0 -42 26 -67t73 -25q45 0 71 25t27 67h70q0 -70 -48 -112.5t-120 -42.5z" />
    <glyph glyph-name="uni041A" unicode="&#x41a;" horiz-adv-x="665" 
d="M178 700v-300l316 300h107l-340 -320l393 -380h-112l-364 351v-351h-81v700h81z" />
    <glyph glyph-name="uni041B" unicode="&#x41b;" horiz-adv-x="728" 
d="M551 626h-283l-3 -158q-2 -120 -12.5 -201t-34.5 -144.5t-67.5 -93.5t-107.5 -30q-17 0 -31 2v74q9 -3 30 -3q30 0 53 14t38.5 44.5t25.5 66.5t16 92.5t8.5 109.5t3.5 129l2 172h443v-700h-81v626z" />
    <glyph glyph-name="uni041C" unicode="&#x41c;" horiz-adv-x="848" 
d="M97 0v700h80l248 -334l248 334h79v-700h-80v577l-222 -298h-49l-224 298v-577h-80z" />
    <glyph glyph-name="uni041D" unicode="&#x41d;" horiz-adv-x="761" 
d="M97 0v700h81v-288h406v288h81v-700h-81v338h-406v-338h-81z" />
    <glyph glyph-name="uni041E" unicode="&#x41e;" horiz-adv-x="844" 
d="M421 712q151 0 252.5 -103.5t101.5 -258.5t-101.5 -258.5t-252.5 -103.5t-252 103.5t-101 258.5t101 258.5t252 103.5zM421 64q115 0 193 82t78 204t-78 204t-193 82q-114 0 -192 -82t-78 -204t78 -204t192 -82z" />
    <glyph glyph-name="uni041F" unicode="&#x41f;" horiz-adv-x="746" 
d="M97 0v700h553v-700h-82v626h-390v-626h-81z" />
    <glyph glyph-name="uni0420" unicode="&#x420;" horiz-adv-x="664" 
d="M97 0v700h295q106 0 166 -54t60 -142q0 -90 -60 -144.5t-166 -54.5h-214v-305h-81zM178 379h208q72 0 111.5 31.5t39.5 91.5t-39.5 92t-111.5 32h-208v-247z" />
    <glyph glyph-name="uni0421" unicode="&#x421;" horiz-adv-x="689" 
d="M429 -12q-154 0 -257.5 102t-103.5 260q0 157 103 259.5t258 102.5q113 0 195 -51v-83q-88 58 -194 58q-118 0 -198.5 -81.5t-80.5 -204.5q0 -125 80.5 -205.5t201.5 -80.5q120 0 206 68v-83q-85 -61 -210 -61z" />
    <glyph glyph-name="uni0422" unicode="&#x422;" horiz-adv-x="632" 
d="M274 0v626h-239v74h562v-74h-241v-626h-82z" />
    <glyph glyph-name="uni0423" unicode="&#x423;" horiz-adv-x="649" 
d="M178 -12q-56 0 -90 14v76q32 -14 77 -14q25 0 44.5 8.5t37 31t27.5 39.5t30 55l-280 502h90l231 -417l192 417h86l-258 -552q-42 -88 -87.5 -124t-99.5 -36z" />
    <glyph glyph-name="uni0424" unicode="&#x424;" horiz-adv-x="913" 
d="M415 -22v73q-87 1 -155 26.5t-109 68.5t-62 95.5t-21 110.5q0 125 88.5 212t258.5 91v64h81v-64q171 -4 259.5 -90.5t88.5 -211.5q0 -124 -89 -212t-259 -90v-73h-81zM415 124v458q-132 0 -197.5 -67t-65.5 -162q0 -96 65 -161.5t198 -67.5zM496 582v-458q135 2 200 67.5
t65 161.5t-65.5 162.5t-199.5 66.5z" />
    <glyph glyph-name="uni0425" unicode="&#x425;" horiz-adv-x="710" 
d="M27 0l280 380l-235 320h96l188 -254l189 254h94l-235 -319l280 -381h-96l-233 315l-233 -315h-95z" />
    <glyph glyph-name="uni0426" unicode="&#x426;" horiz-adv-x="781" 
d="M674 -155v155h-577v700h81v-626h385v626h82v-626h104v-229h-75z" />
    <glyph glyph-name="uni0427" unicode="&#x427;" horiz-adv-x="691" 
d="M514 0v311q-94 -36 -199 -36q-120 0 -183.5 50.5t-63.5 165.5v209h82v-189q0 -89 42.5 -124.5t138.5 -35.5q92 0 183 39v310h81v-700h-81z" />
    <glyph glyph-name="uni0428" unicode="&#x428;" horiz-adv-x="1022" 
d="M926 700v-700h-829v700h81v-626h293v626h81v-626h293v626h81z" />
    <glyph glyph-name="uni0429" unicode="&#x429;" horiz-adv-x="1063" 
d="M955 -155v155h-858v700h81v-626h293v626h81v-626h293v626h81v-626h105v-229h-76z" />
    <glyph glyph-name="uni042A" unicode="&#x42a;" horiz-adv-x="792" 
d="M208 0v626h-191v74h272v-257h204q118 0 185.5 -61.5t67.5 -160.5q0 -100 -67 -160.5t-186 -60.5h-285zM289 74h198q85 0 131 38t46 109q0 72 -46 110t-131 38h-198v-295z" />
    <glyph glyph-name="uni042B" unicode="&#x42b;" horiz-adv-x="891" 
d="M714 0v700h81v-700h-81zM97 0v700h81v-257h178q118 0 186 -61.5t68 -160.5q0 -100 -67.5 -160.5t-186.5 -60.5h-259zM178 74h173q85 0 131 38t46 109q0 72 -46 110t-131 38h-173v-295z" />
    <glyph glyph-name="uni042C" unicode="&#x42c;" horiz-adv-x="680" 
d="M97 0v700h81v-257h203q118 0 185.5 -61.5t67.5 -160.5q0 -100 -67 -160.5t-186 -60.5h-284zM178 74h198q85 0 131 38t46 109q0 72 -46 110t-131 38h-198v-295z" />
    <glyph glyph-name="uni042D" unicode="&#x42d;" horiz-adv-x="687" 
d="M258 -12q-124 0 -208 60v85q82 -69 208 -69q109 0 187.5 73t84.5 184h-322v74h319q-12 106 -87 173.5t-180 67.5t-195 -58v83q84 51 193 51q153 0 256.5 -104t103.5 -258t-103.5 -258t-256.5 -104z" />
    <glyph glyph-name="uni042E" unicode="&#x42e;" horiz-adv-x="1043" 
d="M645 -12q-134 0 -227 94.5t-101 237.5h-139v-320h-81v700h81v-306h140q14 137 105.5 227.5t221.5 90.5q142 0 235.5 -104t93.5 -258t-93.5 -258t-235.5 -104zM645 64q105 0 176 79t71 207t-71 207t-176 79t-176 -79t-71 -207t71 -207t176 -79z" />
    <glyph glyph-name="uni042F" unicode="&#x42f;" horiz-adv-x="736" 
d="M40 0l226 319q-79 15 -121.5 64.5t-42.5 124.5q0 87 59.5 139.5t163.5 52.5h315v-700h-81v311h-204l-219 -311h-96zM330 384h229v242h-229q-70 0 -108.5 -31.5t-38.5 -89.5q0 -59 38.5 -90t108.5 -31z" />
    <glyph glyph-name="uni0430" unicode="&#x430;" horiz-adv-x="595" 
d="M248 59q51 0 94.5 22t68.5 54v66q-68 45 -152 45q-64 0 -100.5 -24.5t-36.5 -68.5q0 -47 36 -70.5t90 -23.5zM226 -12q-77 0 -130.5 43t-53.5 118t56.5 117.5t141.5 42.5q99 0 171 -45v44q0 118 -156 118q-85 0 -158 -48v75q73 44 175 44q98 0 158 -46t60 -135v-191
q0 -63 45 -63q18 0 28 7v-62q-18 -12 -51 -12q-77 0 -93 76q-74 -83 -193 -83z" />
    <glyph glyph-name="uni0431" unicode="&#x431;" horiz-adv-x="612" 
d="M320 -12q-124 0 -193.5 86t-69.5 234q0 46 5 84.5t16 70.5t24 58t35 47t42 37.5t52 30.5t59 24t68 20t73 16.5t81 15.5v-74q-161 -30 -210 -48q-112 -39 -148 -126q-20 -46 -23 -111q30 51 84.5 80t126.5 29q94 0 158.5 -64t64.5 -162q0 -109 -70.5 -178.5t-174.5 -69.5z
M320 59q70 0 117.5 47.5t47.5 123.5q0 73 -46.5 117t-114.5 44q-61 0 -113 -37t-74 -86q5 -99 52 -154t131 -55z" />
    <glyph glyph-name="uni0432" unicode="&#x432;" horiz-adv-x="578" 
d="M83 0v485h257q72 0 110 -34t38 -90q0 -78 -61 -106q93 -28 93 -124q0 -61 -42 -96t-121 -35h-274zM163 68h178q99 0 99 73q0 75 -99 75h-178v-148zM163 281h156q43 0 67 17.5t24 50.5q0 68 -91 68h-156v-136z" />
    <glyph glyph-name="uni0433" unicode="&#x433;" horiz-adv-x="484" 
d="M83 0v485h367v-69h-287v-416h-80z" />
    <glyph glyph-name="uni0434" unicode="&#x434;" horiz-adv-x="651" 
d="M22 -141v210h61q44 59 62.5 155t18.5 261h365v-416h89v-210h-76v141h-444v-141h-76zM170 69h280v347h-213q0 -236 -67 -347z" />
    <glyph glyph-name="uni0435" unicode="&#x435;" horiz-adv-x="571" 
d="M315 -12q-113 0 -190 71.5t-77 182.5q0 110 68.5 182.5t178.5 72.5q57 0 102.5 -23.5t71.5 -61.5t39.5 -81t13.5 -87v-22h-393q8 -75 62.5 -119t139.5 -44q84 0 156 45v-70q-61 -46 -172 -46zM130 286h312q-3 53 -40.5 96.5t-110.5 43.5q-70 0 -113.5 -41.5t-47.5 -98.5z
" />
    <glyph glyph-name="uni0436" unicode="&#x436;" horiz-adv-x="777" 
d="M151 485l197 -204v204h80v-204l197 204h98l-222 -225l247 -260h-103l-217 231v-231h-80v231l-218 -231h-101l246 260l-222 225h98z" />
    <glyph glyph-name="uni0437" unicode="&#x437;" horiz-adv-x="525" 
d="M240 -12q-107 0 -180 33v77q75 -39 169 -39q155 0 155 85q0 76 -126 76h-86v68h86q56 0 82.5 18.5t26.5 48.5q0 71 -133 71q-81 0 -159 -33v72q73 32 175 32q83 0 140 -35.5t57 -92.5q0 -47 -21 -70t-56 -39q97 -30 97 -122q0 -67 -62 -108.5t-165 -41.5z" />
    <glyph glyph-name="uni0438" unicode="&#x438;" horiz-adv-x="621" 
d="M83 0v485h80v-369l300 369h74v-485h-80v368l-300 -368h-74z" />
    <glyph glyph-name="uni0439" unicode="&#x439;" horiz-adv-x="621" 
d="M83 0v485h80v-369l300 369h74v-485h-80v368l-300 -368h-74zM310 563q-73 0 -119 42t-46 113h69q0 -42 25.5 -67t69.5 -25t69.5 25t26.5 67h69q0 -70 -46.5 -112.5t-117.5 -42.5z" />
    <glyph glyph-name="uni043A" unicode="&#x43a;" horiz-adv-x="547" 
d="M163 485v-197l222 197h106l-250 -219l286 -266h-112l-252 235v-235h-80v485h80z" />
    <glyph glyph-name="uni043B" unicode="&#x43b;" horiz-adv-x="604" 
d="M21 0v72q5 -2 20 -2q30 0 51.5 19.5t32.5 56.5t16.5 80.5t6.5 102.5l4 156h368v-485h-79v416h-213l-3 -89q-1 -45 -4 -78t-9.5 -74.5t-19 -70t-31.5 -54t-48.5 -38.5t-67.5 -13q-16 0 -24 1z" />
    <glyph glyph-name="uni043C" unicode="&#x43c;" horiz-adv-x="699" 
d="M83 0v485h78l188 -220l189 220h77v-485h-77v376l-174 -203h-31l-173 203v-376h-77z" />
    <glyph glyph-name="uni043D" unicode="&#x43d;" horiz-adv-x="613" 
d="M83 0v485h80v-201h287v201h79v-485h-79v213h-287v-213h-80z" />
    <glyph glyph-name="uni043E" unicode="&#x43e;" horiz-adv-x="621" 
d="M311 497q115 0 189 -75t74 -180t-74 -179.5t-189 -74.5t-189 74.5t-74 179.5t74 180t189 75zM311 59q78 0 130 52.5t52 130.5t-52 131t-130 53t-130 -53t-52 -131t52 -130.5t130 -52.5z" />
    <glyph glyph-name="uni043F" unicode="&#x43f;" horiz-adv-x="606" 
d="M83 0v485h439v-485h-79v416h-280v-416h-80z" />
    <glyph glyph-name="uni0440" unicode="&#x440;" horiz-adv-x="636" 
d="M163 -200h-80v685h80v-75q67 87 184 87q106 0 174 -74.5t68 -179.5q0 -106 -68 -180.5t-174 -74.5q-119 0 -184 87v-275zM163 321v-158q21 -46 65 -75t100 -29q78 0 129 53t51 131t-51 130.5t-129 52.5q-53 0 -98.5 -30t-66.5 -75z" />
    <glyph glyph-name="uni0441" unicode="&#x441;" horiz-adv-x="523" 
d="M307 -12q-110 0 -184.5 73t-74.5 182q0 110 74.5 182t185.5 72q84 0 146 -35v-72q-64 36 -135 36q-80 0 -135 -52t-55 -132q0 -79 55 -131t135 -52q82 0 144 41v-71q-68 -41 -156 -41z" />
    <glyph glyph-name="uni0442" unicode="&#x442;" horiz-adv-x="475" 
d="M198 0v416h-173v69h425v-69h-173v-416h-79z" />
    <glyph glyph-name="uni0443" unicode="&#x443;" horiz-adv-x="558" 
d="M115 -204q-57 0 -79 14v73q29 -16 67 -16q45 0 75.5 35.5t63.5 115.5l-215 467h88l167 -374l161 374h86l-238 -539q-34 -75 -75.5 -112.5t-100.5 -37.5z" />
    <glyph glyph-name="uni0444" unicode="&#x444;" horiz-adv-x="730" 
d="M326 700h79v-207q131 -6 204.5 -73t73.5 -178t-74.5 -178.5t-203.5 -71.5v-192h-79v192q-128 2 -203 71t-75 179t74.5 177.5t203.5 73.5v207zM605 242q0 85 -56.5 133.5t-143.5 48.5v-363q87 0 143.5 48.5t56.5 132.5zM126 242q0 -84 56.5 -132.5t143.5 -48.5v363
q-87 0 -143.5 -48.5t-56.5 -133.5z" />
    <glyph glyph-name="uni0445" unicode="&#x445;" horiz-adv-x="564" 
d="M31 0l202 255l-178 230h93l133 -168l134 168h92l-180 -228l202 -257h-93l-156 197l-158 -197h-91z" />
    <glyph glyph-name="uni0446" unicode="&#x446;" horiz-adv-x="641" 
d="M532 -141v141h-449v485h80v-416h278v416h79v-416h88v-210h-76z" />
    <glyph glyph-name="uni0447" unicode="&#x447;" horiz-adv-x="565" 
d="M402 0v190q-69 -29 -145 -29q-100 0 -149 46.5t-49 155.5v122h80v-115q0 -77 30 -107.5t103 -30.5q70 0 130 31v222h79v-485h-79z" />
    <glyph glyph-name="uni0448" unicode="&#x448;" horiz-adv-x="831" 
d="M83 0v485h80v-416h212v416h79v-416h214v416h79v-485h-664z" />
    <glyph glyph-name="uni0449" unicode="&#x449;" horiz-adv-x="868" 
d="M762 -141v141h-679v485h80v-416h212v416h79v-416h214v416h79v-416h88v-210h-73z" />
    <glyph glyph-name="uni044A" unicode="&#x44a;" horiz-adv-x="640" 
d="M163 0v416h-147v69h226v-159h164q87 0 136.5 -44t49.5 -119q0 -72 -48 -117.5t-135 -45.5h-246zM242 69h153q56 0 86.5 24t30.5 69q0 95 -117 95h-153v-188z" />
    <glyph glyph-name="uni044B" unicode="&#x44b;" horiz-adv-x="729" 
d="M566 0v485h79v-485h-79zM83 0v485h80v-159h139q87 0 136.5 -44t49.5 -119q0 -72 -48 -117.5t-135 -45.5h-222zM163 69h128q56 0 86.5 24t30.5 69q0 95 -117 95h-128v-188z" />
    <glyph glyph-name="uni044C" unicode="&#x44c;" horiz-adv-x="561" 
d="M83 0v485h80v-159h163q87 0 137 -44t50 -119q0 -72 -48.5 -117.5t-135.5 -45.5h-246zM163 69h153q55 0 86 24t31 69q0 47 -30.5 71t-86.5 24h-153v-188z" />
    <glyph glyph-name="uni044D" unicode="&#x44d;" horiz-adv-x="518" 
d="M213 -12q-87 0 -154 40v73q63 -42 144 -42q74 0 127.5 42t59.5 109h-228v68h228q-11 68 -61.5 108t-125.5 40q-69 0 -134 -35v72q58 34 144 34q111 0 184.5 -72t73.5 -182t-73.5 -182.5t-184.5 -72.5z" />
    <glyph glyph-name="uni044E" unicode="&#x44e;" horiz-adv-x="807" 
d="M516 -12q-96 0 -163.5 62.5t-75.5 158.5h-114v-209h-80v485h80v-205h116q8 93 75.5 155t161.5 62q106 0 175 -73t69 -182q0 -108 -69 -181t-175 -73zM516 59q73 0 119.5 52.5t46.5 130.5q0 79 -46.5 131.5t-119.5 52.5q-72 0 -118.5 -52.5t-46.5 -131.5
q0 -78 46.5 -130.5t118.5 -52.5z" />
    <glyph glyph-name="uni044F" unicode="&#x44f;" horiz-adv-x="578" 
d="M45 0l143 193q-120 23 -120 143q0 65 45 107t131 42h250v-485h-79v178h-148l-132 -178h-90zM255 246h160v171h-160q-51 0 -78.5 -22t-27.5 -64q0 -85 106 -85z" />
    <glyph glyph-name="uni0451" unicode="&#x451;" horiz-adv-x="571" 
d="M315 -12q-113 0 -190 71.5t-77 182.5q0 110 68.5 182.5t178.5 72.5q57 0 102.5 -23.5t71.5 -61.5t39.5 -81t13.5 -87v-22h-393q8 -75 62.5 -119t139.5 -44q84 0 156 45v-70q-61 -46 -172 -46zM130 286h312q-3 53 -40.5 96.5t-110.5 43.5q-70 0 -113.5 -41.5t-47.5 -98.5z
M141 629q0 22 14 36t36 14q21 0 35 -14t14 -36q0 -21 -14 -35t-35 -14q-22 0 -36 14t-14 35zM342 629q0 22 14.5 36t35.5 14t35 -14t14 -36q0 -21 -14 -35t-35 -14t-35.5 14t-14.5 35z" />
    <glyph glyph-name="uni0452" unicode="&#x452;" horiz-adv-x="645" 
d="M197 0h-79v552h-102v69h102v79h79v-79h145v-69h-145v-199q75 85 190 85q91 0 137.5 -53t46.5 -149v-270q0 -78 -35.5 -124t-109.5 -46q-58 0 -88 18v73q35 -20 70 -20q45 0 64.5 26t19.5 82v243q0 82 -39.5 113.5t-93.5 31.5q-47 0 -93 -29t-69 -68v-266z" />
    <glyph glyph-name="uni0453" unicode="&#x453;" horiz-adv-x="484" 
d="M197 577l96 135h100l-121 -135h-75zM83 0v485h367v-69h-287v-416h-80z" />
    <glyph glyph-name="uni0454" unicode="&#x454;" horiz-adv-x="520" 
d="M306 -12q-111 0 -184.5 72.5t-73.5 182.5t73.5 182t184.5 72q86 0 144 -34v-72q-65 35 -134 35q-75 0 -125.5 -40t-61.5 -108h228v-68h-228q6 -67 59.5 -109t127.5 -42q81 0 144 42v-73q-67 -40 -154 -40z" />
    <glyph glyph-name="uni0455" unicode="&#x455;" horiz-adv-x="494" 
d="M245 -12q-61 0 -116.5 14.5t-84.5 35.5v80q29 -22 83.5 -40.5t114.5 -18.5t94 19t34 54q0 12 -3.5 21t-12 15.5t-17 11.5t-24 9.5t-27 7.5t-31.5 8t-33 8q-86 22 -127.5 53.5t-41.5 94.5t51.5 99.5t145.5 36.5q109 0 177 -43v-77q-80 49 -174 49q-119 0 -119 -67
q0 -39 59 -60q20 -7 85 -22q82 -18 127.5 -51t45.5 -96q0 -66 -57.5 -104t-148.5 -38z" />
    <glyph glyph-name="uni0456" unicode="&#x456;" horiz-adv-x="267" 
d="M94 0v485h79v-485h-79zM80 649q0 23 15.5 38.5t38.5 15.5t38.5 -15.5t15.5 -38.5t-15.5 -38.5t-38.5 -15.5t-38.5 15.5t-15.5 38.5z" />
    <glyph glyph-name="uni0457" unicode="&#x457;" horiz-adv-x="263" 
d="M-18 646q0 22 14 36t36 14q21 0 35 -14t14 -36q0 -21 -14 -35t-35 -14q-22 0 -36 14t-14 35zM183 646q0 22 14.5 36t35.5 14t35 -14t14 -36q0 -21 -14 -35t-35 -14t-35.5 14t-14.5 35zM91 0v485h80v-485h-80z" />
    <glyph glyph-name="uni0458" unicode="&#x458;" horiz-adv-x="269" 
d="M27 -204q-53 0 -88 18v72q33 -19 71 -19q84 0 84 95v523h79v-534q0 -79 -40.5 -117t-105.5 -38zM80 649q0 23 15 38.5t38 15.5t39 -15.5t16 -38.5t-16 -38.5t-39 -15.5t-38 15.5t-15 38.5z" />
    <glyph glyph-name="uni0459" unicode="&#x459;" horiz-adv-x="900" 
d="M434 0v416h-206l-3 -89q-1 -45 -4 -78t-9.5 -74.5t-19 -70t-31.5 -54t-48.5 -38.5t-67.5 -13q-16 0 -24 1v72q5 -2 20 -2q31 0 52 19t32 57t16 80t7 103l4 156h361v-159h153q87 0 136.5 -44t49.5 -119q0 -72 -48 -117.5t-135 -45.5h-235zM513 69h142q56 0 86.5 24
t30.5 69q0 95 -117 95h-142v-188z" />
    <glyph glyph-name="uni045A" unicode="&#x45a;" horiz-adv-x="895" 
d="M83 0v485h80v-184h274v184h79v-175h149q86 0 134 -42t48 -114q0 -68 -47 -111t-132 -43h-231v232h-274v-232h-80zM516 69h139q112 0 112 86t-112 86h-139v-172z" />
    <glyph glyph-name="uni045B" unicode="&#x45b;" horiz-adv-x="642" 
d="M194 0h-80v553h-102v68h102v79h80v-79h144v-68h-144v-200q29 35 79 60t111 25q91 0 137.5 -53t46.5 -149v-236h-80v218q0 44 -12.5 74.5t-33.5 44.5t-41.5 20t-44.5 6q-47 0 -94 -29.5t-68 -67.5v-266z" />
    <glyph glyph-name="uni045C" unicode="&#x45c;" horiz-adv-x="547" 
d="M225 577l96 135h100l-121 -135h-75zM163 485v-197l222 197h106l-250 -219l286 -266h-112l-252 235v-235h-80v485h80z" />
    <glyph glyph-name="uni045E" unicode="&#x45e;" horiz-adv-x="558" 
d="M115 -204q-57 0 -79 14v73q29 -16 67 -16q45 0 75.5 35.5t63.5 115.5l-215 467h88l167 -374l161 374h86l-238 -539q-34 -75 -75.5 -112.5t-100.5 -37.5zM282 563q-73 0 -119 42t-46 113h69q0 -42 25.5 -67t69.5 -25t69.5 25t26.5 67h69q0 -70 -46.5 -112.5t-117.5 -42.5z
" />
    <glyph glyph-name="uni045F" unicode="&#x45f;" horiz-adv-x="604" 
d="M263 -141v141h-180v485h80v-416h278v416h79v-485h-180v-141h-77z" />
    <glyph glyph-name="uni0490" unicode="&#x490;" horiz-adv-x="602" 
d="M97 0v700h394v144h74v-218h-387v-626h-81z" />
    <glyph glyph-name="uni0491" unicode="&#x491;" horiz-adv-x="484" 
d="M83 0v485h293v130h74v-199h-287v-416h-80z" />
    <glyph glyph-name="uni0492" unicode="&#x492;" horiz-adv-x="657" 
d="M37 318v71h110v311h473v-74h-392v-237h258v-71h-258v-318h-81v318h-110z" />
    <glyph glyph-name="uni0493" unicode="&#x493;" horiz-adv-x="512" 
d="M20 200v60h87v225h367v-69h-287v-156h192v-60h-192v-200h-80v200h-87z" />
    <glyph glyph-name="uni049A" unicode="&#x49a;" horiz-adv-x="686" 
d="M542 0l-364 351v-351h-81v700h81v-300l316 300h107l-340 -320l316 -306h77v-229h-75v155h-37z" />
    <glyph glyph-name="uni049B" unicode="&#x49b;" horiz-adv-x="547" 
d="M415 0l-252 235v-235h-80v485h80v-197l222 197h106l-250 -219l212 -197h74v-210h-76v141h-36z" />
    <glyph glyph-name="uni04A2" unicode="&#x4a2;" horiz-adv-x="801" 
d="M97 0v700h81v-288h406v288h81v-626h104v-229h-75v155h-110v338h-406v-338h-81z" />
    <glyph glyph-name="uni04A3" unicode="&#x4a3;" horiz-adv-x="650" 
d="M83 0v485h80v-201h287v201h79v-416h88v-210h-76v141h-91v213h-287v-213h-80z" />
    <glyph glyph-name="uni04AE" unicode="&#x4ae;" horiz-adv-x="668" 
d="M293 0v320l-271 380h94l219 -305l219 305h92l-271 -378v-322h-82z" />
    <glyph glyph-name="uni04AF" unicode="&#x4af;" horiz-adv-x="569" 
d="M542 485l-218 -501v-184h-80v184l-218 501h89l171 -403l171 403h85z" />
    <glyph glyph-name="uni04B0" unicode="&#x4b0;" horiz-adv-x="668" 
d="M117 338h163l-258 362h94l219 -305l219 305h92l-260 -362h166v-71h-177v-267h-82v267h-176v71z" />
    <glyph glyph-name="uni04B1" unicode="&#x4b1;" horiz-adv-x="569" 
d="M97 -34v60h129l-200 459h89l171 -403l171 403h85l-200 -459h131v-60h-149v-166h-80v166h-147z" />
    <glyph glyph-name="uni04BA" unicode="&#x4ba;" horiz-adv-x="692" 
d="M97 0v700h81v-316q105 35 199 35q120 0 183.5 -50.5t63.5 -165.5v-203h-81v185q0 88 -43 123.5t-139 35.5q-92 0 -183 -39v-305h-81z" />
    <glyph glyph-name="uni04BB" unicode="&#x4bb;" horiz-adv-x="611" 
d="M163 0h-80v700h80v-288q29 36 78.5 60.5t111.5 24.5q91 0 137.5 -53t46.5 -149v-295h-80v278q0 43 -12.5 73.5t-33.5 44.5t-41.5 20t-44.5 6q-47 0 -94 -29.5t-68 -67.5v-325z" />
    <glyph glyph-name="uni04D8" unicode="&#x4d8;" horiz-adv-x="803" 
d="M397 64q106 0 177.5 72.5t75.5 184.5h-500q4 -115 73 -186t174 -71zM383 712q151 0 251 -101t100 -264q0 -155 -93.5 -257t-244.5 -102q-148 0 -239 102t-91 278v27h582q-10 105 -87 173t-191 68q-123 0 -211 -56v79q85 53 224 53z" />
    <glyph glyph-name="uni04D9" unicode="&#x4d9;" horiz-adv-x="570" 
d="M283 59q71 0 113.5 42t45.5 111h-314q2 -71 42 -112t113 -41zM94 381v69q25 19 74 33t99 14q109 0 182.5 -71.5t73.5 -183.5q0 -107 -66 -180.5t-177 -73.5q-109 0 -170 74.5t-61 182.5v31h393q-23 150 -191 150q-90 0 -157 -45z" />
    <glyph glyph-name="uni04E8" unicode="&#x4e8;" horiz-adv-x="844" 
d="M421 712q151 0 252.5 -103.5t101.5 -258.5t-101.5 -258.5t-252.5 -103.5t-252 103.5t-101 258.5t101 258.5t252 103.5zM421 64q107 0 183 72.5t86 184.5h-538q10 -112 86 -184.5t183 -72.5zM421 636q-102 0 -177.5 -68t-89.5 -173h535q-16 106 -90.5 173.5t-177.5 67.5z
" />
    <glyph glyph-name="uni04E9" unicode="&#x4e9;" horiz-adv-x="621" 
d="M311 497q115 0 189 -75t74 -180t-74 -179.5t-189 -74.5t-189 74.5t-74 179.5t74 180t189 75zM311 59q69 0 119 43t60 110h-359q10 -67 60 -110t120 -43zM311 426q-70 0 -119.5 -42t-59.5 -108h358q-12 67 -61 108.5t-118 41.5z" />
    <glyph glyph-name="uni1E02" unicode="&#x1e02;" horiz-adv-x="725" 
d="M97 0v700h306q94 0 148 -45t54 -125q0 -56 -25 -94t-68 -54q70 -11 111 -60.5t41 -126.5q0 -88 -62 -141.5t-169 -53.5h-336zM178 74h240q76 0 117.5 34t41.5 98q0 63 -41.5 96t-117.5 33h-240v-261zM178 407h211q135 0 135 108q0 54 -34.5 82.5t-100.5 28.5h-211v-219z
M291 828q0 21 14.5 35.5t35.5 14.5q22 0 36 -14.5t14 -35.5q0 -22 -14 -36t-36 -14q-21 0 -35.5 14t-14.5 36z" />
    <glyph glyph-name="uni1E03" unicode="&#x1e03;" horiz-adv-x="636" 
d="M83 700h80v-290q67 87 184 87q106 0 174 -74.5t68 -180.5q0 -105 -68 -179.5t-174 -74.5q-119 0 -184 87v-75h-80v700zM163 321v-157q21 -45 66.5 -75t98.5 -30q78 0 129 52.5t51 130.5t-51 131t-129 53q-55 0 -99.5 -29.5t-65.5 -75.5zM276 828q0 21 14.5 35.5
t35.5 14.5q22 0 36 -14.5t14 -35.5q0 -22 -14 -36t-36 -14q-21 0 -35.5 14t-14.5 36z" />
    <glyph glyph-name="uni1E0A" unicode="&#x1e0a;" horiz-adv-x="778" 
d="M97 0v700h232q169 0 274.5 -97t105.5 -253t-105.5 -253t-274.5 -97h-232zM178 74h142q142 0 224 74.5t82 201.5t-82 201.5t-224 74.5h-142v-552zM293 828q0 21 14.5 35.5t35.5 14.5q22 0 36 -14.5t14 -35.5q0 -22 -14 -36t-36 -14q-21 0 -35.5 14t-14.5 36z" />
    <glyph glyph-name="uni1E0B" unicode="&#x1e0b;" 
d="M474 700h80v-700h-80v75q-65 -87 -184 -87q-106 0 -174 74.5t-68 179.5q0 106 68 180.5t174 74.5q117 0 184 -87v290zM474 164v157q-21 46 -65.5 75.5t-99.5 29.5q-78 0 -129 -53t-51 -131t51 -130.5t129 -52.5q53 0 98.5 30t66.5 75zM272 828q0 21 14.5 35.5t35.5 14.5
q22 0 36 -14.5t14 -35.5q0 -22 -14 -36t-36 -14q-21 0 -35.5 14t-14.5 36z" />
    <glyph glyph-name="uni1E1E" unicode="&#x1e1e;" horiz-adv-x="623" 
d="M97 0v700h481v-74h-400v-223h323v-74h-323v-329h-81zM285 828q0 21 14.5 35.5t35.5 14.5q22 0 36 -14.5t14 -35.5q0 -22 -14 -36t-36 -14q-21 0 -35.5 14t-14.5 36z" />
    <glyph glyph-name="uni1E1F" unicode="&#x1e1f;" horiz-adv-x="395" 
d="M201 0h-80v416h-95v69h95v77q0 68 36 107t106 39q63 0 104 -19v-72q-44 20 -84 20q-82 0 -82 -89v-63h166v-69h-166v-416zM196 828q0 21 14.5 35.5t35.5 14.5q22 0 36 -14.5t14 -35.5q0 -22 -14 -36t-36 -14q-21 0 -35.5 14t-14.5 36z" />
    <glyph glyph-name="uni1E40" unicode="&#x1e40;" horiz-adv-x="848" 
d="M97 0v700h80l248 -334l248 334h79v-700h-80v577l-222 -298h-49l-224 298v-577h-80zM374 828q0 21 14.5 35.5t35.5 14.5q22 0 36 -14.5t14 -35.5q0 -22 -14 -36t-36 -14q-21 0 -35.5 14t-14.5 36z" />
    <glyph glyph-name="uni1E41" unicode="&#x1e41;" horiz-adv-x="919" 
d="M83 0v485h80v-71q57 83 171 83q60 0 100 -24.5t55 -69.5q27 41 75 67.5t110 26.5q81 0 126 -50t45 -145v-302h-79v284q0 138 -116 138q-44 0 -86 -30t-61 -69q0 -11 0.5 -28t0.5 -28v-267h-79v284q0 43 -11.5 72.5t-30.5 42.5t-36.5 18t-37.5 5q-43 0 -84 -28t-62 -68
v-326h-80zM414 646q0 22 14.5 36t35.5 14q22 0 36 -14t14 -36q0 -21 -14 -35.5t-36 -14.5q-21 0 -35.5 14.5t-14.5 35.5z" />
    <glyph glyph-name="uni1E56" unicode="&#x1e56;" horiz-adv-x="664" 
d="M97 0v700h295q106 0 166 -54t60 -142q0 -90 -60 -144.5t-166 -54.5h-214v-305h-81zM178 379h208q72 0 111.5 31.5t39.5 91.5t-39.5 92t-111.5 32h-208v-247zM283 828q0 21 14.5 35.5t35.5 14.5q22 0 36 -14.5t14 -35.5q0 -22 -14 -36t-36 -14q-21 0 -35.5 14t-14.5 36z
" />
    <glyph glyph-name="uni1E57" unicode="&#x1e57;" horiz-adv-x="636" 
d="M163 -200h-80v685h80v-75q67 87 184 87q106 0 174 -74.5t68 -179.5q0 -106 -68 -180.5t-174 -74.5q-119 0 -184 87v-275zM163 321v-158q21 -46 65 -75t100 -29q78 0 129 53t51 131t-51 130.5t-129 52.5q-53 0 -98.5 -30t-66.5 -75zM285 646q0 22 14.5 36t35.5 14
q22 0 36 -14t14 -36q0 -21 -14 -35.5t-36 -14.5q-21 0 -35.5 14.5t-14.5 35.5z" />
    <glyph glyph-name="uni1E60" unicode="&#x1e60;" horiz-adv-x="627" 
d="M307 -12q-157 0 -260 74v90q40 -35 110.5 -61.5t144.5 -26.5q80 0 132 34t52 92q0 25 -10.5 44.5t-24 32.5t-43 25.5t-51 19.5t-64.5 19q-58 16 -92 28.5t-70.5 35t-53.5 55.5t-17 79q0 80 65 131.5t180 51.5q126 0 219 -58v-83q-103 65 -217 65q-82 0 -123 -31t-41 -78
q0 -13 3 -24.5t10.5 -21t13.5 -16.5t21 -14.5t23 -12t28.5 -11t29 -9t33 -9.5t32.5 -9q43 -13 68.5 -22.5t60.5 -27.5t54.5 -38t34 -51.5t14.5 -69.5q0 -95 -75.5 -149t-186.5 -54zM249 828q0 21 14.5 35.5t35.5 14.5q22 0 36 -14.5t14 -35.5q0 -22 -14 -36t-36 -14
q-21 0 -35.5 14t-14.5 36z" />
    <glyph glyph-name="uni1E61" unicode="&#x1e61;" horiz-adv-x="510" 
d="M250 -12q-61 0 -116.5 14.5t-84.5 35.5v80q29 -22 83.5 -40.5t114.5 -18.5t94 19t34 54q0 12 -3.5 21t-12 15.5t-17 11.5t-24 9.5t-27 7.5t-31.5 8t-33 8q-86 22 -127.5 53.5t-41.5 94.5t51.5 99.5t145.5 36.5q109 0 177 -43v-77q-80 49 -174 49q-119 0 -119 -67
q0 -39 59 -60q20 -7 85 -22q82 -18 127.5 -51t45.5 -96q0 -66 -57.5 -104t-148.5 -38zM197 646q0 22 14.5 36t35.5 14q22 0 36 -14t14 -36q0 -21 -14 -35.5t-36 -14.5q-21 0 -35.5 14.5t-14.5 35.5z" />
    <glyph glyph-name="uni1E6A" unicode="&#x1e6a;" horiz-adv-x="632" 
d="M274 0v626h-239v74h562v-74h-241v-626h-82zM265 828q0 21 14.5 35.5t35.5 14.5q22 0 36 -14.5t14 -35.5q0 -22 -14 -36t-36 -14q-21 0 -35.5 14t-14.5 36z" />
    <glyph glyph-name="uni1E6B" unicode="&#x1e6b;" horiz-adv-x="431" 
d="M277 -12q-69 0 -104 40t-35 108v280h-112v69h112v147h80v-147h166v-69h-166v-257q0 -54 19 -76t63 -22q47 0 78 20v-71q-34 -22 -101 -22zM130 739q0 22 14.5 36t35.5 14q22 0 36 -14t14 -36q0 -21 -14 -35.5t-36 -14.5q-21 0 -35.5 14.5t-14.5 35.5z" />
    <glyph glyph-name="Wgrave" unicode="&#x1e80;" horiz-adv-x="1055" 
d="M278 -4l-241 704h90l190 -572l179 575h65l180 -575l188 572h88l-240 -704h-72l-177 567l-178 -567h-72zM491 763l-121 134h101l95 -134h-75z" />
    <glyph glyph-name="wgrave" unicode="&#x1e81;" horiz-adv-x="829" 
d="M209 -3l-173 488h81l131 -368l129 370h66l130 -370l130 368h80l-173 -488h-69l-133 371l-130 -371h-69zM377 577l-120 135h99l96 -135h-75z" />
    <glyph glyph-name="Wacute" unicode="&#x1e82;" horiz-adv-x="1055" 
d="M278 -4l-241 704h90l190 -572l179 575h65l180 -575l188 572h88l-240 -704h-72l-177 567l-178 -567h-72zM493 763l95 134h100l-120 -134h-75z" />
    <glyph glyph-name="wacute" unicode="&#x1e83;" horiz-adv-x="829" 
d="M209 -3l-173 488h81l131 -368l129 370h66l130 -370l130 368h80l-173 -488h-69l-133 371l-130 -371h-69zM375 577l96 135h100l-121 -135h-75z" />
    <glyph glyph-name="Wdieresis" unicode="&#x1e84;" horiz-adv-x="1055" 
d="M278 -4l-241 704h90l190 -572l179 575h65l180 -575l188 572h88l-240 -704h-72l-177 567l-178 -567h-72zM379 829q0 21 14 35t35 14q22 0 36 -14t14 -35q0 -22 -14 -36t-36 -14q-21 0 -35 14t-14 36zM580 829q0 21 14.5 35t35.5 14t35 -14t14 -35q0 -22 -14 -36t-35 -14
t-35.5 14t-14.5 36z" />
    <glyph glyph-name="wdieresis" unicode="&#x1e85;" horiz-adv-x="829" 
d="M209 -3l-173 488h81l131 -368l129 370h66l130 -370l130 368h80l-173 -488h-69l-133 371l-130 -371h-69zM259 646q0 22 14 36t36 14q21 0 35 -14t14 -36q0 -21 -14 -35t-35 -14q-22 0 -36 14t-14 35zM460 646q0 22 14.5 36t35.5 14t35 -14t14 -36q0 -21 -14 -35t-35 -14
t-35.5 14t-14.5 35z" />
    <glyph glyph-name="Ygrave" unicode="&#x1ef2;" horiz-adv-x="668" 
d="M293 0v320l-271 380h94l219 -305l219 305h92l-271 -378v-322h-82zM311 763l-121 134h101l95 -134h-75z" />
    <glyph glyph-name="ygrave" unicode="&#x1ef3;" horiz-adv-x="558" 
d="M115 -204q-57 0 -79 14v73q29 -16 67 -16q45 0 75.5 35.5t63.5 115.5l-215 467h88l167 -374l161 374h86l-238 -539q-34 -75 -75.5 -112.5t-100.5 -37.5zM264 577l-120 135h99l96 -135h-75z" />
    <glyph glyph-name="endash" unicode="&#x2013;" horiz-adv-x="734" 
d="M100 236v73h535v-73h-535z" />
    <glyph glyph-name="emdash" unicode="&#x2014;" horiz-adv-x="907" 
d="M100 236v73h708v-73h-708z" />
    <glyph glyph-name="uni2015" unicode="&#x2015;" horiz-adv-x="734" 
d="M100 236v73h535v-73h-535z" />
    <glyph glyph-name="quoteleft" unicode="&#x2018;" horiz-adv-x="220" 
d="M191 700l-80 -260h-92l109 260h63z" />
    <glyph glyph-name="quoteright" unicode="&#x2019;" horiz-adv-x="220" 
d="M27 440l80 260h92l-109 -260h-63z" />
    <glyph glyph-name="quotesinglbase" unicode="&#x201a;" horiz-adv-x="240" 
d="M14 -152l80 260h92l-109 -260h-63z" />
    <glyph glyph-name="quotedblleft" unicode="&#x201c;" horiz-adv-x="378" 
d="M349 700l-80 -260h-92l109 260h63zM191 700l-80 -260h-92l109 260h63z" />
    <glyph glyph-name="quotedblright" unicode="&#x201d;" horiz-adv-x="379" 
d="M186 440l80 260h92l-109 -260h-63zM27 440l80 260h92l-109 -260h-63z" />
    <glyph glyph-name="quotedblbase" unicode="&#x201e;" horiz-adv-x="399" 
d="M173 -152l80 260h92l-109 -260h-63zM14 -152l80 260h92l-109 -260h-63z" />
    <glyph glyph-name="dagger" unicode="&#x2020;" horiz-adv-x="519" 
d="M223 0v416h-176v69h176v215h73v-215h176v-69h-176v-416h-73z" />
    <glyph glyph-name="daggerdbl" unicode="&#x2021;" horiz-adv-x="519" 
d="M472 416h-176v-150h176v-69h-176v-197h-73v197h-176v69h176v150h-176v69h176v215h73v-215h176v-69z" />
    <glyph glyph-name="bullet" unicode="&#x2022;" horiz-adv-x="410" 
d="M205 268q-47 0 -81 34t-34 81t34 81t81 34q49 0 83 -34t34 -81t-34.5 -81t-82.5 -34z" />
    <glyph glyph-name="ellipsis" unicode="&#x2026;" horiz-adv-x="674" 
d="M64 49q0 23 16 39.5t40 16.5q23 0 39 -16.5t16 -39.5t-16 -39t-39 -16q-24 0 -40 16t-16 39zM499 49q0 23 16 39.5t39 16.5t39.5 -16.5t16.5 -39.5t-16.5 -39t-39.5 -16t-39 16t-16 39zM282 49q0 23 16.5 39.5t39.5 16.5t39 -16.5t16 -39.5t-16 -39t-39 -16t-39.5 16
t-16.5 39z" />
    <glyph glyph-name="perthousand" unicode="&#x2030;" horiz-adv-x="1211" 
d="M997 325q73 0 121 -49t48 -120t-48 -119.5t-121 -48.5t-121 48.5t-48 119.5t48 120t121 49zM997 46q47 0 76 31t29 79t-29 79.5t-76 31.5t-76 -31.5t-29 -79.5t29 -79t76 -31zM174 0l411 700h67l-411 -700h-67zM213 712q74 0 122 -48.5t48 -119.5t-48 -120t-122 -49
q-72 0 -119.5 49t-47.5 120t47.5 119.5t119.5 48.5zM213 433q47 0 76.5 31t29.5 80q0 47 -29.5 78t-76.5 31q-46 0 -75 -31t-29 -78q0 -49 28.5 -80t75.5 -31zM610 325q73 0 121 -49t48 -120t-48 -119.5t-121 -48.5q-72 0 -120 49t-48 119q0 71 48 120t120 49zM610 47
q47 0 76 30.5t29 78.5t-29 79.5t-76 31.5t-76 -31.5t-29 -79.5t29 -78.5t76 -30.5z" />
    <glyph glyph-name="guilsinglleft" unicode="&#x2039;" horiz-adv-x="320" 
d="M194 40l-149 182v41l149 182h82l-164 -203l164 -202h-82z" />
    <glyph glyph-name="guilsinglright" unicode="&#x203a;" horiz-adv-x="320" 
d="M43 40l163 202l-163 203h83l149 -182v-41l-149 -182h-83z" />
    <glyph glyph-name="fraction" unicode="&#x2044;" horiz-adv-x="191" 
d="M-143 0l414 700h73l-414 -700h-73z" />
    <glyph glyph-name="zerosuperior" unicode="&#x2070;" horiz-adv-x="389" 
d="M195 317q-75 0 -119.5 56.5t-44.5 137.5t44.5 137.5t119.5 56.5q73 0 118 -57t45 -137q0 -81 -45 -137.5t-118 -56.5zM195 375q43 0 69 39.5t26 96.5t-26 96.5t-69 39.5q-44 0 -70 -39.5t-26 -96.5t26 -96.5t70 -39.5z" />
    <glyph glyph-name="foursuperior" unicode="&#x2074;" horiz-adv-x="361" 
d="M216 322v97h-196v48l194 233h68v-227h58v-54h-58v-97h-66zM92 473h124v147z" />
    <glyph glyph-name="fivesuperior" unicode="&#x2075;" horiz-adv-x="337" 
d="M142 317q-62 0 -109 26v64q52 -31 107 -31q40 0 66 19t26 53q0 30 -24.5 48.5t-65.5 18.5q-52 0 -95 -15l25 200h203v-57h-152l-9 -80q15 4 43 4q62 0 102.5 -33t40.5 -86q0 -61 -45 -96t-113 -35z" />
    <glyph glyph-name="sixsuperior" unicode="&#x2076;" horiz-adv-x="357" 
d="M186 317q-73 0 -111.5 48t-38.5 128q0 91 45 151.5t128 60.5q58 0 86 -22v-60q-35 24 -79 24q-48 0 -79 -32t-33 -88q33 43 96 43q53 0 88.5 -33.5t35.5 -89.5q0 -57 -39.5 -93.5t-98.5 -36.5zM183 372q32 0 52.5 21t20.5 54q0 31 -21 51t-53 20q-26 0 -47 -15t-33 -39
q2 -42 23.5 -67t57.5 -25z" />
    <glyph glyph-name="sevensuperior" unicode="&#x2077;" horiz-adv-x="320" 
d="M53 322l163 321h-189v57h266v-53l-166 -325h-74z" />
    <glyph glyph-name="eightsuperior" unicode="&#x2078;" horiz-adv-x="363" 
d="M182 317q-66 0 -109.5 30t-43.5 82q0 67 74 95q-25 10 -39.5 31.5t-14.5 47.5q0 46 37.5 74t95.5 28t95 -27.5t37 -74.5q0 -26 -14.5 -47.5t-39.5 -31.5q74 -28 74 -95q0 -52 -43.5 -82t-108.5 -30zM182 372q36 0 60 18t24 44q0 29 -23.5 46t-60.5 17q-39 0 -62 -17
t-23 -46q0 -27 23.5 -44.5t61.5 -17.5zM182 543q31 0 50 14t19 40q0 24 -19.5 39t-49.5 15q-31 0 -51 -15t-20 -39q0 -26 19.5 -40t51.5 -14z" />
    <glyph glyph-name="ninesuperior" unicode="&#x2079;" horiz-adv-x="357" 
d="M174 705q72 0 111 -48t39 -128q0 -91 -45 -151.5t-128 -60.5q-58 0 -86 22v60q35 -24 79 -24q47 0 78 32t34 88q-32 -43 -97 -43q-52 0 -87.5 33.5t-35.5 89.5q0 57 39.5 93.5t98.5 36.5zM177 650q-32 0 -52.5 -21t-20.5 -54q0 -31 20.5 -51t52.5 -20q26 0 47 15t33 39
q-2 42 -23.5 67t-56.5 25z" />
    <glyph glyph-name="zeroinferior" unicode="&#x2080;" horiz-adv-x="389" 
d="M195 -4q-75 0 -119.5 56.5t-44.5 137.5t44.5 137.5t119.5 56.5q73 0 118 -57t45 -137q0 -81 -45 -137.5t-118 -56.5zM195 54q43 0 69 39.5t26 96.5t-26 96.5t-69 39.5q-44 0 -70 -39.5t-26 -96.5q0 -58 26 -97t70 -39z" />
    <glyph glyph-name="oneinferior" unicode="&#x2081;" horiz-adv-x="246" 
d="M126 1v307l-104 -57v68l106 60h66v-378h-68z" />
    <glyph glyph-name="twoinferior" unicode="&#x2082;" horiz-adv-x="359" 
d="M43 1v50l119 107q39 36 55 58.5t16 47.5q0 26 -19.5 42t-51.5 16q-55 0 -108 -43v68q48 37 113 37q55 0 94.5 -31.5t39.5 -80.5q0 -38 -19.5 -70t-63.5 -74l-73 -70h168v-57h-270z" />
    <glyph glyph-name="threeinferior" unicode="&#x2083;" horiz-adv-x="328" 
d="M143 -4q-74 0 -117 29v63q54 -33 111 -33q37 0 63.5 19.5t26.5 51.5q0 30 -22 48t-63 18q-28 0 -51 -9v44l102 95h-154v57h241v-51l-98 -92q46 -4 79.5 -31.5t33.5 -80.5q0 -57 -44 -92.5t-108 -35.5z" />
    <glyph glyph-name="fourinferior" unicode="&#x2084;" horiz-adv-x="361" 
d="M216 1v97h-196v48l194 233h68v-227h58v-54h-58v-97h-66zM92 152h124v147z" />
    <glyph glyph-name="fiveinferior" unicode="&#x2085;" horiz-adv-x="337" 
d="M142 -4q-62 0 -109 26v64q52 -31 107 -31q40 0 66 19t26 53q0 30 -24.5 48.5t-65.5 18.5q-52 0 -95 -15l25 200h203v-57h-152l-9 -80q15 4 43 4q62 0 102.5 -33t40.5 -86q0 -61 -45 -96t-113 -35z" />
    <glyph glyph-name="sixinferior" unicode="&#x2086;" horiz-adv-x="357" 
d="M186 -4q-73 0 -111.5 48t-38.5 128q0 91 45 151.5t128 60.5q58 0 86 -22v-60q-35 24 -79 24q-48 0 -79 -32t-33 -88q33 43 96 43q53 0 88.5 -33.5t35.5 -89.5q0 -57 -39.5 -93.5t-98.5 -36.5zM183 51q32 0 52.5 21t20.5 54q0 31 -21 51t-53 20q-26 0 -47 -15t-33 -39
q2 -42 23.5 -67t57.5 -25z" />
    <glyph glyph-name="seveninferior" unicode="&#x2087;" horiz-adv-x="320" 
d="M53 1l163 321h-189v57h266v-53l-166 -325h-74z" />
    <glyph glyph-name="eightinferior" unicode="&#x2088;" horiz-adv-x="363" 
d="M182 -4q-66 0 -109.5 30t-43.5 82q0 67 74 95q-25 10 -39.5 31.5t-14.5 47.5q0 46 37.5 74t95.5 28t95 -27.5t37 -74.5q0 -26 -14.5 -47.5t-39.5 -31.5q74 -28 74 -95q0 -52 -43.5 -82t-108.5 -30zM182 51q36 0 60 18t24 44q0 29 -23.5 46t-60.5 17q-39 0 -62 -17
t-23 -46q0 -27 23.5 -44.5t61.5 -17.5zM182 222q31 0 50 14t19 40q0 24 -19.5 39t-49.5 15q-31 0 -51 -15t-20 -39q0 -26 19.5 -40t51.5 -14z" />
    <glyph glyph-name="nineinferior" unicode="&#x2089;" horiz-adv-x="357" 
d="M174 384q72 0 111 -48t39 -128q0 -91 -45 -151.5t-128 -60.5q-58 0 -86 22v60q35 -24 79 -24q47 0 78 32t34 88q-32 -43 -97 -43q-52 0 -87.5 33.5t-35.5 89.5q0 57 39.5 93.5t98.5 36.5zM177 329q-32 0 -52.5 -21t-20.5 -54q0 -31 20.5 -51t52.5 -20q26 0 47 15t33 39
q-2 42 -23.5 67t-56.5 25z" />
    <glyph glyph-name="franc" unicode="&#x20a3;" horiz-adv-x="641" 
d="M115 0v144h-113v66h113v490h481v-74h-400v-223h324v-73h-324v-120h172v-66h-172v-144h-81z" />
    <glyph glyph-name="lira" unicode="&#x20a4;" horiz-adv-x="590" 
d="M61 0v73h19q54 0 54 82v64h-73v66h73v91h-73v66h73v44q0 108 61.5 167.5t170.5 59.5q99 0 163 -42v-79q-69 45 -152 45q-161 0 -161 -162v-33h247v-66h-247v-91h247v-66h-247v-63q0 -67 -25 -83h345v-73h-475z" />
    <glyph glyph-name="peseta" unicode="&#x20a7;" horiz-adv-x="701" 
d="M102 537v163h295q96 0 153.5 -44t69.5 -119h69v-69h-69q-12 -76 -70 -119.5t-153 -43.5h-214v-305h-81v468h-76v69h76zM183 379h208q72 0 111.5 31.5t39.5 91.5t-39.5 92t-111.5 32h-208v-247z" />
    <glyph glyph-name="Euro" unicode="&#x20ac;" horiz-adv-x="684" 
d="M42 408v66h94q29 107 110 172.5t200 65.5q101 0 172 -48v-79q-74 52 -164 52q-85 0 -144.5 -43t-86.5 -120h244v-66h-260q-4 -25 -4 -49q0 -32 2 -42h262v-66h-251q21 -87 82.5 -137.5t155.5 -50.5q109 0 180 65v-83q-76 -57 -188 -57q-125 0 -209 72t-106 191h-89v66h80
q-2 11 -2 43q0 29 3 48h-81z" />
    <glyph glyph-name="uni20B4" unicode="&#x20b4;" horiz-adv-x="608" 
d="M324 -12q-107 0 -167.5 41.5t-60.5 115.5q0 73 54 118h-89v65h486v-65h-290q-77 -40 -77 -104q0 -96 155 -96q99 0 175 39v-79q-81 -35 -186 -35zM61 394v65h315q55 34 55 86q0 92 -149 92q-89 0 -166 -35v77q68 33 174 33q107 0 166.5 -42t59.5 -115q0 -60 -42 -96h73
v-65h-486z" />
    <glyph glyph-name="uni20B8" unicode="&#x20b8;" horiz-adv-x="592" 
d="M557 634h-522v66h522v-66zM254 0v469h-219v74h522v-74h-221v-469h-82z" />
    <glyph glyph-name="uni20BD" unicode="&#x20bd;" horiz-adv-x="685" 
d="M124 0v152h-100v66h100v91h-100v66h100v325h281q105 0 165 -53.5t60 -140.5q0 -89 -60 -143t-165 -54h-200v-91h287v-66h-287v-152h-81zM205 375h193q72 0 111.5 32.5t39.5 92.5q0 61 -39.5 94t-111.5 33h-193v-252z" />
    <glyph glyph-name="uni2113" unicode="&#x2113;" horiz-adv-x="426" 
d="M143 182v-31q0 -92 96 -92q55 0 96 30v-70q-40 -31 -108 -31q-153 0 -153 158v348q0 100 42.5 157t117.5 57q64 0 97.5 -41t33.5 -112q0 -177 -222 -373zM143 493v-222q157 157 157 281q0 45 -15 67t-50 22q-37 0 -64.5 -37t-27.5 -111z" />
    <glyph glyph-name="uni2116" unicode="&#x2116;" horiz-adv-x="1138" 
d="M767 243v64h301v-64h-301zM97 0v700h70l433 -559v559h79v-700h-69l-434 561v-561h-79zM918 712q74 0 122 -48.5t48 -119.5t-48 -120t-122 -49q-72 0 -120 49t-48 120q0 70 48 119t120 49zM918 433q47 0 76.5 31t29.5 80q0 47 -29.5 78t-76.5 31t-76 -31t-29 -78
q0 -48 29 -79.5t76 -31.5z" />
    <glyph glyph-name="trademark" unicode="&#x2122;" horiz-adv-x="690" 
d="M332 391v309h48l102 -133l101 133h49v-309h-52v229l-84 -108h-27l-86 108v-229h-51zM123 391v264h-100v45h254v-45h-103v-264h-51z" />
    <glyph glyph-name="Omega" unicode="&#x2126;" horiz-adv-x="803" 
d="M99 0v74h116q-52 52 -85.5 130t-33.5 165q0 148 84 245.5t221 97.5q138 0 222 -97.5t84 -245.5q0 -88 -34 -166.5t-86 -128.5h116v-74h-214v62q58 49 96.5 126t38.5 169q0 124 -62.5 201.5t-160.5 77.5q-97 0 -160 -78t-63 -201q0 -92 38.5 -169t96.5 -126v-62h-214z" />
    <glyph glyph-name="estimated" unicode="&#x212e;" horiz-adv-x="803" 
d="M402 -12q-142 0 -238 94.5t-96 236.5q0 138 94.5 235t239.5 97t238.5 -96.5t93.5 -233.5h-570v-198q89 -110 238 -110q97 0 170.5 49t110.5 132h29q-35 -91 -117 -148.5t-193 -57.5zM164 346h476v171q-91 110 -238 110t-238 -110v-171z" />
    <glyph glyph-name="onethird" unicode="&#x2153;" horiz-adv-x="784" 
d="M111 0l414 700h73l-414 -700h-73zM126 322v307l-104 -57v68l106 60h66v-378h-68zM599 -4q-74 0 -117 29v63q54 -33 111 -33q37 0 63.5 19.5t26.5 51.5q0 30 -22 48t-63 18q-28 0 -51 -9v44l102 95h-154v57h241v-51l-98 -92q46 -4 79.5 -31.5t33.5 -80.5q0 -57 -44 -92.5
t-108 -35.5z" />
    <glyph glyph-name="twothirds" unicode="&#x2154;" horiz-adv-x="891" 
d="M216 0l414 700h73l-414 -700h-73zM43 322v50l119 107q39 36 55 58.5t16 47.5q0 26 -19.5 42t-51.5 16q-55 0 -108 -43v68q48 37 113 37q55 0 94.5 -31.5t39.5 -80.5q0 -38 -19.5 -70t-63.5 -74l-73 -70h168v-57h-270zM706 -4q-74 0 -117 29v63q54 -33 111 -33
q37 0 63.5 19.5t26.5 51.5q0 30 -22 48t-63 18q-28 0 -51 -9v44l102 95h-154v57h241v-51l-98 -92q46 -4 79.5 -31.5t33.5 -80.5q0 -57 -44 -92.5t-108 -35.5z" />
    <glyph glyph-name="uni2155" unicode="&#x2155;" horiz-adv-x="766" 
d="M111 0l414 700h73l-414 -700h-73zM126 322v307l-104 -57v68l106 60h66v-378h-68zM571 -4q-62 0 -109 26v64q52 -31 107 -31q40 0 66 19t26 53q0 30 -24.5 48.5t-65.5 18.5q-51 0 -95 -15l25 200h203v-57h-152l-9 -80q15 4 43 4q62 0 102.5 -33t40.5 -86q0 -61 -45 -96
t-113 -35z" />
    <glyph glyph-name="uni2156" unicode="&#x2156;" horiz-adv-x="871" 
d="M216 0l414 700h73l-414 -700h-73zM43 322v50l119 107q39 36 55 58.5t16 47.5q0 26 -19.5 42t-51.5 16q-55 0 -108 -43v68q48 37 113 37q55 0 94.5 -31.5t39.5 -80.5q0 -38 -19.5 -70t-63.5 -74l-73 -70h168v-57h-270zM676 -4q-62 0 -109 26v64q52 -31 107 -31q40 0 66 19
t26 53q0 30 -24.5 48.5t-65.5 18.5q-52 0 -95 -15l25 200h203v-57h-152l-9 -80q15 4 43 4q62 0 102.5 -33t40.5 -86q0 -61 -45 -96t-113 -35z" />
    <glyph glyph-name="uni2157" unicode="&#x2157;" horiz-adv-x="814" 
d="M160 0l414 700h73l-414 -700h-73zM619 -4q-62 0 -109 26v64q52 -31 107 -31q40 0 66 19t26 53q0 30 -24.5 48.5t-65.5 18.5q-51 0 -95 -15l25 200h203v-57h-152l-9 -80q15 4 43 4q62 0 102.5 -33t40.5 -86q0 -61 -45 -96t-113 -35zM143 317q-74 0 -117 29v63
q54 -33 111 -33q37 0 63.5 19.5t26.5 51.5q0 30 -22 48t-63 18q-28 0 -51 -9v44l102 95h-154v57h241v-51l-98 -92q46 -4 79.5 -31.5t33.5 -80.5q0 -57 -44 -92.5t-108 -35.5z" />
    <glyph glyph-name="uni2158" unicode="&#x2158;" horiz-adv-x="857" 
d="M202 0l414 700h73l-414 -700h-73zM662 -4q-62 0 -109 26v64q52 -31 107 -31q40 0 66 19t26 53q0 30 -24.5 48.5t-65.5 18.5q-52 0 -95 -15l25 200h203v-57h-152l-9 -80q15 4 43 4q62 0 102.5 -33t40.5 -86q0 -61 -45 -96t-113 -35zM216 322v97h-196v48l194 233h68v-227
h58v-54h-58v-97h-66zM92 473h124v147z" />
    <glyph glyph-name="uni2159" unicode="&#x2159;" horiz-adv-x="770" 
d="M111 0l414 700h73l-414 -700h-73zM126 322v307l-104 -57v68l106 60h66v-378h-68zM599 -4q-73 0 -111.5 48t-38.5 128q0 91 45 151.5t128 60.5q58 0 86 -22v-60q-35 24 -79 24q-48 0 -79 -32t-33 -88q33 43 96 43q53 0 88.5 -33.5t35.5 -89.5q0 -57 -39.5 -93.5
t-98.5 -36.5zM596 51q32 0 52.5 21t20.5 54q0 31 -21 51t-53 20q-26 0 -47 -15t-33 -39q2 -42 23.5 -67t57.5 -25z" />
    <glyph glyph-name="uni215A" unicode="&#x215a;" horiz-adv-x="826" 
d="M166 0l414 700h73l-414 -700h-73zM655 -4q-73 0 -111.5 48t-38.5 128q0 91 45 151.5t128 60.5q58 0 86 -22v-60q-35 24 -79 24q-48 0 -79 -32t-33 -88q33 43 96 43q53 0 88.5 -33.5t35.5 -89.5q0 -57 -39.5 -93.5t-98.5 -36.5zM652 51q32 0 52.5 21t20.5 54q0 31 -21 51
t-53 20q-26 0 -47 -15t-33 -39q2 -42 23.5 -67t57.5 -25zM142 317q-62 0 -109 26v64q52 -31 107 -31q40 0 66 19t26 53q0 30 -24.5 48.5t-65.5 18.5q-52 0 -95 -15l25 200h203v-57h-152l-9 -80q15 4 43 4q62 0 102.5 -33t40.5 -86q0 -61 -45 -96t-113 -35z" />
    <glyph glyph-name="oneeighth" unicode="&#x215b;" horiz-adv-x="788" 
d="M111 0l414 700h73l-414 -700h-73zM126 322v307l-104 -57v68l106 60h66v-378h-68zM607 -4q-66 0 -109.5 30t-43.5 82q0 67 74 95q-25 10 -39.5 31.5t-14.5 47.5q0 46 37.5 74t95.5 28t95 -27.5t37 -74.5q0 -26 -14.5 -47.5t-39.5 -31.5q74 -28 74 -95q0 -52 -43.5 -82
t-108.5 -30zM607 51q36 0 60 18t24 44q0 29 -23.5 46t-60.5 17q-39 0 -62 -17t-23 -46q0 -27 23.5 -44.5t61.5 -17.5zM607 222q31 0 50 14t19 40q0 24 -19.5 39t-49.5 15q-31 0 -51 -15t-20 -39q0 -26 19.5 -40t51.5 -14z" />
    <glyph glyph-name="threeeighths" unicode="&#x215c;" horiz-adv-x="837" 
d="M160 0l414 700h73l-414 -700h-73zM656 -4q-66 0 -109.5 30t-43.5 82q0 67 74 95q-25 10 -39.5 31.5t-14.5 47.5q0 46 37.5 74t95.5 28t95 -27.5t37 -74.5q0 -26 -14.5 -47.5t-39.5 -31.5q74 -28 74 -95q0 -52 -43.5 -82t-108.5 -30zM656 51q36 0 60 18t24 44
q0 29 -23.5 46t-60.5 17q-39 0 -62 -17t-23 -46q0 -27 23.5 -44.5t61.5 -17.5zM656 222q31 0 50 14t19 40q0 24 -19.5 39t-49.5 15q-31 0 -51 -15t-20 -39q0 -26 19.5 -40t51.5 -14zM143 317q-74 0 -117 29v63q54 -33 111 -33q37 0 63.5 19.5t26.5 51.5q0 30 -22 48t-63 18
q-28 0 -51 -9v44l102 95h-154v57h241v-51l-98 -92q46 -4 79.5 -31.5t33.5 -80.5q0 -57 -44 -92.5t-108 -35.5z" />
    <glyph glyph-name="fiveeighths" unicode="&#x215d;" horiz-adv-x="844" 
d="M166 0l414 700h73l-414 -700h-73zM142 317q-62 0 -109 26v64q52 -31 107 -31q40 0 66 19t26 53q0 30 -24.5 48.5t-65.5 18.5q-52 0 -95 -15l25 200h203v-57h-152l-9 -80q15 4 43 4q62 0 102.5 -33t40.5 -86q0 -61 -45 -96t-113 -35zM663 -4q-66 0 -109.5 30t-43.5 82
q0 67 74 95q-25 10 -39.5 31.5t-14.5 47.5q0 46 37.5 74t95.5 28t95 -27.5t37 -74.5q0 -26 -14.5 -47.5t-39.5 -31.5q74 -28 74 -95q0 -52 -43.5 -82t-108.5 -30zM663 51q36 0 60 18t24 44q0 29 -23.5 46t-60.5 17q-39 0 -62 -17t-23 -46q0 -27 23.5 -44.5t61.5 -17.5z
M663 222q31 0 50 14t19 40q0 24 -19.5 39t-49.5 15q-31 0 -51 -15t-20 -39q0 -26 19.5 -40t51.5 -14z" />
    <glyph glyph-name="seveneighths" unicode="&#x215e;" horiz-adv-x="778" 
d="M100 0l414 700h73l-414 -700h-73zM597 -4q-66 0 -109.5 30t-43.5 82q0 67 74 95q-25 10 -39.5 31.5t-14.5 47.5q0 46 37.5 74t95.5 28t95 -27.5t37 -74.5q0 -26 -14.5 -47.5t-39.5 -31.5q74 -28 74 -95q0 -52 -43.5 -82t-108.5 -30zM597 51q36 0 60 18t24 44
q0 29 -23.5 46t-60.5 17q-39 0 -62 -17t-23 -46q0 -27 23.5 -44.5t61.5 -17.5zM597 222q31 0 50 14t19 40q0 24 -19.5 39t-49.5 15q-31 0 -51 -15t-20 -39q0 -26 19.5 -40t51.5 -14zM53 322l163 321h-189v57h266v-53l-166 -325h-74z" />
    <glyph glyph-name="uni215F" unicode="&#x215f;" horiz-adv-x="429" 
d="M111 0l414 700h73l-414 -700h-73zM126 322v307l-104 -57v68l106 60h66v-378h-68z" />
    <glyph glyph-name="arrowleft" unicode="&#x2190;" horiz-adv-x="723" 
d="M331 476l-158 -177h472v-64h-472l158 -177h-85l-186 209l186 209h85z" />
    <glyph glyph-name="arrowup" unicode="&#x2191;" horiz-adv-x="572" 
d="M495 314l-177 158v-472h-64v472l-176 -158v85l208 186l209 -186v-85z" />
    <glyph glyph-name="arrowright" unicode="&#x2192;" horiz-adv-x="723" 
d="M549 299l-158 177h85l187 -209l-187 -209h-85l158 177h-471v64h471z" />
    <glyph glyph-name="arrowdown" unicode="&#x2193;" horiz-adv-x="572" 
d="M78 260l175 -158v472h64v-472l178 158v-85l-209 -185l-208 185v85z" />
    <glyph glyph-name="partialdiff" unicode="&#x2202;" horiz-adv-x="627" 
d="M273 -12q-97 0 -161 60t-64 158q0 104 68 176.5t169 72.5q69 0 120.5 -30t75.5 -73q1 11 1 31q0 96 -57 175.5t-152 79.5q-74 0 -142 -41v69q64 42 149 42q127 0 202.5 -96t75.5 -255q0 -54 -9 -105t-31 -99.5t-54 -84.5t-81 -58t-110 -22zM278 59q78 0 129 52.5
t65 142.5q-18 58 -66 95t-108 37q-71 0 -121 -48.5t-50 -123.5q0 -69 42.5 -112t108.5 -43z" />
    <glyph glyph-name="Delta" unicode="&#x2206;" horiz-adv-x="755" 
d="M28 0l311 700h77l311 -700h-699zM143 74h467l-233 524z" />
    <glyph glyph-name="product" unicode="&#x220f;" horiz-adv-x="762" 
d="M174 -129v758h-114v71h641v-71h-114v-758h-79v758h-255v-758h-79z" />
    <glyph glyph-name="summation" unicode="&#x2211;" horiz-adv-x="605" 
d="M57 0v58l254 292l-249 292v58h495v-74h-380l217 -258v-35l-222 -259h388v-74h-503z" />
    <glyph glyph-name="minus" unicode="&#x2212;" horiz-adv-x="628" 
d="M70 290v73h489v-73h-489z" />
    <glyph glyph-name="uni2215" unicode="&#x2215;" horiz-adv-x="522" 
d="M22 0l414 700h71l-413 -700h-72z" />
    <glyph glyph-name="uni2219" unicode="&#x2219;" horiz-adv-x="232" 
d="M62 238q0 23 16 39.5t40 16.5q23 0 39 -16.5t16 -39.5t-16 -39t-39 -16q-24 0 -40 16t-16 39z" />
    <glyph glyph-name="radical" unicode="&#x221a;" horiz-adv-x="683" 
d="M319 0l-185 417h-140v68h189l170 -389l232 604h75l-272 -700h-69z" />
    <glyph glyph-name="infinity" unicode="&#x221e;" horiz-adv-x="800" 
d="M220 143q-70 0 -117.5 47t-47.5 123q0 74 47.5 120.5t117.5 46.5q55 0 97.5 -31.5t83.5 -86.5q84 118 181 118q73 0 118.5 -48t45.5 -119q0 -74 -45.5 -122t-118.5 -48q-94 0 -182 118q-41 -55 -83 -86.5t-97 -31.5zM226 202q29 0 57.5 19t43.5 37t40 54q-28 38 -41 54
t-42 35.5t-59 19.5q-51 0 -78.5 -32.5t-27.5 -75.5q0 -44 27 -77.5t80 -33.5zM576 202q50 0 78 34t28 77t-27.5 75t-79.5 32q-42 0 -73 -27.5t-68 -80.5q71 -110 142 -110z" />
    <glyph glyph-name="integral" unicode="&#x222b;" horiz-adv-x="523" 
d="M26 -204q-52 0 -86 17v70q36 -16 71 -16q110 0 133 143l79 506q28 192 194 192q52 0 88 -16v-71q-31 16 -73 16q-56 0 -87.5 -31.5t-43.5 -106.5l-80 -509q-13 -86 -62.5 -140t-132.5 -54z" />
    <glyph glyph-name="approxequal" unicode="&#x2248;" horiz-adv-x="663" 
d="M469 369q-51 0 -139 28.5t-136 28.5q-79 0 -124 -47v73q15 19 50 31.5t74 12.5q49 0 137 -28.5t138 -28.5q79 0 125 48v-74q-16 -19 -50 -31.5t-75 -12.5zM469 140q-51 0 -139 28.5t-136 28.5q-78 0 -124 -48v74q15 19 50 31.5t74 12.5q49 0 137 -29t138 -29q79 0 125 48
v-73q-16 -19 -50 -31.5t-75 -12.5z" />
    <glyph glyph-name="notequal" unicode="&#x2260;" horiz-adv-x="621" 
d="M70 404v72h283l61 114h72l-61 -114h127v-72h-165l-82 -156h247v-72h-285l-61 -118h-72l61 118h-125v72h163l82 156h-245z" />
    <glyph glyph-name="lessequal" unicode="&#x2264;" horiz-adv-x="621" 
d="M552 171l-482 187v69l482 188v-80l-397 -142l397 -142v-80zM70 50v72h481v-72h-481z" />
    <glyph glyph-name="greaterequal" unicode="&#x2265;" horiz-adv-x="621" 
d="M70 171v80l397 142l-397 142v80l482 -188v-69zM70 50v72h482v-72h-482z" />
    <glyph glyph-name="dotmath" unicode="&#x22c5;" horiz-adv-x="239" 
d="M64 382q0 23 16 39.5t40 16.5q23 0 39 -16.5t16 -39.5t-16 -39t-39 -16q-24 0 -40 16t-16 39z" />
    <glyph glyph-name="lozenge" unicode="&#x25ca;" horiz-adv-x="562" 
d="M517 350l-200 -350h-71l-199 350l199 350h71zM282 68l158 282l-159 282l-157 -282q26 -47 79 -141t79 -141z" />
    <glyph glyph-name="uniF401" unicode="&#xf401;" horiz-adv-x="19" 
d="M-430 763l95 134h100l-120 -134h-75z" />
    <glyph glyph-name="uniF639" unicode="&#xf639;" 
d="M319 -12q-121 0 -195.5 104.5t-74.5 257.5t74.5 257.5t195.5 104.5t195.5 -104.5t74.5 -257.5t-74.5 -257.5t-195.5 -104.5zM319 62q85 0 137 82.5t52 205.5t-52 205.5t-137 82.5t-137 -82.5t-52 -205.5t52 -205.5t137 -82.5z" />
    <glyph glyph-name="uniF63A" unicode="&#xf63a;" 
d="M78 0v60l233 221q77 73 108 119t31 102q0 61 -42 97.5t-113 36.5q-108 0 -200 -92v90q85 78 208 78q97 0 163 -55.5t66 -144.5q0 -71 -35 -127.5t-120 -137.5l-181 -173h361v-74h-479z" />
    <glyph glyph-name="uniF63B" unicode="&#xf63b;" 
d="M281 -12q-124 0 -205 51v84q84 -59 200 -59q79 0 135.5 42.5t56.5 116.5q0 70 -49.5 112t-135.5 42q-44 0 -80 -11v56l211 204h-310v74h419v-61l-203 -198q91 -4 160 -63.5t69 -154.5q0 -105 -77 -170t-191 -65z" />
    <glyph glyph-name="uniF63C" unicode="&#xf63c;" 
d="M408 0v191h-373v64l374 445h78v-437h115v-72h-115v-191h-79zM128 263h280v330z" />
    <glyph glyph-name="uniF63D" unicode="&#xf63d;" 
d="M277 -12q-113 0 -194 46v81q83 -51 192 -51q86 0 142.5 44t56.5 114q0 68 -53 112t-141 44q-84 0 -168 -29l46 351h349v-74h-288l-27 -192q47 12 107 12q111 0 184 -63t73 -161q0 -105 -80 -169.5t-199 -64.5z" />
    <glyph glyph-name="uniF63E" unicode="&#xf63e;" 
d="M336 -12q-124 0 -195 86.5t-71 241.5q0 170 82 283t224 113q84 0 149 -43v-77q-65 44 -142 44q-59 0 -104.5 -24t-72.5 -65.5t-41 -91t-15 -104.5q27 45 79 71.5t121 26.5q94 0 160 -62.5t66 -160.5q0 -104 -69 -171t-171 -67zM332 64q70 0 117 45.5t47 115.5
q0 69 -47.5 111t-118.5 42q-60 0 -110.5 -37t-68.5 -93q8 -88 54.5 -136t126.5 -48z" />
    <glyph glyph-name="uniF63F" unicode="&#xf63f;" 
d="M147 0l316 626h-372v74h465v-61l-323 -639h-86z" />
    <glyph glyph-name="uniF640" unicode="&#xf640;" 
d="M441 370q68 -18 107 -64.5t39 -113.5q0 -93 -76.5 -148.5t-190.5 -55.5t-191 55.5t-77 148.5q0 67 40 113t108 65q-52 21 -82.5 61.5t-30.5 96.5q0 81 66 132.5t167 51.5t167 -51.5t66 -132.5q0 -55 -30 -96t-82 -62zM164 521q0 -53 44.5 -86.5t111.5 -33.5t111.5 33.5
t44.5 86.5q0 55 -44.5 89t-111.5 34t-111.5 -34t-44.5 -89zM320 57q78 0 132 40t54 99q0 62 -53 99.5t-133 37.5t-133 -37.5t-53 -99.5q0 -59 54 -99t132 -40z" />
    <glyph glyph-name="uniF641" unicode="&#xf641;" 
d="M301 712q124 0 195 -86.5t71 -241.5q0 -170 -82 -283t-224 -113q-84 0 -149 43v77q65 -44 142 -44q59 0 104.5 24t72.5 65.5t41 91t15 104.5q-27 -45 -79 -71.5t-121 -26.5q-95 0 -160.5 62.5t-65.5 160.5q0 104 69 171t171 67zM305 636q-70 0 -117 -45.5t-47 -115.5
q0 -69 47.5 -111t118.5 -42q60 0 110.5 37t68.5 93q-8 88 -54 136t-127 48z" />
    <glyph glyph-name="uniF643" unicode="&#xf643;" 
d="M319 497q115 0 189 -75t74 -180t-74 -179.5t-189 -74.5t-189 74.5t-74 179.5t74 180t189 75zM319 59q78 0 130 52.5t52 130.5t-52 131t-130 53t-130 -53t-52 -131t52 -130.5t130 -52.5z" />
    <glyph glyph-name="uniF644" unicode="&#xf644;" 
d="M104 0v73h192v324l-156 -88v78l165 98h71v-412h184v-73h-456z" />
    <glyph glyph-name="uniF645" unicode="&#xf645;" 
d="M91 0v61l90 49q114 64 123 70q29 18 46 29.5t40 31.5t34.5 41t11.5 43q0 46 -35 72.5t-96 26.5q-100 0 -200 -83v80q92 76 207 76q93 0 149 -45t56 -117q0 -110 -156 -192l-128 -70h310v-73h-452z" />
    <glyph glyph-name="uniF646" unicode="&#xf646;" 
d="M279 -204q-124 0 -205 51v83q87 -59 200 -59q79 0 135 40.5t56 113.5q0 70 -49 109t-135 39q-44 0 -80 -11v57l209 193h-308v73h418v-61l-202 -187q92 -4 160.5 -60.5t68.5 -151.5q0 -105 -76.5 -167t-191.5 -62z" />
    <glyph glyph-name="uniF647" unicode="&#xf647;" 
d="M408 -200v200h-373v63l374 422h78v-412h115v-73h-115v-200h-79zM129 73h279v310z" />
    <glyph glyph-name="uniF648" unicode="&#xf648;" 
d="M275 -204q-112 0 -193 46v81q85 -52 191 -52q85 0 142.5 44.5t57.5 113.5t-52 110t-143 41q-84 0 -168 -29l45 334h349v-73h-288l-24 -176q48 12 105 12q112 0 184.5 -60.5t72.5 -158.5q0 -104 -79.5 -168.5t-199.5 -64.5z" />
    <glyph glyph-name="uniF649" unicode="&#xf649;" 
d="M336 -12q-124 0 -195 86.5t-71 241.5q0 170 82 283t224 113q84 0 149 -43v-77q-65 44 -142 44q-59 0 -104.5 -24t-72.5 -65.5t-41 -91t-15 -104.5q27 45 79 71.5t121 26.5q94 0 160 -62.5t66 -160.5q0 -104 -69 -171t-171 -67zM332 64q70 0 117 45.5t47 115.5
q0 69 -47.5 111t-118.5 42q-60 0 -110.5 -37t-68.5 -93q8 -88 54.5 -136t126.5 -48z" />
    <glyph glyph-name="uniF64A" unicode="&#xf64a;" 
d="M153 -200l309 612h-372v73h465v-61l-316 -624h-86z" />
    <glyph glyph-name="uniF64B" unicode="&#xf64b;" 
d="M441 370q68 -18 107 -64.5t39 -113.5q0 -93 -76.5 -148.5t-190.5 -55.5t-191 55.5t-77 148.5q0 67 40 113t108 65q-52 21 -82.5 61.5t-30.5 96.5q0 81 66 132.5t167 51.5t167 -51.5t66 -132.5q0 -55 -30 -96t-82 -62zM164 521q0 -53 44.5 -86.5t111.5 -33.5t111.5 33.5
t44.5 86.5q0 55 -44.5 89t-111.5 34t-111.5 -34t-44.5 -89zM320 57q78 0 132 40t54 99q0 62 -53 99.5t-133 37.5t-133 -37.5t-53 -99.5q0 -59 54 -99t132 -40z" />
    <glyph glyph-name="uniF64C" unicode="&#xf64c;" 
d="M303 497q124 0 195 -86.5t71 -241.5q0 -168 -81 -270.5t-225 -102.5q-84 0 -149 43v77q65 -44 142 -44q116 0 173.5 73.5t59.5 189.5q-59 -99 -200 -99q-95 0 -160.5 62t-65.5 161q0 104 69 171t171 67zM307 421q-70 0 -117 -45.5t-47 -116.5q0 -69 47.5 -110.5
t118.5 -41.5q60 0 110.5 37t68.5 93q-8 88 -54 136t-127 48z" />
    <glyph glyph-name="uniF64E" unicode="&#xf64e;" horiz-adv-x="573" 
d="M29 156v52h67q-2 22 -2 35q0 11 2 29h-67v53h78q24 77 91 124.5t155 47.5q84 0 146 -35v-72q-63 36 -135 36q-58 0 -104.5 -26.5t-69.5 -74.5h207v-53h-223q-2 -18 -2 -30q0 -19 3 -34h222v-52h-205q23 -46 68.5 -71.5t103.5 -25.5q82 0 144 41v-71q-68 -41 -156 -41
q-86 0 -152.5 46t-90.5 122h-80z" />
    <glyph glyph-name="uniF653" unicode="&#xf653;" horiz-adv-x="504" 
d="M215 495v106h71v-105q91 -7 146 -42v-77q-80 49 -174 49q-119 0 -119 -67q0 -39 59 -60q20 -7 85 -22q82 -18 127.5 -51t45.5 -96q0 -59 -46.5 -96t-123.5 -44v-106h-71v106q-110 8 -166 48v80q29 -22 83.5 -40.5t114.5 -18.5t94 19t34 54q0 12 -3.5 21t-12 15.5
t-17 11.5t-24 9.5t-27 7.5t-31.5 8t-33 8q-86 22 -127.5 53.5t-41.5 94.5q0 55 41 90.5t116 43.5z" />
    <glyph glyph-name="commaaccent" unicode="&#xf6c3;" horiz-adv-x="232" 
d="M55 -235l57 180h81l-76 -180h-62z" />
    <glyph glyph-name="cyrbreve" unicode="&#xf6d4;" horiz-adv-x="485" 
d="M252 563q-73 0 -119 42t-46 113h69q0 -42 25.5 -67t69.5 -25t69.5 25t26.5 67h69q0 -70 -46.5 -112.5t-117.5 -42.5z" />
    <glyph glyph-name="uniF6DC" unicode="&#xf6dc;" 
d="M97 0v74h197v538l-157 -88v78l165 98h71v-626h188v-74h-464z" />
    <glyph glyph-name="uniF721" unicode="&#xf721;" horiz-adv-x="547" 
d="M294 -12q-84 0 -139.5 28.5t-55.5 83.5q0 42 35 70h-69v53h411v-53h-250q-45 -22 -45 -54q0 -26 30 -41.5t91 -15.5q82 0 150 28v-73q-66 -26 -158 -26zM265 497q83 0 135.5 -27.5t52.5 -82.5q0 -21 -9.5 -38.5t-22.5 -24.5h55v-53h-411v53h265q42 15 42 47q0 55 -115 55
q-79 0 -147 -27v72q70 26 155 26z" />
    <glyph glyph-name="uniF722" unicode="&#xf722;" horiz-adv-x="593" 
d="M117 0v66h-78v53h78v57h-78v54h78v255h239q86 0 133.5 -44t47.5 -113q0 -70 -49 -111t-135 -41h-157v-57h196v-53h-196v-66h-79zM196 230h145q117 0 117 93t-117 93h-145v-186z" />
    <glyph glyph-name="uniF725" unicode="&#xf725;" horiz-adv-x="538" 
d="M54 185v64h70v61q0 90 54 138.5t154 48.5q83 0 146 -35v-75q-62 39 -138 39q-138 0 -138 -119v-58h226v-64h-226v-61q0 -38 -22 -55h306v-69h-432v69h27q43 0 43 69v47h-70z" />
    <glyph glyph-name="uniF727" unicode="&#xf727;" horiz-adv-x="577" 
d="M249 0v84h-155v52h155v61h-155v53h137l-183 235h91l151 -196l150 196h91l-186 -235h137v-53h-154v-61h154v-52h-154v-84h-79z" />
    <glyph glyph-name="uniF730" unicode="&#xf730;" horiz-adv-x="621" 
d="M311 497q115 0 189 -75t74 -180t-74 -179.5t-189 -74.5t-189 74.5t-74 179.5t74 180t189 75zM311 59q78 0 130 52.5t52 130.5t-52 131t-130 53t-130 -53t-52 -131t52 -130.5t130 -52.5z" />
    <glyph glyph-name="uniF731" unicode="&#xf731;" horiz-adv-x="368" 
d="M190 0v397l-156 -88v78l165 98h71v-485h-80z" />
    <glyph glyph-name="uniF732" unicode="&#xf732;" horiz-adv-x="567" 
d="M54 0v61l90 49q114 64 123 70q29 18 46 29.5t40 31.5t34.5 41t11.5 43q0 46 -35 72.5t-96 26.5q-100 0 -200 -83v80q92 76 207 76q93 0 149 -45t56 -117q0 -110 -156 -192l-128 -70h310v-73h-452z" />
    <glyph glyph-name="uniF733" unicode="&#xf733;" horiz-adv-x="560" 
d="M234 -204q-124 0 -205 51v83q87 -59 200 -59q79 0 135 40.5t56 113.5q0 70 -49 109t-135 39q-44 0 -80 -11v57l209 193h-308v73h418v-61l-202 -187q92 -4 160.5 -60.5t68.5 -151.5q0 -105 -76.5 -167t-191.5 -62z" />
    <glyph glyph-name="uniF734" unicode="&#xf734;" horiz-adv-x="634" 
d="M408 -200v200h-373v63l374 422h78v-412h115v-73h-115v-200h-79zM129 73h279v310z" />
    <glyph glyph-name="uniF735" unicode="&#xf735;" horiz-adv-x="593" 
d="M252 -204q-112 0 -193 46v81q85 -52 191 -52q85 0 142.5 44.5t57.5 113.5t-52 110t-143 41q-84 0 -168 -29l45 334h349v-73h-288l-24 -176q48 12 105 12q112 0 184.5 -60.5t72.5 -158.5q0 -104 -79.5 -168.5t-199.5 -64.5z" />
    <glyph glyph-name="uniF736" unicode="&#xf736;" horiz-adv-x="641" 
d="M335 -12q-124 0 -195 86.5t-71 241.5q0 170 82 283t224 113q84 0 149 -43v-77q-65 44 -142 44q-59 0 -104.5 -24t-72.5 -65.5t-41 -91t-15 -104.5q27 45 79 71.5t121 26.5q94 0 160 -62.5t66 -160.5q0 -104 -69 -171t-171 -67zM331 64q70 0 117 45.5t47 115.5
q0 69 -47.5 111t-118.5 42q-60 0 -110.5 -37t-68.5 -93q8 -88 54 -136t127 -48z" />
    <glyph glyph-name="uniF737" unicode="&#xf737;" horiz-adv-x="543" 
d="M104 -200l309 612h-372v73h465v-61l-316 -624h-86z" />
    <glyph glyph-name="uniF738" unicode="&#xf738;" horiz-adv-x="645" 
d="M444 370q68 -18 107 -64.5t39 -113.5q0 -93 -76.5 -148.5t-190.5 -55.5t-191 55.5t-77 148.5q0 67 40 113t108 65q-52 21 -82.5 61.5t-30.5 96.5q0 81 66 132.5t167 51.5t167 -51.5t66 -132.5q0 -55 -30 -96t-82 -62zM167 521q0 -53 44.5 -86.5t111.5 -33.5t111.5 33.5
t44.5 86.5q0 55 -44.5 89t-111.5 34t-111.5 -34t-44.5 -89zM323 57q78 0 132 40t54 99q0 62 -53 99.5t-133 37.5t-133 -37.5t-53 -99.5q0 -59 54 -99t132 -40z" />
    <glyph glyph-name="uniF739" unicode="&#xf739;" horiz-adv-x="640" 
d="M307 497q124 0 195 -86.5t71 -241.5q0 -168 -81 -270.5t-225 -102.5q-84 0 -149 43v77q65 -44 142 -44q116 0 173.5 73.5t59.5 189.5q-59 -99 -200 -99q-95 0 -160.5 62t-65.5 161q0 104 69 171t171 67zM311 421q-70 0 -117 -45.5t-47 -116.5q0 -69 47.5 -110.5
t118.5 -41.5q60 0 110.5 37t68.5 93q-8 88 -54 136t-127 48z" />
    <glyph glyph-name="uniFEFF" unicode="&#xfeff;" horiz-adv-x="0" 
 />
    <glyph glyph-name="Q.alt01" horiz-adv-x="850" 
d="M421 712q151 0 252.5 -103.5t101.5 -258.5q0 -143 -88 -244l91 -106h-91l-50 59q-91 -71 -216 -71q-151 0 -252 103.5t-101 258.5t101 258.5t252 103.5zM421 64q96 0 164 56l-176 205h92l132 -156q59 78 59 181q0 122 -78 204t-193 82q-114 0 -192 -82t-78 -204t78 -204
t192 -82z" />
    <glyph glyph-name="cyrbreve.cap" horiz-adv-x="563" 
d="M258 747q-75 0 -121.5 42t-47.5 113h70q0 -42 26 -67t73 -25q45 0 71 25t27 67h70q0 -70 -48 -112.5t-120 -42.5z" />
    <glyph glyph-name="idieresis_idieresis" horiz-adv-x="503" 
d="M332 0v485h79v-485h-79zM202 646q0 22 14.5 36t35.5 14t35 -14t14 -36q0 -21 -14 -35t-35 -14t-35.5 14t-14.5 35zM92 0v485h79v-485h-79zM-20 646q0 22 14.5 36t35.5 14t35.5 -14t14.5 -36q0 -21 -14.5 -35t-35.5 -14t-35.5 14t-14.5 35zM423 646q0 22 14.5 36t35.5 14
t35.5 -14t14.5 -36q0 -21 -14.5 -35t-35.5 -14t-35.5 14t-14.5 35z" />
    <glyph glyph-name="uniF64E.mono" 
d="M60 156v52h67q-2 22 -2 35q0 11 2 29h-67v53h78q24 77 91 124.5t155 47.5q84 0 146 -35v-72q-63 36 -135 36q-58 0 -104.5 -26.5t-69.5 -74.5h207v-53h-223q-2 -18 -2 -30q0 -19 3 -34h222v-52h-205q23 -46 68.5 -71.5t103.5 -25.5q82 0 144 41v-71q-68 -41 -156 -41
q-86 0 -152.5 46t-90.5 122h-80z" />
    <glyph glyph-name="pesolow.mono" 
d="M93 0v290h-77v68h77v127h246q76 0 122 -34.5t58 -92.5h71v-68h-70q-11 -61 -59 -95.5t-125 -34.5h-164v-160h-79zM325 417h-153v-189h153q56 0 86.5 24t30.5 71q0 45 -31 69.5t-86 24.5z" />
    <glyph glyph-name="uni0438_uni043D" horiz-adv-x="986" 
d="M83 0v485h80v-369l300 369h74v-201h286v201h79v-485h-79v213h-286v-213h-80v368l-300 -368h-74z" />
    <glyph glyph-name="franclow.mono" 
d="M137 0v66h-76v53h76v366h391v-69h-312v-148h246v-67h-246v-82h129v-53h-129v-66h-79z" />
    <glyph glyph-name="uniF727.mono" 
d="M279 0v84h-155v52h155v61h-155v53h137l-183 235h91l151 -196l150 196h91l-186 -235h137v-53h-154v-61h154v-52h-154v-84h-79z" />
    <glyph glyph-name="uniF653.mono" 
d="M283 495v106h71v-105q91 -7 146 -42v-77q-80 49 -174 49q-119 0 -119 -67q0 -39 59 -60q21 -7 85 -22q82 -18 127.5 -51t45.5 -96q0 -59 -46.5 -96t-123.5 -44v-106h-71v106q-110 8 -166 48v80q29 -22 83.5 -40.5t114.5 -18.5t94 19t34 54q0 12 -3.5 21t-12 15.5
t-17 11.5t-24 9.5t-27 7.5t-31.5 8t-33 8q-86 22 -127.5 53.5t-41.5 94.5q0 55 41 90.5t116 43.5z" />
    <glyph glyph-name="uniF725.mono" 
d="M88 185v64h70v61q0 90 54 138.5t154 48.5q83 0 146 -35v-75q-62 39 -138 39q-138 0 -138 -119v-58h226v-64h-226v-61q0 -38 -22 -55h306v-69h-432v69h27q43 0 43 69v47h-70z" />
    <glyph glyph-name="uniF721.mono" 
d="M331 -12q-84 0 -139.5 28.5t-55.5 83.5q0 42 35 70h-69v53h411v-53h-250q-45 -22 -45 -54q0 -26 30 -41.5t91 -15.5q82 0 150 28v-73q-66 -26 -158 -26zM302 497q83 0 135.5 -27.5t52.5 -82.5q0 -21 -9.5 -38.5t-22.5 -24.5h55v-53h-411v53h265q42 15 42 47q0 55 -115 55
q-79 0 -147 -27v72q70 26 155 26z" />
    <glyph glyph-name="tilde.cap" horiz-adv-x="518" 
d="M334 771q-29 0 -74 27.5t-63 27.5q-35 0 -41 -51h-53q2 49 26.5 81t63.5 32q29 0 74.5 -27t63.5 -27q20 0 28 12.5t13 37.5h52q-1 -49 -25 -81t-65 -32z" />
    <glyph glyph-name="Euro.mono" 
d="M26 408v66h94q29 107 110 172.5t200 65.5q101 0 172 -48v-79q-74 52 -164 52q-85 0 -144.5 -43t-86.5 -120h244v-66h-260q-4 -25 -4 -49q0 -32 2 -42h262v-66h-251q21 -87 82.5 -137.5t155.5 -50.5q109 0 180 65v-83q-76 -57 -188 -57q-125 0 -209 72t-106 191h-89v66h80
q-2 11 -2 43q0 29 3 48h-81z" />
    <glyph glyph-name="sterling.mono" 
d="M75 0v73h19q54 0 54 82v139h-73v71h73v120q0 109 61 168t171 59q98 0 162 -42v-79q-66 45 -151 45q-79 0 -120.5 -41t-41.5 -121v-109h269v-71h-269v-165q0 -41 -24 -56h344v-73h-474z" />
    <glyph glyph-name="yen.mono" 
d="M278 0v140h-208v66h208v91h-208v66h181l-227 337h94l202 -306l203 306h91l-227 -337h181v-66h-209v-91h209v-66h-209v-140h-81z" />
    <glyph glyph-name="dollar.mono" 
d="M274 710v103h81v-103q103 -10 177 -56v-83q-103 65 -217 65q-82 0 -123 -31t-41 -78q0 -13 3 -24.5t10.5 -21t13.5 -16.5t21 -14.5t23 -12t28.5 -11t29 -9t33 -9.5t32.5 -9q43 -13 68.5 -22.5t60.5 -27.5t54.5 -38t34 -51.5t14.5 -69.5q0 -86 -62.5 -139t-159.5 -62v-102
h-81v102q-135 10 -219 72v90q40 -35 110.5 -61.5t144.5 -26.5q80 0 132 34t52 92q0 25 -10.5 44.5t-24 32.5t-43 25.5t-51 19.5t-64.5 19q-58 16 -92 28.5t-70.5 35t-53.5 55.5t-17 79q0 74 54 122.5t152 58.5z" />
    <glyph glyph-name="hungarumlaut.cap" horiz-adv-x="580" 
d="M288 763l95 134h100l-120 -134h-75zM109 763l96 134h100l-120 -134h-76z" />
    <glyph glyph-name="T_h" horiz-adv-x="1092" 
d="M274 0v626h-239v74h609v-288q75 85 190 85q91 0 137.5 -53t46.5 -149v-295h-79v278q0 144 -133 144q-47 0 -93 -29t-69 -68v-325h-79v626h-209v-626h-82z" />
    <glyph glyph-name="f_j" horiz-adv-x="610" 
d="M201 0h-80v416h-95v69h95v77q0 68 36 107t106 39q63 0 104 -19v-72q-44 20 -84 20q-82 0 -82 -89v-63h313v-534q0 -79 -40.5 -117t-105.5 -38q-54 0 -88 18v72q33 -19 71 -19q84 0 84 95v454h-234v-416zM473 594q-23 0 -38 16t-15 39t15 38.5t38 15.5t39.5 -15.5
t16.5 -38.5t-16.5 -39t-39.5 -16z" />
    <glyph glyph-name="Q.alt02" horiz-adv-x="849" 
d="M421 712q151 0 252.5 -103.5t101.5 -258.5q0 -142 -87.5 -243.5t-222.5 -115.5q15 -4 114.5 -46.5t154.5 -42.5q40 0 68 19v-75q-28 -16 -73 -16q-67 0 -177 49.5t-157 49.5q-88 0 -150 -60v80q43 34 99 47q-123 26 -199.5 123t-76.5 231q0 155 101 258.5t252 103.5z
M421 64q115 0 193 82t78 204t-78 204t-193 82q-114 0 -192 -82t-78 -204t78 -204t192 -82z" />
    <glyph glyph-name="uniF722.mono" 
d="M138 0v66h-78v53h78v57h-78v54h78v255h239q86 0 133.5 -44t47.5 -113q0 -70 -49 -111t-135 -41h-157v-57h196v-53h-196v-66h-79zM217 230h145q117 0 117 93t-117 93h-145v-186z" />
    <glyph glyph-name="f_f_t" horiz-adv-x="1041" 
d="M887 -12q-69 0 -104 40t-35 108v280h-233v-416h-80v416h-234v-416h-80v416h-95v69h95v77q0 68 36 107t106 39q63 0 104 -19v-72q-44 20 -84 20q-82 0 -82 -89v-63h234v77q0 68 36 107t106 39q63 0 104 -19v-72q-44 20 -84 20q-82 0 -82 -89v-63h233v147h80v-147h166v-69
h-166v-257q0 -54 19 -76t63 -22q47 0 78 20v-71q-34 -22 -101 -22z" />
    <glyph glyph-name="uni20B4.mono" 
d="M333 -12q-107 0 -167.5 41.5t-60.5 115.5q0 73 54 118h-89v65h486v-65h-290q-77 -40 -77 -104q0 -96 155 -96q99 0 175 39v-79q-81 -35 -186 -35zM70 394v65h315q55 34 55 86q0 92 -149 92q-89 0 -166 -35v77q68 33 174 33q107 0 166.5 -42t59.5 -115q0 -60 -42 -96h73
v-65h-486z" />
    <glyph glyph-name="breve.cap" horiz-adv-x="519" 
d="M258 754q-59 0 -99.5 39.5t-42.5 103.5h62q1 -37 23 -61t57 -24q34 0 56 24t24 61h61q0 -63 -41 -103t-100 -40z" />
    <glyph glyph-name="dotaccent.cap" horiz-adv-x="471" 
d="M182 828q0 21 14.5 35.5t35.5 14.5q22 0 36 -14.5t14 -35.5q0 -22 -14 -36t-36 -14q-21 0 -35.5 14t-14.5 36z" />
    <glyph glyph-name="caron.cap" horiz-adv-x="533" 
d="M226 763l-111 134h77l75 -90l75 90h76l-111 -134h-81z" />
    <glyph glyph-name="ring.cap" horiz-adv-x="522" 
d="M258 927q39 0 67.5 -28t28.5 -68t-28.5 -68.5t-67.5 -28.5q-42 0 -69.5 28t-27.5 69q0 40 27.5 68t69.5 28zM258 776q23 0 38.5 16t15.5 39t-15.5 39t-38.5 16t-39.5 -16t-16.5 -39t16.5 -39t39.5 -16z" />
    <glyph glyph-name="grave.cap" horiz-adv-x="516" 
d="M263 763l-121 134h101l95 -134h-75z" />
    <glyph glyph-name="acute.cap" horiz-adv-x="488" 
d="M146 763l95 134h100l-120 -134h-75z" />
    <glyph glyph-name="macron.cap" horiz-adv-x="534" 
d="M135 800v60h258v-60h-258z" />
    <glyph glyph-name="dieresis.cap" horiz-adv-x="512" 
d="M115 829q0 21 14 35t35 14q22 0 36 -14t14 -35q0 -22 -14 -36t-36 -14q-21 0 -35 14t-14 36zM316 829q0 21 14.5 35t35.5 14t35 -14t14 -35q0 -22 -14 -36t-35 -14t-35.5 14t-14.5 36z" />
    <glyph glyph-name="aring.alt" 
d="M310 743q40 0 68.5 -28.5t28.5 -68.5q0 -39 -28.5 -67.5t-68.5 -28.5t-68.5 28.5t-28.5 67.5q0 40 28.5 68.5t68.5 28.5zM310 592q23 0 39 15.5t16 38.5q0 24 -16 39.5t-39 15.5t-39 -15.5t-16 -39.5q0 -23 16 -38.5t39 -15.5zM475 485h79v-485h-79v75q-65 -87 -185 -87
q-106 0 -174 74.5t-68 179.5q0 106 68 180.5t174 74.5q118 0 185 -87v75zM475 164v157q-21 46 -65.5 75.5t-99.5 29.5q-78 0 -129.5 -53t-51.5 -131t51.5 -130.5t129.5 -52.5q54 0 98.5 29.5t66.5 75.5z" />
    <glyph glyph-name="uni0438_uni0439" horiz-adv-x="994" 
d="M83 0v485h80v-369l300 369h74v-369l299 369h74v-485h-79v368l-301 -368h-73v368l-300 -368h-74zM683 558q-74 0 -119.5 42t-45.5 113h69q0 -42 25.5 -67t70.5 -25q44 0 69 25t25 67h70q0 -71 -46.5 -113t-117.5 -42z" />
    <glyph glyph-name="uni0418_uni0419" horiz-adv-x="1265" 
d="M97 0v700h80v-564l425 564h71v-564l425 564h71v-700h-80v566l-428 -566h-68v566l-428 -566h-68zM881 744q-73 0 -121 43t-48 113h70q0 -42 26.5 -67.5t71.5 -25.5t72 25.5t27 67.5h70q0 -70 -47.5 -113t-120.5 -43z" />
    <glyph glyph-name="gcommaaccent.alt" horiz-adv-x="616" 
d="M294 497q92 0 154 -55l133 56v-67l-93 -41q27 -44 27 -95q0 -61 -34 -110q67 -64 67 -159q0 -96 -70.5 -163t-181.5 -67q-104 0 -177.5 62.5t-75.5 161.5h81q2 -66 51 -109.5t121 -43.5t122 46.5t50 112.5q0 60 -41 107q-56 -40 -133 -40q-99 0 -161 59t-62 143t62 143
t161 59zM294 164q61 0 102.5 37t41.5 94q0 56 -41.5 93.5t-102.5 37.5q-63 0 -104.5 -37.5t-41.5 -93.5q0 -57 41.5 -94t104.5 -37zM367 738l-57 -180h-81l76 180h62z" />
    <glyph glyph-name="gdotaccent.alt" horiz-adv-x="616" 
d="M294 497q92 0 154 -55l133 56v-67l-93 -41q27 -44 27 -95q0 -61 -34 -110q67 -64 67 -159q0 -96 -70.5 -163t-181.5 -67q-104 0 -177.5 62.5t-75.5 161.5h81q2 -66 51 -109.5t121 -43.5t122 46.5t50 112.5q0 60 -41 107q-56 -40 -133 -40q-99 0 -161 59t-62 143t62 143
t161 59zM294 164q61 0 102.5 37t41.5 94q0 56 -41.5 93.5t-102.5 37.5q-63 0 -104.5 -37.5t-41.5 -93.5q0 -57 41.5 -94t104.5 -37zM244 646q0 22 14.5 36t35.5 14q22 0 36 -14t14 -36q0 -21 -14 -35.5t-36 -14.5q-21 0 -35.5 14.5t-14.5 35.5z" />
    <glyph glyph-name="gbreve.alt" horiz-adv-x="616" 
d="M293 569q-58 0 -99 40.5t-43 102.5h62q1 -36 23.5 -60.5t56.5 -24.5q35 0 57 24t23 61h61q-2 -62 -43 -102.5t-98 -40.5zM294 497q92 0 154 -55l133 56v-67l-93 -41q27 -44 27 -95q0 -61 -34 -110q67 -64 67 -159q0 -96 -70.5 -163t-181.5 -67q-104 0 -177.5 62.5
t-75.5 161.5h81q2 -66 51 -109.5t121 -43.5t122 46.5t50 112.5q0 60 -41 107q-56 -40 -133 -40q-99 0 -161 59t-62 143t62 143t161 59zM294 164q61 0 102.5 37t41.5 94q0 56 -41.5 93.5t-102.5 37.5q-63 0 -104.5 -37.5t-41.5 -93.5q0 -57 41.5 -94t104.5 -37z" />
    <glyph glyph-name="circumflex.cap" horiz-adv-x="520" 
d="M107 763l111 134h80l112 -134h-77l-75 90l-74 -90h-77z" />
    <glyph glyph-name="aacute.alt" 
d="M475 485h79v-485h-79v75q-65 -87 -185 -87q-106 0 -174 74.5t-68 179.5q0 106 68 180.5t174 74.5q118 0 185 -87v75zM475 164v157q-21 46 -65.5 75.5t-99.5 29.5q-78 0 -129.5 -53t-51.5 -131t51.5 -130.5t129.5 -52.5q54 0 98.5 29.5t66.5 75.5zM244 577l96 135h100
l-121 -135h-75z" />
    <glyph glyph-name="uni0418_uni041D" horiz-adv-x="1257" 
d="M97 0v700h80v-563l425 563h71v-288h408v288h80v-700h-80v338h-408v-338h-80v565l-428 -565h-68z" />
    <glyph glyph-name="franc.mono" 
d="M108 0v144h-113v66h113v490h481v-74h-400v-223h324v-73h-324v-120h172v-66h-172v-144h-81z" />
    <glyph glyph-name="aogonek.alt" 
d="M572 -196q-53 0 -83 28t-30 71q0 54 40 97h-24v75q-65 -87 -185 -87q-106 0 -174 74.5t-68 179.5q0 106 68 180.5t174 74.5q118 0 185 -87v75h79v-485q-37 -39 -37 -82q0 -29 18.5 -45t49.5 -16q24 0 39 5v-52q-22 -6 -52 -6zM475 164v157q-21 46 -65.5 75.5t-99.5 29.5
q-78 0 -129.5 -53t-51.5 -131t51.5 -130.5t129.5 -52.5q54 0 98.5 29.5t66.5 75.5z" />
    <glyph glyph-name="abreve.alt" 
d="M475 485h79v-485h-79v75q-65 -87 -185 -87q-106 0 -174 74.5t-68 179.5q0 106 68 180.5t174 74.5q118 0 185 -87v75zM475 164v157q-21 46 -65.5 75.5t-99.5 29.5q-78 0 -129.5 -53t-51.5 -131t51.5 -130.5t129.5 -52.5q54 0 98.5 29.5t66.5 75.5zM312 569q-58 0 -99 40.5
t-43 102.5h62q1 -36 23.5 -60.5t56.5 -24.5q35 0 57 24t23 61h61q-2 -62 -43 -102.5t-98 -40.5z" />
    <glyph glyph-name="lira.mono" 
d="M80 0v73h19q54 0 54 82v64h-73v66h73v91h-73v66h73v44q0 108 61.5 167.5t170.5 59.5q99 0 163 -42v-79q-69 45 -152 45q-161 0 -161 -162v-33h247v-66h-247v-91h247v-66h-247v-63q0 -67 -25 -83h345v-73h-475z" />
    <glyph glyph-name="t_t" horiz-adv-x="745" 
d="M277 -12q-69 0 -104 40t-35 108v280h-112v69h112v147h80v-147h234v147h80v-147h166v-69h-166v-257q0 -54 19 -76t63 -22q47 0 78 20v-71q-34 -22 -101 -22q-69 0 -104 40t-35 108v280h-234v-257q0 -54 19 -76t63 -22q47 0 78 20v-71q-34 -22 -101 -22z" />
    <glyph glyph-name="peseta.mono" 
d="M64 537v163h295q96 0 153.5 -44t69.5 -119h69v-69h-69q-12 -76 -70 -119.5t-153 -43.5h-214v-305h-81v468h-76v69h76zM145 379h208q72 0 111.5 31.5t39.5 91.5t-39.5 92t-111.5 32h-208v-247z" />
    <glyph glyph-name="t.alt" horiz-adv-x="367" 
d="M213 -12q-69 0 -104 40t-35 108v496h80v-147h166v-69h-166v-257q0 -54 19 -76t63 -22q47 0 78 20v-71q-34 -22 -101 -22z" />
    <glyph glyph-name="f.alt01" horiz-adv-x="357" 
d="M163 0h-80v562q0 68 36 107t106 39q63 0 104 -19v-72q-44 20 -84 20q-82 0 -82 -89v-63h166v-69h-166v-416z" />
    <glyph glyph-name="gcircumflex.alt" horiz-adv-x="616" 
d="M294 497q92 0 154 -55l133 56v-67l-93 -41q27 -44 27 -95q0 -61 -34 -110q67 -64 67 -159q0 -96 -70.5 -163t-181.5 -67q-104 0 -177.5 62.5t-75.5 161.5h81q2 -66 51 -109.5t121 -43.5t122 46.5t50 112.5q0 60 -41 107q-56 -40 -133 -40q-99 0 -161 59t-62 143t62 143
t161 59zM294 164q61 0 102.5 37t41.5 94q0 56 -41.5 93.5t-102.5 37.5q-63 0 -104.5 -37.5t-41.5 -93.5q0 -57 41.5 -94t104.5 -37zM146 577l112 135h81l111 -135h-77l-75 90l-75 -90h-77z" />
    <glyph glyph-name="twothirds.mono" horiz-adv-x="842" 
d="M189 0l414 700h73l-414 -700h-73zM41 322v50l119 107q39 36 55 58.5t16 47.5q0 26 -19.5 42t-51.5 16q-55 0 -108 -43v68q48 37 113 37q55 0 94.5 -31.5t39.5 -80.5q0 -38 -19.5 -70t-63.5 -74l-73 -70h168v-57h-270zM655 -4q-74 0 -117 29v63q54 -33 111 -33
q37 0 63.5 19.5t26.5 51.5q0 30 -22 48t-63 18q-28 0 -51 -9v44l102 95h-154v57h241v-51l-98 -92q46 -4 79.5 -31.5t33.5 -80.5q0 -57 -44 -92.5t-108 -35.5z" />
    <glyph glyph-name="onethird.mono" horiz-adv-x="842" 
d="M145 0l414 700h73l-414 -700h-73zM161 322v307l-104 -57v68l106 60h66v-378h-68zM635 -4q-74 0 -117 29v63q54 -33 111 -33q37 0 63.5 19.5t26.5 51.5q0 30 -22 48t-63 18q-28 0 -51 -9v44l102 95h-154v57h241v-51l-98 -92q46 -4 79.5 -31.5t33.5 -80.5q0 -57 -44 -92.5
t-108 -35.5z" />
    <glyph glyph-name="uni2155.mono" horiz-adv-x="842" 
d="M155 0l414 700h73l-414 -700h-73zM172 322v307l-104 -57v68l106 60h66v-378h-68zM616 -4q-62 0 -109 26v64q52 -31 107 -31q40 0 66 19t26 53q0 30 -24.5 48.5t-65.5 18.5q-52 0 -95 -15l25 200h203v-57h-152l-9 -80q15 4 43 4q62 0 102.5 -33t40.5 -86q0 -61 -45 -96
t-113 -35z" />
    <glyph glyph-name="uni2156.mono" horiz-adv-x="842" 
d="M198 0l414 700h73l-414 -700h-73zM49 322v50l119 107q39 36 55 58.5t16 47.5q0 26 -19.5 42t-51.5 16q-55 0 -108 -43v68q48 37 113 37q55 0 94.5 -31.5t39.5 -80.5q0 -38 -19.5 -70t-63.5 -74l-73 -70h168v-57h-270zM635 -4q-62 0 -109 26v64q52 -31 107 -31q40 0 66 19
t26 53q0 30 -24.5 48.5t-65.5 18.5q-51 0 -95 -15l25 200h203v-57h-152l-9 -80q15 4 43 4q62 0 102.5 -33t40.5 -86q0 -61 -45 -96t-113 -35z" />
    <glyph glyph-name="uni2157.mono" horiz-adv-x="842" 
d="M179 0l414 700h73l-414 -700h-73zM638 -4q-62 0 -109 26v64q52 -31 107 -31q40 0 66 19t26 53q0 30 -24.5 48.5t-65.5 18.5q-52 0 -95 -15l25 200h203v-57h-152l-9 -80q15 4 43 4q62 0 102.5 -33t40.5 -86q0 -61 -45 -96t-113 -35zM162 317q-74 0 -117 29v63
q54 -33 111 -33q37 0 63.5 19.5t26.5 51.5q0 30 -22 48t-63 18q-28 0 -51 -9v44l102 95h-154v57h241v-51l-98 -92q46 -4 79.5 -31.5t33.5 -80.5q0 -57 -44 -92.5t-108 -35.5z" />
    <glyph glyph-name="uni2158.mono" horiz-adv-x="842" 
d="M203 0l414 700h73l-414 -700h-73zM640 -4q-62 0 -109 26v64q52 -31 107 -31q40 0 66 19t26 53q0 30 -24.5 48.5t-65.5 18.5q-52 0 -95 -15l25 200h203v-57h-152l-9 -80q15 4 43 4q62 0 102.5 -33t40.5 -86q0 -61 -45 -96t-113 -35zM241 322v97h-196v48l194 233h68v-227
h58v-54h-58v-97h-66zM117 473h124v147z" />
    <glyph glyph-name="uni2159.mono" horiz-adv-x="842" 
d="M154 0l414 700h73l-414 -700h-73zM170 322v307l-104 -57v68l106 60h66v-378h-68zM642 -4q-73 0 -111.5 48t-38.5 128q0 91 45 151.5t128 60.5q58 0 86 -22v-60q-35 24 -79 24q-48 0 -79 -32t-33 -88q33 43 96 43q53 0 88.5 -33.5t35.5 -89.5q0 -57 -39.5 -93.5
t-98.5 -36.5zM639 51q32 0 52.5 21t20.5 54q0 31 -21 51t-53 20q-26 0 -47 -15t-33 -39q2 -42 23.5 -67t57.5 -25z" />
    <glyph glyph-name="uni215A.mono" horiz-adv-x="842" 
d="M175 0l414 700h73l-414 -700h-73zM664 -4q-73 0 -111.5 48t-38.5 128q0 91 45 151.5t128 60.5q58 0 86 -22v-60q-35 24 -79 24q-48 0 -79 -32t-33 -88q33 43 96 43q53 0 88.5 -33.5t35.5 -89.5q0 -57 -39.5 -93.5t-98.5 -36.5zM661 51q32 0 52.5 21t20.5 54q0 31 -21 51
t-53 20q-26 0 -47 -15t-33 -39q2 -42 23.5 -67t57.5 -25zM151 317q-62 0 -109 26v64q52 -31 107 -31q40 0 66 19t26 53q0 30 -24.5 48.5t-65.5 18.5q-52 0 -95 -15l25 200h203v-57h-152l-9 -80q15 4 43 4q62 0 102.5 -33t40.5 -86q0 -61 -45 -96t-113 -35z" />
    <glyph glyph-name="seveneighths.mono" horiz-adv-x="865" 
d="M148 0l414 700h73l-414 -700h-73zM645 -4q-66 0 -109.5 30t-43.5 82q0 67 74 95q-25 10 -39.5 31.5t-14.5 47.5q0 46 37.5 74t95.5 28t95 -27.5t37 -74.5q0 -26 -14.5 -47.5t-39.5 -31.5q74 -28 74 -95q0 -52 -43.5 -82t-108.5 -30zM645 51q36 0 60 18t24 44
q0 29 -23.5 46t-60.5 17q-39 0 -62 -17t-23 -46q0 -27 23.5 -44.5t61.5 -17.5zM645 222q31 0 50 14t19 40q0 24 -19.5 39t-49.5 15q-31 0 -51 -15t-20 -39q0 -26 19.5 -40t51.5 -14zM101 322l163 321h-189v57h266v-53l-166 -325h-74z" />
    <glyph glyph-name="fiveeighths.mono" horiz-adv-x="865" 
d="M174 0l414 700h73l-414 -700h-73zM154 317q-62 0 -109 26v64q52 -31 107 -31q40 0 66 19t26 53q0 30 -24.5 48.5t-65.5 18.5q-52 0 -95 -15l25 200h203v-57h-152l-9 -80q15 4 43 4q62 0 102.5 -33t40.5 -86q0 -61 -45 -96t-113 -35zM670 -4q-66 0 -109.5 30t-43.5 82
q0 67 74 95q-25 10 -39.5 31.5t-14.5 47.5q0 46 37.5 74t95.5 28t95 -27.5t37 -74.5q0 -26 -14.5 -47.5t-39.5 -31.5q74 -28 74 -95q0 -52 -43.5 -82t-108.5 -30zM670 51q36 0 60 18t24 44q0 29 -23.5 46t-60.5 17q-39 0 -62 -17t-23 -46q0 -27 23.5 -44.5t61.5 -17.5z
M670 222q31 0 50 14t19 40q0 24 -19.5 39t-49.5 15q-31 0 -51 -15t-20 -39q0 -26 19.5 -40t51.5 -14z" />
    <glyph glyph-name="threeeighths.mono" horiz-adv-x="865" 
d="M174 0l414 700h73l-414 -700h-73zM670 -4q-66 0 -109.5 30t-43.5 82q0 67 74 95q-25 10 -39.5 31.5t-14.5 47.5q0 46 37.5 74t95.5 28t95 -27.5t37 -74.5q0 -26 -14.5 -47.5t-39.5 -31.5q74 -28 74 -95q0 -52 -43.5 -82t-108.5 -30zM670 51q36 0 60 18t24 44
q0 29 -23.5 46t-60.5 17q-39 0 -62 -17t-23 -46q0 -27 23.5 -44.5t61.5 -17.5zM670 222q31 0 50 14t19 40q0 24 -19.5 39t-49.5 15q-31 0 -51 -15t-20 -39q0 -26 19.5 -40t51.5 -14zM157 317q-74 0 -117 29v63q54 -33 111 -33q37 0 63.5 19.5t26.5 51.5q0 30 -22 48t-63 18
q-28 0 -51 -9v44l102 95h-154v57h241v-51l-98 -92q46 -4 79.5 -31.5t33.5 -80.5q0 -57 -44 -92.5t-108 -35.5z" />
    <glyph glyph-name="oneeighth.mono" horiz-adv-x="865" 
d="M149 0l414 700h73l-414 -700h-73zM165 322v307l-104 -57v68l106 60h66v-378h-68zM647 -4q-66 0 -109.5 30t-43.5 82q0 67 74 95q-25 10 -39.5 31.5t-14.5 47.5q0 46 37.5 74t95.5 28t95 -27.5t37 -74.5q0 -26 -14.5 -47.5t-39.5 -31.5q74 -28 74 -95q0 -52 -43.5 -82
t-108.5 -30zM647 51q36 0 60 18t24 44q0 29 -23.5 46t-60.5 17q-39 0 -62 -17t-23 -46q0 -27 23.5 -44.5t61.5 -17.5zM647 222q31 0 50 14t19 40q0 24 -19.5 39t-49.5 15q-31 0 -51 -15t-20 -39q0 -26 19.5 -40t51.5 -14z" />
    <glyph glyph-name="onequarter.mono" horiz-adv-x="842" 
d="M158 0l414 700h73l-414 -700h-73zM173 322v307l-104 -57v68l106 60h66v-378h-68zM650 1v97h-196v48l194 233h68v-227h58v-54h-58v-97h-66zM526 152h124v147z" />
    <glyph glyph-name="onehalf.mono" horiz-adv-x="842" 
d="M141 0l414 700h73l-414 -700h-73zM156 322v307l-104 -57v68l106 60h66v-378h-68zM518 1v50l119 107q39 36 55 58.5t16 47.5q0 26 -19.5 42t-51.5 16q-55 0 -108 -43v68q48 37 113 37q55 0 94.5 -31.5t39.5 -80.5q0 -38 -19.5 -70t-63.5 -74l-73 -70h168v-57h-270z" />
    <glyph glyph-name="a.alt" 
d="M475 485h79v-485h-79v75q-65 -87 -185 -87q-106 0 -174 74.5t-68 179.5q0 106 68 180.5t174 74.5q118 0 185 -87v75zM475 164v157q-21 46 -65.5 75.5t-99.5 29.5q-78 0 -129.5 -53t-51.5 -131t51.5 -130.5t129.5 -52.5q54 0 98.5 29.5t66.5 75.5z" />
    <glyph glyph-name="g.alt" horiz-adv-x="616" 
d="M294 497q92 0 154 -55l133 56v-67l-93 -41q27 -44 27 -95q0 -61 -34 -110q67 -64 67 -159q0 -96 -70.5 -163t-181.5 -67q-104 0 -177.5 62.5t-75.5 161.5h81q2 -66 51 -109.5t121 -43.5t122 46.5t50 112.5q0 60 -41 107q-56 -40 -133 -40q-99 0 -161 59t-62 143t62 143
t161 59zM294 164q61 0 102.5 37t41.5 94q0 56 -41.5 93.5t-102.5 37.5q-63 0 -104.5 -37.5t-41.5 -93.5q0 -57 41.5 -94t104.5 -37z" />
    <glyph glyph-name="threequarters.mono" horiz-adv-x="842" 
d="M178 0l414 700h73l-414 -700h-73zM671 1v97h-196v48l194 233h68v-227h58v-54h-58v-97h-66zM547 152h124v147zM162 317q-74 0 -117 29v63q54 -33 111 -33q37 0 63.5 19.5t26.5 51.5q0 30 -22 48t-63 18q-28 0 -51 -9v44l102 95h-154v57h241v-51l-98 -92q46 -4 79.5 -31.5
t33.5 -80.5q0 -57 -44 -92.5t-108 -35.5z" />
    <glyph glyph-name="Idieresis_Idieresis" horiz-adv-x="543" 
d="M361 0v700h81v-700h-81zM101 0v700h81v-700h-81zM-10 829q0 21 14.5 35t35.5 14t35.5 -14t14.5 -35q0 -22 -14.5 -36t-35.5 -14t-35.5 14t-14.5 36zM453 829q0 21 14.5 35t35.5 14t35.5 -14t14.5 -35q0 -22 -14.5 -36t-35.5 -14t-35.5 14t-14.5 36zM222 829q0 21 14 35
t36 14q21 0 35 -14t14 -35q0 -22 -14 -36t-35 -14q-22 0 -36 14t-14 36z" />
    <glyph glyph-name="O_C" horiz-adv-x="1313" 
d="M1053 -12q-107 0 -191 49.5t-129 137.5q-45 -86 -127.5 -136.5t-184.5 -50.5q-151 0 -252 103.5t-101 258.5t101 258.5t252 103.5q102 0 184.5 -50.5t127.5 -136.5q45 88 129 137.5t191 49.5q112 0 195 -51v-83q-89 58 -194 58q-118 0 -198.5 -81.5t-80.5 -204.5
q0 -125 80.5 -205.5t200.5 -80.5q121 0 207 68v-83q-85 -61 -210 -61zM421 64q115 0 193 82t78 204t-78 204t-193 82q-114 0 -192 -82t-78 -204t78 -204t192 -82z" />
    <glyph glyph-name="O_O" horiz-adv-x="1467" 
d="M1045 712q151 0 252 -103.5t101 -258.5t-101 -258.5t-252 -103.5q-103 0 -186 51t-126 136q-45 -86 -127.5 -136.5t-184.5 -50.5q-151 0 -252 103.5t-101 258.5t101 258.5t252 103.5q102 0 184.5 -50.5t127.5 -136.5q43 85 126 136t186 51zM1045 64q115 0 193 82t78 204
t-78 204t-193 82q-114 0 -192 -82t-78 -204t78 -204t192 -82zM421 64q115 0 193 82t78 204t-78 204t-193 82q-114 0 -192 -82t-78 -204t78 -204t192 -82z" />
    <glyph glyph-name="o_c" horiz-adv-x="968" 
d="M311 497q73 0 130.5 -31t90.5 -86q36 55 93 86t128 31q81 0 146 -35v-72q-66 36 -135 36q-81 0 -135.5 -51.5t-54.5 -132.5q0 -80 54.5 -131.5t135.5 -51.5q79 0 144 41v-71q-71 -41 -156 -41q-144 0 -220 116q-33 -54 -90 -85t-131 -31q-115 0 -189 74.5t-74 179.5
t74 180t189 75zM311 59q78 0 130 52t52 133q0 77 -52 129.5t-130 52.5t-130 -53t-52 -131t52 -130.5t130 -52.5z" />
    <glyph glyph-name="o_o" horiz-adv-x="1066" 
d="M756 497q115 0 189 -75t74 -180t-74 -179.5t-189 -74.5q-74 0 -131.5 31t-91.5 86q-34 -55 -91.5 -86t-130.5 -31q-115 0 -189 74.5t-74 179.5t74 180t189 75q73 0 130.5 -31.5t91.5 -86.5q34 55 91.5 86.5t131.5 31.5zM311 59q78 0 130 51.5t52 131.5t-52 132t-130 52
t-130 -53t-52 -131t52 -130.5t130 -52.5zM756 59q78 0 130 52.5t52 130.5t-52 131t-130 53t-130 -53t-52 -131q0 -80 52 -131.5t130 -51.5z" />
    <glyph glyph-name="liralow" horiz-adv-x="548" 
d="M54 0v69h27q43 0 43 60v21h-70v53h70v60h-70v53h70q1 85 55.5 133t152.5 48q83 0 146 -35v-74q-70 38 -141 38q-137 0 -137 -110h223v-53h-223v-60h223v-53h-223q0 -64 -22 -81h308v-69h-432z" />
    <glyph glyph-name="franclow" horiz-adv-x="532" 
d="M99 0v66h-76v53h76v366h391v-69h-312v-148h246v-67h-246v-82h129v-53h-129v-66h-79z" />
    <glyph glyph-name="pesolow" horiz-adv-x="624" 
d="M93 0v290h-77v68h77v127h246q76 0 122 -34.5t58 -92.5h71v-68h-70q-11 -61 -59 -95.5t-125 -34.5h-164v-160h-79zM325 417h-153v-189h153q56 0 86.5 24t30.5 71q0 45 -31 69.5t-86 24.5z" />
    <glyph glyph-name="endash.cap" horiz-adv-x="734" 
d="M100 343v73h535v-73h-535z" />
    <glyph glyph-name="emdash.cap" horiz-adv-x="907" 
d="M100 343v73h708v-73h-708z" />
    <glyph glyph-name="hyphen.cap" horiz-adv-x="483" 
d="M100 343v73h283v-73h-283z" />
    <glyph glyph-name="bracketleft.cap" horiz-adv-x="392" 
d="M93 -110v912h260v-66h-184v-780h184v-66h-260z" />
    <glyph glyph-name="bracketright.cap" horiz-adv-x="392" 
d="M299 802v-912h-259v66h183v780h-183v66h259z" />
    <glyph glyph-name="braceleft.cap" horiz-adv-x="371" 
d="M332 -110h-60q-66 0 -103.5 37t-37.5 105v148q0 30 -2 49t-9 39.5t-23.5 31.5t-42.5 14v64q34 4 52 24.5t21.5 43.5t3.5 63v151q0 68 37.5 105t103.5 37h60v-66h-42q-83 0 -83 -84v-163q0 -57 -15 -92.5t-55 -50.5q41 -15 55.5 -50t14.5 -93v-163q0 -84 83 -84h42v-66z
" />
    <glyph glyph-name="braceright.cap" horiz-adv-x="371" 
d="M99 -110h-60v66h43q82 0 82 84v163q0 58 14.5 93t55.5 50q-41 15 -55.5 50t-14.5 93v163q0 84 -82 84h-43v66h60q66 0 103.5 -37t37.5 -105v-151q0 -40 3.5 -63t21.5 -43.5t52 -24.5v-64q-26 -3 -42.5 -14t-23.5 -31.5t-9 -39.5t-2 -49v-148q0 -68 -37.5 -105t-103.5 -37
z" />
    <glyph glyph-name="guillemotright.cap" horiz-adv-x="552" 
d="M358 552l149 -182v-41l-149 -182h-82l163 203l-163 202h82zM127 552l149 -182v-41l-149 -182h-84l164 203l-164 202h84z" />
    <glyph glyph-name="guillemotleft.cap" horiz-adv-x="553" 
d="M194 147l-149 182v41l149 182h82l-164 -203l164 -202h-82zM425 147l-149 182v41l149 182h84l-164 -203l164 -202h-84z" />
    <glyph glyph-name="guilsinglright.cap" horiz-adv-x="321" 
d="M44 147l163 202l-163 203h83l149 -182v-41l-149 -182h-83z" />
    <glyph glyph-name="guilsinglleft.cap" horiz-adv-x="320" 
d="M194 147l-149 182v41l149 182h82l-164 -203l164 -202h-82z" />
    <glyph glyph-name="parenleft.cap" horiz-adv-x="365" 
d="M324 -110h-84q-148 191 -148 456t148 456h84q-156 -198 -156 -456q0 -261 156 -456z" />
    <glyph glyph-name="parenright.cap" horiz-adv-x="365" 
d="M124 -110h-83q156 203 156 456q0 249 -156 456h83q149 -192 149 -456t-149 -456z" />
    <glyph glyph-name="exclamdown.cap" horiz-adv-x="289" 
d="M94 0l15 483h73l15 -483h-103zM90 651q0 23 16 39t39 16t39.5 -16t16.5 -39t-16.5 -39.5t-39.5 -16.5t-39 16.5t-16 39.5z" />
    <glyph glyph-name="questiondown.cap" horiz-adv-x="478" 
d="M290 483v-145q-71 -13 -125 -54t-54 -99q0 -56 41.5 -88.5t106.5 -32.5q87 0 173 59v-75q-76 -56 -185 -56q-90 0 -154 52t-64 137q0 72 53.5 122.5t130.5 75.5v104h77zM305 651q0 -23 -16.5 -39.5t-39.5 -16.5t-39 16.5t-16 39.5t16 39t39 16t39.5 -16t16.5 -39z" />
    <glyph glyph-name="f_t" horiz-adv-x="728" 
d="M574 -12q-69 0 -104 40t-35 108v280h-234v-416h-80v416h-95v69h95v77q0 68 36 107t106 39q63 0 104 -19v-72q-44 20 -84 20q-82 0 -82 -89v-63h234v147h80v-147h166v-69h-166v-257q0 -54 19 -76t63 -22q47 0 78 20v-71q-34 -22 -101 -22z" />
    <glyph glyph-name="uni20B6.mono" 
d="M111 0v152h-100v66h100v91h-100v66h100v325h281q105 0 165 -53.5t60 -140.5q0 -89 -60 -143t-165 -54h-200v-91h287v-66h-287v-152h-81zM192 375h193q72 0 111.5 32.5t39.5 92.5q0 61 -39.5 94t-111.5 33h-193v-252z" />
    <glyph glyph-name="liralow.mono" 
d="M88 0v69h27q43 0 43 60v21h-70v53h70v60h-70v53h70q1 85 55.5 133t152.5 48q83 0 146 -35v-74q-70 38 -141 38q-137 0 -137 -110h223v-53h-223v-60h223v-53h-223q0 -64 -22 -81h308v-69h-432z" />
    <glyph glyph-name="H_B" horiz-adv-x="1212" 
d="M97 0v700h81v-288h406v288h306q94 0 148 -45t54 -125q0 -56 -25 -94t-68 -54q70 -11 111 -60.5t41 -126.5q0 -88 -62 -141.5t-169 -53.5h-336v338h-406v-338h-81zM665 74h240q76 0 117.5 34t41.5 98q0 63 -41.5 96t-117.5 33h-240v-261zM665 407h211q135 0 135 108
q0 54 -34.5 82.5t-100.5 28.5h-211v-219z" />
    <glyph glyph-name="H_D" horiz-adv-x="1265" 
d="M97 0v700h81v-288h406v288h232q169 0 274.5 -97t105.5 -253t-105.5 -253t-274.5 -97h-232v338h-406v-338h-81zM665 74h142q142 0 224 74.5t82 201.5t-82 201.5t-224 74.5h-142v-552z" />
    <glyph glyph-name="H_E" horiz-adv-x="1127" 
d="M97 0v700h81v-288h406v288h483v-74h-402v-214h329v-74h-329v-264h417v-74h-498v338h-406v-338h-81z" />
    <glyph glyph-name="H_F" horiz-adv-x="1110" 
d="M97 0v700h81v-288h406v288h481v-74h-400v-223h323v-74h-323v-329h-81v338h-406v-338h-81z" />
    <glyph glyph-name="H_K" horiz-adv-x="1152" 
d="M665 700v-300l316 300h107l-340 -320l393 -380h-113l-363 352v-352h-81v338h-406v-338h-81v700h81v-288h406v288h81z" />
    <glyph glyph-name="H_M" horiz-adv-x="1335" 
d="M97 0v700h81v-288h406v288h80l248 -334l248 334h79v-700h-80v577l-222 -298h-49l-223 296v-575h-81v338h-406v-338h-81z" />
    <glyph glyph-name="H_N" horiz-adv-x="1264" 
d="M97 0v700h81v-288h406v288h72l433 -559v559h79v-700h-69l-434 561v-561h-81v338h-406v-338h-81z" />
    <glyph glyph-name="H_U" horiz-adv-x="1245" 
d="M97 0v700h81v-288h406v288h81v-404q0 -111 55.5 -171.5t150.5 -60.5t150.5 60.5t55.5 171.5v404h82v-402q0 -149 -80 -229.5t-208 -80.5t-207.5 80.5t-79.5 229.5v40h-406v-338h-81z" />
    <glyph glyph-name="H_P" horiz-adv-x="1151" 
d="M584 0v338h-406v-338h-81v700h81v-288h406v288h295q106 0 166 -54t60 -142q0 -90 -60 -144.5t-166 -54.5h-214v-305h-81zM665 379h208q72 0 111.5 31.5t39.5 91.5t-39.5 92t-111.5 32h-208v-247z" />
    <glyph glyph-name="H_R" horiz-adv-x="1222" 
d="M584 0v338h-406v-338h-81v700h81v-288h406v288h314q104 0 163.5 -53t59.5 -139q0 -74 -42 -124t-121 -65l225 -319h-96l-218 311h-204v-311h-81zM665 384h228q70 0 108 31t38 90q0 58 -38 89.5t-108 31.5h-228v-242z" />
    <glyph glyph-name="N_D" horiz-adv-x="1281" 
d="M97 0v700h70l433 -559v559h232q169 0 274.5 -97t105.5 -253t-105.5 -253t-274.5 -97h-222l-434 561v-561h-79zM680 74h143q142 0 224 74.5t82 201.5t-82 201.5t-224 74.5h-143v-552z" />
    <glyph glyph-name="N_B" horiz-adv-x="1228" 
d="M97 0v700h70l433 -559v559h306q94 0 148 -45t54 -125q0 -56 -25 -94t-68 -54q70 -11 111 -60.5t41 -126.5q0 -88 -62 -141.5t-169 -53.5h-326l-434 561v-561h-79zM680 74h241q76 0 117.5 34t41.5 98q0 63 -41.5 96t-117.5 33h-241v-261zM680 407h212q135 0 135 108
q0 54 -34.5 82.5t-100.5 28.5h-212v-219z" />
    <glyph glyph-name="M_P" horiz-adv-x="1239" 
d="M97 0v700h80l248 -334l248 334h294q106 0 166 -54t60 -142q0 -90 -60 -144.5t-166 -54.5h-214v-305h-81v577l-222 -298h-49l-224 298v-577h-80zM753 379h208q72 0 111.5 31.5t39.5 91.5t-39.5 92t-111.5 32h-208v-247z" />
    <glyph glyph-name="M_R" horiz-adv-x="1310" 
d="M97 0v700h80l248 -334l248 334h313q104 0 163.5 -53t59.5 -139q0 -74 -42 -124t-121 -65l225 -319h-96l-218 311h-204v-311h-81v577l-222 -298h-49l-224 298v-577h-80zM753 384h228q70 0 108 31t38 90q0 58 -38 89.5t-108 31.5h-228v-242z" />
    <glyph glyph-name="M_H" horiz-adv-x="1336" 
d="M97 0v700h80l248 -334l248 334h80v-288h406v288h81v-700h-81v338h-406v-338h-81v577l-222 -298h-49l-224 298v-577h-80z" />
    <glyph glyph-name="M_U" horiz-adv-x="1333" 
d="M959 -12q-128 0 -207.5 80.5t-79.5 229.5v278l-222 -297h-49l-224 298v-577h-80v700h80l248 -334l248 334h80v-404q0 -111 55.5 -171.5t150.5 -60.5t150.5 60.5t55.5 171.5v404h82v-402q0 -149 -80 -229.5t-208 -80.5z" />
    <glyph glyph-name="N_P" horiz-adv-x="1167" 
d="M97 0v700h70l433 -559v559h295q106 0 166 -54t60 -142q0 -90 -60 -144.5t-166 -54.5h-214v-305h-71l-434 561v-561h-79zM681 379h208q72 0 111.5 31.5t39.5 91.5t-39.5 92t-111.5 32h-208v-247z" />
    <glyph glyph-name="N_R" horiz-adv-x="1238" 
d="M97 0v700h70l433 -559v559h314q104 0 163.5 -53t59.5 -139q0 -74 -42 -124t-121 -65l225 -319h-96l-218 311h-204v-311h-71l-434 561v-561h-79zM681 384h228q70 0 108 31t38 90q0 58 -38 89.5t-108 31.5h-228v-242z" />
    <glyph glyph-name="N_N" horiz-adv-x="1278" 
d="M97 0v700h70l433 -559v559h70l433 -559v559h79v-700h-69l-434 561v-561h-69l-434 561v-561h-79z" />
    <glyph glyph-name="U_P" horiz-adv-x="1147" 
d="M373 -12q-128 0 -207.5 80.5t-79.5 229.5v402h81v-404q0 -111 56 -171.5t150 -60.5q95 0 151 60.5t56 171.5v404h295q106 0 166 -54t60 -142q0 -90 -60 -144.5t-166 -54.5h-214q0 -152 -79 -234.5t-209 -82.5zM661 379h208q73 0 112.5 31.5t39.5 91.5t-39.5 92t-112.5 32
h-208v-247z" />
    <glyph glyph-name="U_R" horiz-adv-x="1218" 
d="M373 -12q-128 0 -207.5 80.5t-79.5 229.5v402h81v-404q0 -111 56 -171.5t150 -60.5q95 0 151 60.5t56 171.5v404h314q104 0 163.5 -53t59.5 -139q0 -73 -42 -123.5t-120 -65.5l224 -319h-96l-218 311h-204q0 -156 -77.5 -239.5t-210.5 -83.5zM661 384h228q70 0 108.5 31
t38.5 90q0 58 -38.5 89.5t-108.5 31.5h-228v-242z" />
    <glyph glyph-name="U_F" horiz-adv-x="1106" 
d="M373 -12q-128 0 -207.5 80.5t-79.5 229.5v402h81v-404q0 -111 56 -171.5t150 -60.5q95 0 151 60.5t56 171.5v404h481v-74h-400v-223h323v-74h-323v-31q0 -149 -80 -229.5t-208 -80.5z" />
    <glyph glyph-name="U_H" horiz-adv-x="1244" 
d="M373 -12q-128 0 -207.5 80.5t-79.5 229.5v402h81v-404q0 -111 56 -171.5t150 -60.5q95 0 151 60.5t56 171.5v404h81v-288h406v288h81v-700h-81v338h-406v-40q0 -149 -80 -229.5t-208 -80.5z" />
    <glyph glyph-name="U_K" horiz-adv-x="1148" 
d="M373 -12q-128 0 -207.5 80.5t-79.5 229.5v402h81v-404q0 -111 56 -171.5t150 -60.5q95 0 151 60.5t56 171.5v404h81v-300l317 300h106l-340 -320l393 -380h-113l-363 352v-54q0 -149 -80 -229.5t-208 -80.5z" />
    <glyph glyph-name="U_M" horiz-adv-x="1331" 
d="M373 -12q-128 0 -207.5 80.5t-79.5 229.5v402h81v-404q0 -111 56 -171.5t150 -60.5q95 0 151 60.5t56 171.5v404h80l248 -334l248 334h79v-700h-80v577l-222 -298h-49l-223 296v-277q0 -149 -80 -229.5t-208 -80.5z" />
    <glyph glyph-name="M_B" horiz-adv-x="1300" 
d="M97 0v700h80l248 -334l248 334h305q94 0 148 -45t54 -125q0 -55 -24.5 -93.5t-67.5 -54.5q68 -12 109.5 -61t41.5 -126q0 -88 -62 -141.5t-169 -53.5h-336v577l-222 -298h-49l-224 298v-577h-80zM753 74h240q76 0 117.5 34t41.5 98q0 63 -41.5 96t-117.5 33h-240v-261z
M753 407h211q66 0 101 27.5t35 80.5q0 54 -35 82.5t-101 28.5h-211v-219z" />
    <glyph glyph-name="U_N" horiz-adv-x="1260" 
d="M373 -12q-128 0 -207.5 80.5t-79.5 229.5v402h81v-404q0 -111 56 -171.5t150 -60.5q95 0 151 60.5t56 171.5v404h72l433 -559v559h79v-700h-69l-434 561v-263q0 -149 -80 -229.5t-208 -80.5z" />
    <glyph glyph-name="M_E" horiz-adv-x="1215" 
d="M97 0v700h80l248 -334l248 334h482v-74h-402v-214h330v-74h-330v-264h417v-74h-498v577l-222 -298h-49l-224 298v-577h-80z" />
    <glyph glyph-name="U_T" horiz-adv-x="938" 
d="M903 626h-242v-328q0 -149 -80 -229.5t-208 -80.5t-207.5 80.5t-79.5 229.5v402h81v-404q0 -111 56 -171.5t150 -60.5q95 0 151 60.5t56 171.5v330h-239v74h562v-74z" />
    <glyph glyph-name="T_U" horiz-adv-x="938" 
d="M597 626h-239v-330q0 -111 55.5 -171.5t150.5 -60.5t151 60.5t56 171.5v404h81v-402q0 -149 -80 -229.5t-208 -80.5t-207.5 80.5t-79.5 229.5v328h-242v74h562v-74z" />
    <glyph glyph-name="N_T" horiz-adv-x="958" 
d="M600 141v485h-239v74h562v-74h-241v-626h-72l-434 561v-561h-79v700h70z" />
    <glyph glyph-name="T_H" horiz-adv-x="939" 
d="M35 626v74h562v-74h-241v-214h406v288h81v-700h-81v338h-406v-338h-82v626h-239z" />
    <glyph glyph-name="H_T" horiz-adv-x="940" 
d="M905 700v-74h-239v-626h-82v338h-406v-338h-81v700h81v-288h406v214h-241v74h562z" />
    <glyph glyph-name="A_V" horiz-adv-x="1062" 
d="M28 0l311 704h77l266 -602l259 598h88l-305 -700h-83l-85 189h-360l-83 -189h-85zM224 261h306l-153 341z" />
    <glyph glyph-name="D_C" horiz-adv-x="1247" 
d="M987 -12q-108 0 -192 50t-129 140q-46 -85 -133 -131.5t-204 -46.5h-232v700h232q117 0 204 -47t133 -132q46 89 130 140t191 51q112 0 195 -51v-83q-89 58 -194 58q-118 0 -198.5 -81.5t-80.5 -204.5q0 -125 80.5 -205.5t201.5 -80.5q120 0 206 68v-83q-85 -61 -210 -61
zM178 74h142q142 0 224 74.5t82 201.5t-82 201.5t-224 74.5h-142v-552z" />
    <glyph glyph-name="D_O" horiz-adv-x="1401" 
d="M979 712q151 0 252 -103.5t101 -258.5t-101 -258.5t-252 -103.5q-103 0 -185.5 51t-127.5 139q-46 -85 -133 -131.5t-204 -46.5h-232v700h232q117 0 204 -47t133 -132q43 88 127 139.5t186 51.5zM979 64q115 0 193 82t78 204t-78 204t-193 82q-114 0 -192 -82t-78 -204
t78 -204t192 -82zM178 74h142q142 0 224 74.5t82 201.5t-82 201.5t-224 74.5h-142v-552z" />
    <glyph glyph-name="D_Q" horiz-adv-x="1401" 
d="M979 712q151 0 252 -103.5t101 -258.5q0 -121 -64 -214t-170 -129q60 -62 127 -62q49 0 83 22v-77q-39 -21 -94 -21q-56 0 -104 31.5t-103 88.5q-11 -1 -28 -1q-103 0 -185.5 51t-127.5 139q-46 -85 -133 -131.5t-204 -46.5h-232v700h232q117 0 204 -47t133 -132
q43 88 127 139.5t186 51.5zM979 64q115 0 193 82t78 204t-78 204t-193 82q-114 0 -192 -82t-78 -204t78 -204t192 -82zM178 74h142q142 0 224 74.5t82 201.5t-82 201.5t-224 74.5h-142v-552z" />
    <glyph glyph-name="D_G" horiz-adv-x="1337" 
d="M985 -12q-107 0 -190.5 50t-128.5 140q-46 -85 -133 -131.5t-204 -46.5h-232v700h232q117 0 204 -47t133 -132q46 89 130 140t191 51q129 0 221 -65v-82q-99 71 -216 71q-122 0 -202.5 -81t-80.5 -206q0 -126 79.5 -205.5t196.5 -79.5q123 0 193 70v268h80v-300
q-45 -51 -115.5 -82.5t-157.5 -31.5zM178 74h142q142 0 224 74.5t82 201.5t-82 201.5t-224 74.5h-142v-552z" />
    <glyph glyph-name="H_Y" horiz-adv-x="959" 
d="M97 0v700h81v-327h367l-233 327h94l219 -305l220 305h92l-272 -378v-322h-81v299h-406v-299h-81z" />
    <glyph glyph-name="L_A" horiz-adv-x="1207" 
d="M97 0v700h81v-626h334l279 630h76l312 -704h-86l-85 189h-360l-83 -189h-468zM676 261h305l-152 341z" />
    <glyph glyph-name="M_D" horiz-adv-x="1353" 
d="M672 0v577l-222 -298h-49l-224 298v-577h-80v700h80l248 -334l248 334h231q170 0 275 -97t105 -253t-105 -253t-275 -97h-232zM753 74h142q142 0 224 74.5t82 201.5t-82 201.5t-224 74.5h-142v-552z" />
    <glyph glyph-name="M_F" horiz-adv-x="1198" 
d="M672 0v577l-222 -298h-49l-224 298v-577h-80v700h80l248 -334l248 334h480v-74h-400v-223h323v-74h-323v-329h-81z" />
    <glyph glyph-name="M_N" horiz-adv-x="1350" 
d="M672 0v577l-222 -298h-49l-224 298v-577h-80v700h80l248 -334l248 334h70l432 -559v559h79v-700h-69l-433 559v-559h-80z" />
    <glyph glyph-name="N_E" horiz-adv-x="1143" 
d="M610 0l-434 561v-561h-79v700h70l433 -559v559h483v-74h-402v-214h329v-74h-329v-264h417v-74h-488z" />
    <glyph glyph-name="N_F" horiz-adv-x="1126" 
d="M97 0v700h70l433 -559v559h481v-74h-400v-223h323v-74h-323v-329h-71l-434 561v-561h-79z" />
    <glyph glyph-name="N_M" horiz-adv-x="1351" 
d="M97 0v700h70l433 -559v559h80l248 -334l248 334h79v-700h-80v577l-222 -298h-49l-224 298v-577h-70l-434 561v-561h-79z" />
    <glyph glyph-name="O_Q" horiz-adv-x="1467" 
d="M1045 712q151 0 252 -103.5t101 -258.5q0 -121 -64 -214t-170 -129q60 -62 127 -62q48 0 83 22v-77q-39 -21 -94 -21q-56 0 -104 31.5t-103 88.5q-11 -1 -28 -1q-103 0 -186 51t-126 136q-45 -86 -127.5 -136.5t-184.5 -50.5q-151 0 -252 103.5t-101 258.5t101 258.5
t252 103.5q102 0 184.5 -50.5t127.5 -136.5q43 85 126 136t186 51zM1045 64q115 0 193 82t78 204t-78 204t-193 82q-114 0 -192 -82t-78 -204t78 -204t192 -82zM421 64q115 0 193 82t78 204t-78 204t-193 82q-114 0 -192 -82t-78 -204t78 -204t192 -82z" />
    <glyph glyph-name="O_G" horiz-adv-x="1403" 
d="M1050 -12q-105 0 -188.5 49.5t-128.5 137.5q-45 -86 -127.5 -136.5t-184.5 -50.5q-151 0 -252 103.5t-101 258.5t101 258.5t252 103.5q102 0 184.5 -50.5t127.5 -136.5q45 88 129 137.5t191 49.5q129 0 221 -65v-82q-99 71 -217 71q-121 0 -201.5 -81t-80.5 -206
q0 -126 79.5 -205.5t195.5 -79.5q124 0 193 70v268h81v-300q-45 -51 -116 -82.5t-158 -31.5zM421 64q115 0 193 82t78 204t-78 204t-193 82q-114 0 -192 -82t-78 -204t78 -204t192 -82z" />
    <glyph glyph-name="T_Z" horiz-adv-x="1168" 
d="M574 0v58l422 568h-640v-626h-82v626h-239v74h1070v-57l-418 -569h434v-74h-547z" />
    <glyph glyph-name="V_A" horiz-adv-x="1057" 
d="M337 0l-305 700h90l255 -593l264 597h76l312 -704h-86l-85 189h-360l-83 -189h-78zM526 261h305l-152 341z" />
    <glyph glyph-name="Y_H" horiz-adv-x="958" 
d="M293 0v320l-271 380h94l219 -305l219 305h92l-235 -327h369v327h82v-700h-82v299h-405v-299h-82z" />
    <glyph glyph-name="H_L" horiz-adv-x="1085" 
d="M584 0v338h-406v-338h-81v700h81v-288h406v288h81v-626h387v-74h-468z" />
    <glyph glyph-name="N_K" horiz-adv-x="1168" 
d="M681 700v-300l316 300h107l-340 -320l393 -380h-113l-363 352v-352h-71l-434 561v-561h-79v700h70l433 -559v559h81z" />
    <glyph glyph-name="N_L" horiz-adv-x="1101" 
d="M97 0v700h70l433 -559v559h81v-626h387v-74h-458l-434 561v-561h-79z" />
    <glyph glyph-name="M_L" horiz-adv-x="1173" 
d="M97 0v700h80l248 -334l248 334h80v-626h387v-74h-468v577l-222 -298h-49l-224 298v-577h-80z" />
    <glyph glyph-name="A_v" horiz-adv-x="964" 
d="M28 0l311 704h77l266 -602l170 383h85l-220 -485h-76l-85 189h-360l-83 -189h-85zM224 261h306l-153 341z" />
    <glyph glyph-name="A_y" horiz-adv-x="952" 
d="M28 0l311 704h77l261 -593l161 374h85l-238 -539q-34 -76 -75 -113t-101 -37q-57 0 -79 14v73q31 -16 67 -16q45 0 75 34.5t63 111.5l-79 176h-360l-83 -189h-85zM224 261h306l-153 341z" />
    <glyph glyph-name="H_k" horiz-adv-x="1049" 
d="M97 0v700h81v-288h406v288h81v-411l222 196h106l-250 -219l286 -266h-112l-252 234v-234h-81v338h-406v-338h-81z" />
    <glyph glyph-name="H_m" horiz-adv-x="1422" 
d="M584 0v338h-406v-338h-81v700h81v-288h406v288h81v-286q59 83 171 83q60 0 100 -24.5t55 -69.5q27 41 75 67.5t110 26.5q82 0 127 -49.5t45 -145.5v-302h-80v284q0 138 -116 138q-44 0 -86 -30t-61 -69q1 -23 1 -60v-263h-79v284q0 43 -11.5 72.5t-30.5 42.5t-36.5 18
t-37.5 5q-42 0 -83.5 -28t-62.5 -68v-326h-81z" />
    <glyph glyph-name="H_u" horiz-adv-x="1123" 
d="M97 0v700h81v-288h406v288h81v-493q0 -144 132 -144q48 0 94 29t69 68v325h79v-485h-79v72q-74 -84 -191 -84q-91 0 -138 53t-47 148v149h-406v-338h-81z" />
    <glyph glyph-name="J_h" horiz-adv-x="868" 
d="M196 -12q-99 0 -161 44v84q58 -52 146 -52q81 0 119.5 39.5t38.5 125.5v471h81v-288q75 85 191 85q90 0 136.5 -53t46.5 -149v-295h-79v278q0 43 -12.5 73.5t-33.5 44.5t-41.5 20t-44.5 6q-48 0 -94 -29t-69 -68v-110q0 -115 -60 -171t-164 -56z" />
    <glyph glyph-name="J_k" horiz-adv-x="805" 
d="M196 -12q-99 0 -161 44v84q58 -52 146 -52q81 0 119.5 39.5t38.5 125.5v471h81v-412l223 197h106l-250 -219l286 -266h-112l-253 235q0 -247 -224 -247z" />
    <glyph glyph-name="J_m" horiz-adv-x="1177" 
d="M196 -12q-99 0 -161 44v84q58 -52 146 -52q81 0 119.5 39.5t38.5 125.5v471h81v-286q59 83 172 83q60 0 100 -24.5t55 -69.5q27 41 75 67.5t110 26.5q81 0 126 -50t45 -145v-302h-79v284q0 138 -116 138q-43 0 -86 -30t-62 -69q2 -42 2 -56v-267h-79v284q0 43 -11.5 72.5
t-30.5 42.5t-36.5 18t-37.5 5q-43 0 -84.5 -28t-62.5 -68v-111q0 -115 -60 -171t-164 -56z" />
    <glyph glyph-name="L_i" horiz-adv-x="740" 
d="M97 0v700h81v-626h387v411h79v-485h-547zM551 649q0 23 15.5 38.5t38.5 15.5t38.5 -15.5t15.5 -38.5t-15.5 -38.5t-38.5 -15.5t-38.5 15.5t-15.5 38.5z" />
    <glyph glyph-name="M_b" horiz-adv-x="1225" 
d="M673 700h79v-290q67 87 184 87q106 0 174 -74.5t68 -180.5q0 -105 -68 -179.5t-174 -74.5q-119 0 -184 87v-75h-80v577l-222 -298h-49l-224 298v-577h-80v700h80l248 -334zM752 321v-157q21 -45 66.5 -75t98.5 -30q78 0 129 52.5t51 130.5t-51 131t-129 53
q-55 0 -99.5 -29.5t-65.5 -75.5z" />
    <glyph glyph-name="M_n" horiz-adv-x="1200" 
d="M97 0v700h80l248 -334l248 334h79v-288q29 36 78.5 60.5t111.5 24.5q91 0 137.5 -53t46.5 -149v-295h-80v278q0 43 -12.5 73.5t-33.5 44.5t-41.5 20t-44.5 6q-47 0 -94 -29.5t-68 -67.5v-325h-80v577l-222 -298h-49l-224 298v-577h-80z" />
    <glyph glyph-name="M_k" horiz-adv-x="1137" 
d="M97 0v700h80l248 -334l248 334h79v-412l223 197h106l-251 -219l287 -266h-112l-253 235v-235h-80v577l-222 -298h-49l-224 298v-577h-80z" />
    <glyph glyph-name="M_m" horiz-adv-x="1509" 
d="M672 0v577l-222 -298h-49l-224 298v-577h-80v700h80l248 -334l248 334h79v-286q59 83 172 83q60 0 100 -24.5t55 -69.5q27 41 74.5 67.5t109.5 26.5q82 0 127 -49.5t45 -145.5v-302h-79v284q0 138 -116 138q-43 0 -86 -30t-62 -69q2 -46 2 -60v-263h-79v284
q0 43 -11.5 72.5t-31 42.5t-37 18t-37.5 5q-42 0 -83.5 -28t-62.5 -68v-326h-80z" />
    <glyph glyph-name="M_u" horiz-adv-x="1210" 
d="M97 0v700h80l248 -334l248 334h79v-493q0 -144 133 -144q47 0 93 29t69 68v325h79v-485h-79v72q-72 -84 -190 -84q-91 0 -138 52.5t-47 148.5v388l-222 -298h-49l-224 298v-577h-80z" />
    <glyph glyph-name="N_h" horiz-adv-x="1127" 
d="M679 0h-69l-434 561v-561h-79v700h70l433 -559v559h79v-288q75 85 190 85q91 0 137.5 -53t46.5 -149v-295h-79v278q0 43 -12.5 73.5t-33.5 45t-42 20t-45 5.5q-47 0 -94 -29.5t-68 -67.5v-325z" />
    <glyph glyph-name="N_k" horiz-adv-x="1063" 
d="M97 0v700h70l433 -559v559h79v-412l223 197h106l-251 -219l286 -266h-112l-252 235v-235h-69l-434 561v-561h-79z" />
    <glyph glyph-name="N_m" horiz-adv-x="1436" 
d="M97 0v700h70l433 -559v559h79v-286q59 83 171 83q60 0 100 -24.5t55 -69.5q27 41 75 67.5t110 26.5q82 0 127 -49.5t45 -145.5v-302h-80v284q0 43 -11.5 72.5t-30.5 42.5t-36.5 18t-37.5 5q-44 0 -86 -30t-61 -69q1 -23 1 -60v-263h-79v284q0 43 -11.5 72.5t-30.5 42.5
t-36.5 18t-37.5 5q-42 0 -83.5 -28t-62.5 -68v-326h-69l-434 561v-561h-79z" />
    <glyph glyph-name="T_b" horiz-adv-x="1149" 
d="M35 700h641v-290q67 87 184 87q106 0 174 -74.5t68 -180.5q0 -105 -68 -179.5t-174 -74.5q-119 0 -184 87v-75h-80v626h-240v-626h-82v626h-239v74zM676 321v-157q21 -45 66.5 -75t98.5 -30q78 0 129 52.5t51 130.5t-51 131t-129 53q-55 0 -99.5 -29.5t-65.5 -75.5z" />
    <glyph glyph-name="T_k" horiz-adv-x="1060" 
d="M676 700v-412l222 197h106l-250 -219l286 -266h-112l-252 235v-235h-80v626h-240v-626h-82v626h-239v74h641z" />
    <glyph glyph-name="T_m" horiz-adv-x="1112" 
d="M274 0v626h-239v74h562v-74h-241v-212q57 83 171 83q60 0 100 -24.5t55 -69.5q27 41 75 67.5t110 26.5q81 0 126 -50t45 -145v-302h-79v284q0 138 -116 138q-44 0 -86 -30t-61 -69q0 -11 0.5 -30t0.5 -30v-263h-79v284q0 43 -11.5 72.5t-30.5 42.5t-36.5 18t-37.5 5
q-43 0 -84 -28t-62 -68v-326h-82z" />
    <glyph glyph-name="U_h" horiz-adv-x="1109" 
d="M373 -12q-128 0 -207.5 80.5t-79.5 229.5v402h81v-404q0 -111 56 -171.5t150 -60.5q95 0 151 60.5t56 171.5v404h81v-288q75 85 190 85q91 0 137.5 -53t46.5 -149v-295h-79v278q0 43 -12.5 73.5t-33.5 45t-42 20t-45 5.5q-47 0 -93 -29t-69 -68v-27q0 -149 -80 -229.5
t-208 -80.5z" />
    <glyph glyph-name="U_k" horiz-adv-x="1046" 
d="M661 700v-412l223 197h106l-251 -219l287 -266h-112l-257 237q-18 -120 -94 -184.5t-190 -64.5q-128 0 -207.5 80.5t-79.5 229.5v402h81v-404q0 -111 56 -171.5t150 -60.5q95 0 151 60.5t56 171.5v404h81z" />
    <glyph glyph-name="U_m" horiz-adv-x="1418" 
d="M373 -12q-128 0 -207.5 80.5t-79.5 229.5v402h81v-404q0 -111 56 -171.5t150 -60.5q95 0 151 60.5t56 171.5v404h81v-286q59 83 172 83q60 0 100 -24.5t55 -69.5q27 41 74.5 67.5t109.5 26.5q82 0 127 -49.5t45 -145.5v-302h-79v284q0 138 -116 138q-43 0 -86 -30
t-62 -69q2 -42 2 -56v-267h-80v284q0 43 -11.5 72.5t-30.5 42.5t-36.5 18t-37.5 5q-42 0 -83.5 -28t-62.5 -68v-28q0 -149 -80 -229.5t-208 -80.5z" />
    <glyph glyph-name="a_i" horiz-adv-x="650" 
d="M475 0v75q-65 -87 -185 -87q-106 0 -174 74.5t-68 179.5q0 106 68 180.5t174 74.5q118 0 185 -87v75h79v-485h-79zM475 164v157q-21 46 -65.5 75.5t-99.5 29.5q-78 0 -129.5 -53t-51.5 -131t51.5 -130.5t129.5 -52.5q54 0 98.5 29.5t66.5 75.5zM461 649q0 23 15.5 38.5
t38.5 15.5t38.5 -15.5t15.5 -38.5t-15.5 -38.5t-38.5 -15.5t-38.5 15.5t-15.5 38.5z" />
    <glyph glyph-name="a_m" horiz-adv-x="1311" 
d="M475 0v75q-65 -87 -185 -87q-106 0 -174 74.5t-68 179.5q0 106 68 180.5t174 74.5q118 0 185 -87v75h79v-71q59 83 172 83q60 0 100 -24.5t55 -69.5q27 41 74.5 67.5t109.5 26.5q82 0 127 -49.5t45 -145.5v-302h-79v284q0 138 -116 138q-43 0 -86 -30t-62 -69
q2 -42 2 -56v-267h-79v284q0 43 -11.5 72.5t-31 42.5t-37 18t-37.5 5q-42 0 -83.5 -28t-62.5 -68v-326h-79zM475 164v157q-21 46 -65.5 75.5t-99.5 29.5q-78 0 -129.5 -53t-51.5 -131t51.5 -130.5t129.5 -52.5q54 0 98.5 29.5t66.5 75.5z" />
    <glyph glyph-name="a_n" horiz-adv-x="1002" 
d="M554 0h-79v75q-65 -87 -185 -87q-106 0 -174 74.5t-68 179.5q0 106 68 180.5t174 74.5q118 0 185 -87v75h79v-73q75 85 191 85q90 0 136.5 -53t46.5 -149v-295h-79v278q0 144 -133 144q-46 0 -92.5 -29.5t-69.5 -67.5v-325zM475 164v157q-21 46 -65.5 75.5t-99.5 29.5
q-78 0 -129.5 -53t-51.5 -131t51.5 -130.5t129.5 -52.5q54 0 98.5 29.5t66.5 75.5z" />
    <glyph glyph-name="b_c" horiz-adv-x="983" 
d="M767 -12q-70 0 -126.5 30t-90.5 83q-68 -113 -203 -113q-119 0 -184 87v-75h-80v700h80v-290q67 87 184 87q134 0 203 -114q35 53 91.5 83.5t126.5 30.5q84 0 146 -35v-72q-64 36 -135 36q-80 0 -135 -52t-55 -132t55 -131.5t135 -51.5q82 0 144 41v-71q-68 -41 -156 -41
zM163 321v-157q21 -45 66.5 -75t98.5 -30q76 0 128 52.5t52 130.5t-51 131t-129 53q-55 0 -99.5 -29.5t-65.5 -75.5z" />
    </font>
</defs>
</svg>
